{"glyphs":{"0":{"ha":833,"x_min":76,"x_max":757,"o":"m 417 -11 q 163 117 250 -11 q 76 494 76 246 q 163 872 76 743 q 417 1000 249 1000 q 671 872 585 1000 q 757 496 757 744 q 670 118 757 247 q 417 -11 583 -11 m 417 65 q 606 170 544 65 q 668 496 668 275 q 607 820 668 717 q 417 924 546 924 q 227 819 289 924 q 165 496 165 715 q 227 171 165 276 q 417 65 289 65 z "},"1":{"ha":833,"x_min":188,"x_max":711,"o":"m 711 75 l 711 0 l 188 0 l 188 75 l 407 75 l 407 875 l 203 743 l 203 831 l 444 989 l 493 989 l 493 75 l 711 75 z "},"2":{"ha":833,"x_min":99,"x_max":746,"o":"m 746 75 l 746 0 l 122 0 l 122 64 l 474 457 q 582 609 549 543 q 615 740 615 675 q 565 877 615 829 q 419 925 514 925 q 135 806 274 925 l 99 874 q 244 965 157 931 q 419 1000 332 1000 q 627 931 551 1000 q 703 744 703 863 q 663 579 703 660 q 535 400 624 499 l 238 75 l 746 75 z "},"3":{"ha":833,"x_min":83,"x_max":724,"o":"m 544 508 q 678 422 632 483 q 724 267 724 360 q 640 65 724 139 q 411 -10 556 -10 q 231 24 317 -10 q 83 117 144 57 l 119 185 q 259 95 188 125 q 411 65 331 65 q 578 117 519 65 q 638 267 638 169 q 393 464 638 464 l 288 464 l 288 540 l 372 540 q 552 594 489 540 q 615 747 615 647 q 564 878 615 832 q 419 925 513 925 q 135 806 274 925 l 99 874 q 244 967 158 933 q 421 1000 329 1000 q 626 933 550 1000 q 703 751 703 865 q 660 601 703 665 q 544 508 618 536 z "},"4":{"ha":833,"x_min":74,"x_max":781,"o":"m 781 225 l 628 225 l 628 0 l 542 0 l 542 225 l 74 225 l 74 290 l 557 989 l 628 989 l 628 299 l 781 299 l 781 225 m 542 299 l 542 836 l 169 299 l 542 299 z "},"5":{"ha":833,"x_min":117,"x_max":761,"o":"m 453 614 q 617 575 547 614 q 724 465 686 536 q 761 303 761 394 q 722 140 761 211 q 608 30 682 69 q 438 -10 535 -10 q 263 24 350 -10 q 117 117 176 58 l 153 185 q 439 65 292 65 q 610 130 547 65 q 674 303 674 194 q 611 473 674 407 q 447 539 549 539 q 311 508 369 539 q 210 411 253 476 l 143 411 l 143 989 l 724 989 l 724 915 l 229 915 l 229 521 q 327 590 269 565 q 453 614 385 614 z "},"6":{"ha":833,"x_min":82,"x_max":761,"o":"m 450 615 q 613 576 542 615 q 722 465 683 536 q 761 303 761 394 q 721 141 761 213 q 609 29 681 69 q 447 -11 538 -11 q 177 113 272 -11 q 82 467 82 236 q 180 860 82 719 q 454 1000 278 1000 q 617 967 538 1000 q 760 874 697 935 l 724 806 q 588 896 653 867 q 454 925 522 925 q 244 804 319 925 q 168 467 168 683 l 168 429 q 275 565 199 515 q 450 615 351 615 m 444 64 q 610 129 547 64 q 674 303 674 194 q 610 474 674 408 q 443 539 546 539 q 319 509 374 539 q 233 425 264 479 q 203 303 203 371 q 270 130 203 196 q 444 64 338 64 z "},"7":{"ha":833,"x_min":99,"x_max":735,"o":"m 735 989 l 735 925 l 265 0 l 172 0 l 639 914 l 99 914 l 99 989 l 735 989 z "},"8":{"ha":833,"x_min":69,"x_max":764,"o":"m 557 507 q 710 417 656 482 q 764 260 764 351 q 671 63 764 135 q 417 -10 578 -10 q 163 63 256 -10 q 69 260 69 135 q 125 416 69 350 q 276 507 181 482 q 140 594 188 533 q 92 739 92 656 q 132 876 92 817 q 247 968 172 936 q 417 1000 321 1000 q 587 968 513 1000 q 701 876 661 936 q 742 739 742 817 q 694 594 742 656 q 557 507 646 533 m 179 735 q 243 597 179 650 q 417 533 307 544 q 590 597 526 544 q 654 735 654 650 q 592 874 654 824 q 417 925 529 925 q 242 874 304 925 q 179 735 179 824 m 417 65 q 610 116 543 65 q 676 264 676 167 q 605 406 676 353 q 417 469 533 458 q 228 406 300 458 q 157 264 157 353 q 224 116 157 167 q 417 65 290 65 z "},"9":{"ha":833,"x_min":74,"x_max":753,"o":"m 388 1000 q 658 876 563 1000 q 753 522 753 753 q 655 129 753 269 q 381 -11 557 -11 q 217 22 297 -11 q 75 115 138 54 l 111 183 q 248 92 183 121 q 381 64 313 64 q 591 185 515 64 q 667 522 667 306 l 667 561 q 560 424 636 474 q 385 374 483 374 q 222 413 293 374 q 113 524 151 453 q 74 686 74 594 q 114 848 74 776 q 226 960 154 919 q 388 1000 297 1000 m 392 450 q 516 480 461 450 q 601 564 571 510 q 632 686 632 618 q 565 859 632 793 q 390 925 497 925 q 224 860 288 925 q 161 686 161 794 q 225 515 161 581 q 392 450 289 450 z "},"\u0000":{"ha":0,"x_min":0,"x_max":0,"o":""},"\r":{"ha":354,"x_min":0,"x_max":0,"o":""}," ":{"ha":354,"x_min":0,"x_max":0,"o":""},"A":{"ha":1010,"x_min":36,"x_max":974,"o":"m 772 264 l 239 264 l 125 0 l 36 0 l 467 989 l 544 989 l 974 0 l 885 0 l 772 264 m 739 339 l 506 885 l 271 339 l 739 339 z "},"Á":{"ha":1010,"x_min":36,"x_max":974,"o":"m 772 264 l 239 264 l 125 0 l 36 0 l 467 989 l 544 989 l 974 0 l 885 0 l 772 264 m 739 339 l 506 885 l 271 339 l 739 339 m 472 1074 l 613 1283 l 717 1283 l 538 1074 l 472 1074 z "},"Ă":{"ha":1010,"x_min":36,"x_max":974,"o":"m 772 264 l 239 264 l 125 0 l 36 0 l 467 989 l 544 989 l 974 0 l 885 0 l 772 264 m 739 339 l 506 885 l 271 339 l 739 339 m 506 1092 q 372 1126 431 1092 q 283 1239 314 1161 l 346 1267 q 417 1183 381 1206 q 506 1160 454 1160 q 592 1183 556 1160 q 664 1267 629 1206 l 726 1239 q 506 1092 668 1092 z "},"Ắ":{"ha":1010,"x_min":36,"x_max":974,"o":"m 772 264 l 239 264 l 125 0 l 36 0 l 467 989 l 544 989 l 974 0 l 885 0 l 772 264 m 739 339 l 506 885 l 271 339 l 739 339 m 474 1215 l 613 1414 l 717 1414 l 536 1215 l 474 1215 m 506 1067 q 372 1101 431 1067 q 283 1214 314 1136 l 344 1242 q 416 1156 378 1179 q 506 1133 454 1133 q 594 1156 557 1133 q 665 1242 632 1179 l 726 1214 q 637 1101 694 1136 q 506 1067 579 1067 z "},"Ặ":{"ha":1010,"x_min":36,"x_max":974,"o":"m 772 264 l 239 264 l 125 0 l 36 0 l 467 989 l 544 989 l 974 0 l 885 0 l 772 264 m 739 339 l 506 885 l 271 339 l 739 339 m 560 -142 l 560 -250 l 450 -250 l 450 -142 l 560 -142 m 506 1092 q 372 1126 431 1092 q 283 1239 314 1161 l 346 1267 q 417 1183 381 1206 q 506 1160 454 1160 q 592 1183 556 1160 q 664 1267 629 1206 l 726 1239 q 506 1092 668 1092 z "},"Ằ":{"ha":1010,"x_min":36,"x_max":974,"o":"m 772 264 l 239 264 l 125 0 l 36 0 l 467 989 l 544 989 l 974 0 l 885 0 l 772 264 m 739 339 l 506 885 l 271 339 l 739 339 m 293 1414 l 397 1414 l 536 1215 l 474 1215 l 293 1414 m 506 1067 q 373 1101 431 1067 q 283 1214 315 1136 l 344 1242 q 416 1156 378 1179 q 506 1133 454 1133 q 594 1156 557 1133 q 665 1242 632 1179 l 726 1214 q 638 1101 696 1136 q 506 1067 579 1067 z "},"Ẳ":{"ha":1010,"x_min":36,"x_max":974,"o":"m 772 264 l 239 264 l 125 0 l 36 0 l 467 989 l 544 989 l 974 0 l 885 0 l 772 264 m 739 339 l 506 885 l 271 339 l 739 339 m 539 1215 l 472 1215 l 472 1239 q 488 1276 472 1263 q 531 1300 503 1289 q 559 1315 550 1308 q 568 1331 568 1321 q 552 1351 568 1344 q 507 1358 536 1358 q 421 1343 467 1358 l 401 1397 q 511 1421 456 1421 q 610 1397 574 1421 q 646 1332 646 1372 q 630 1294 646 1307 q 585 1268 614 1281 q 551 1250 563 1258 q 539 1228 539 1242 l 539 1215 m 506 1067 q 373 1101 431 1067 q 283 1214 315 1136 l 344 1242 q 416 1156 378 1179 q 506 1133 454 1133 q 594 1156 557 1133 q 665 1242 632 1179 l 726 1214 q 638 1101 696 1136 q 506 1067 579 1067 z "},"Ẵ":{"ha":1010,"x_min":36,"x_max":974,"o":"m 772 264 l 239 264 l 125 0 l 36 0 l 467 989 l 544 989 l 974 0 l 885 0 l 772 264 m 739 339 l 506 885 l 271 339 l 739 339 m 285 1283 q 316 1388 285 1349 q 403 1426 347 1426 q 459 1415 432 1426 q 522 1381 486 1403 q 546 1367 528 1378 q 578 1352 564 1357 q 604 1347 593 1347 q 653 1369 636 1347 q 671 1422 671 1392 l 725 1422 q 693 1318 725 1357 q 607 1279 661 1279 q 551 1291 578 1279 q 488 1325 524 1303 q 439 1352 456 1344 q 406 1360 422 1360 q 356 1337 374 1360 q 339 1283 339 1314 l 285 1283 m 506 1067 q 373 1101 431 1067 q 283 1214 315 1136 l 344 1242 q 416 1156 378 1179 q 506 1133 454 1133 q 594 1156 557 1133 q 665 1242 632 1179 l 726 1214 q 638 1101 696 1136 q 506 1067 579 1067 z "},"Â":{"ha":1010,"x_min":36,"x_max":974,"o":"m 772 264 l 239 264 l 125 0 l 36 0 l 467 989 l 544 989 l 974 0 l 885 0 l 772 264 m 739 339 l 506 885 l 271 339 l 739 339 m 311 1074 l 472 1283 l 538 1283 l 699 1074 l 611 1074 l 506 1225 l 399 1074 l 311 1074 z "},"Ấ":{"ha":1010,"x_min":36,"x_max":974,"o":"m 772 264 l 239 264 l 125 0 l 36 0 l 467 989 l 544 989 l 974 0 l 885 0 l 772 264 m 739 339 l 506 885 l 271 339 l 739 339 m 619 1215 l 756 1414 l 858 1414 l 679 1215 l 619 1215 m 311 1074 l 472 1282 l 538 1282 l 699 1074 l 611 1074 l 506 1224 l 399 1074 l 311 1074 z "},"Ậ":{"ha":1010,"x_min":36,"x_max":974,"o":"m 772 264 l 239 264 l 125 0 l 36 0 l 467 989 l 544 989 l 974 0 l 885 0 l 772 264 m 739 339 l 506 885 l 271 339 l 739 339 m 560 -142 l 560 -250 l 450 -250 l 450 -142 l 560 -142 m 311 1074 l 472 1283 l 538 1283 l 699 1074 l 611 1074 l 506 1225 l 399 1074 l 311 1074 z "},"Ầ":{"ha":1010,"x_min":36,"x_max":974,"o":"m 772 264 l 239 264 l 125 0 l 36 0 l 467 989 l 544 989 l 974 0 l 885 0 l 772 264 m 739 339 l 506 885 l 271 339 l 739 339 m 528 1414 l 629 1414 l 739 1215 l 681 1215 l 528 1414 m 311 1074 l 472 1282 l 538 1282 l 699 1074 l 611 1074 l 506 1224 l 399 1074 l 311 1074 z "},"Ẩ":{"ha":1010,"x_min":36,"x_max":974,"o":"m 772 264 l 239 264 l 125 0 l 36 0 l 467 989 l 544 989 l 974 0 l 885 0 l 772 264 m 739 339 l 506 885 l 271 339 l 739 339 m 685 1215 l 618 1215 l 618 1239 q 633 1276 618 1263 q 676 1300 649 1289 q 705 1315 696 1308 q 714 1331 714 1321 q 698 1351 714 1344 q 654 1358 682 1358 q 567 1343 613 1358 l 547 1397 q 657 1421 601 1421 q 756 1397 719 1421 q 793 1332 793 1372 q 777 1294 793 1307 q 731 1268 761 1281 q 697 1250 708 1258 q 685 1228 685 1242 l 685 1215 m 311 1074 l 472 1282 l 538 1282 l 699 1074 l 611 1074 l 506 1224 l 399 1074 l 311 1074 z "},"Ẫ":{"ha":1010,"x_min":36,"x_max":974,"o":"m 772 264 l 239 264 l 125 0 l 36 0 l 467 989 l 544 989 l 974 0 l 885 0 l 772 264 m 739 339 l 506 885 l 271 339 l 739 339 m 285 1301 q 317 1400 285 1363 q 403 1438 349 1438 q 457 1428 431 1438 q 522 1401 483 1419 q 569 1381 550 1388 q 604 1374 588 1374 q 653 1395 635 1374 q 671 1442 671 1417 l 725 1442 q 693 1344 725 1382 q 607 1306 661 1306 q 551 1315 578 1306 q 488 1343 524 1325 q 464 1354 482 1346 q 431 1367 446 1363 q 406 1371 417 1371 q 357 1349 375 1371 q 339 1301 339 1328 l 285 1301 m 311 1074 l 472 1282 l 538 1282 l 699 1074 l 611 1074 l 506 1224 l 399 1074 l 311 1074 z "},"Ȁ":{"ha":1010,"x_min":36,"x_max":974,"o":"m 772 264 l 239 264 l 125 0 l 36 0 l 467 989 l 544 989 l 974 0 l 885 0 l 772 264 m 739 339 l 506 885 l 271 339 l 739 339 m 264 1283 l 350 1283 l 450 1074 l 400 1074 l 264 1283 m 424 1283 l 511 1283 l 610 1074 l 560 1074 l 424 1283 z "},"Ä":{"ha":1010,"x_min":36,"x_max":974,"o":"m 772 264 l 239 264 l 125 0 l 36 0 l 467 989 l 544 989 l 974 0 l 885 0 l 772 264 m 739 339 l 506 885 l 271 339 l 739 339 m 440 1231 l 440 1129 l 336 1129 l 336 1231 l 440 1231 m 674 1231 l 674 1129 l 569 1129 l 569 1231 l 674 1231 z "},"Ạ":{"ha":1010,"x_min":36,"x_max":974,"o":"m 772 264 l 239 264 l 125 0 l 36 0 l 467 989 l 544 989 l 974 0 l 885 0 l 772 264 m 739 339 l 506 885 l 271 339 l 739 339 m 560 -142 l 560 -250 l 450 -250 l 450 -142 l 560 -142 z "},"À":{"ha":1010,"x_min":36,"x_max":974,"o":"m 772 264 l 239 264 l 125 0 l 36 0 l 467 989 l 544 989 l 974 0 l 885 0 l 772 264 m 739 339 l 506 885 l 271 339 l 739 339 m 293 1283 l 397 1283 l 538 1074 l 472 1074 l 293 1283 z "},"Ả":{"ha":1010,"x_min":36,"x_max":974,"o":"m 772 264 l 239 264 l 125 0 l 36 0 l 467 989 l 544 989 l 974 0 l 885 0 l 772 264 m 739 339 l 506 885 l 271 339 l 739 339 m 539 1074 l 472 1074 l 472 1096 q 488 1135 472 1119 q 531 1164 504 1150 q 559 1183 550 1175 q 568 1200 568 1190 q 552 1221 568 1214 q 507 1228 536 1228 q 421 1211 465 1228 l 401 1267 q 511 1290 456 1290 q 610 1266 574 1290 q 646 1201 646 1242 q 629 1158 646 1174 q 582 1128 613 1143 q 549 1106 558 1114 q 539 1086 539 1099 l 539 1074 z "},"Ȃ":{"ha":1010,"x_min":36,"x_max":974,"o":"m 772 264 l 239 264 l 125 0 l 36 0 l 467 989 l 544 989 l 974 0 l 885 0 l 772 264 m 739 339 l 506 885 l 271 339 l 739 339 m 506 1268 q 638 1233 579 1268 q 726 1119 696 1197 l 664 1093 q 592 1177 629 1154 q 506 1200 556 1200 q 417 1177 454 1200 q 346 1093 381 1154 l 283 1119 q 373 1233 315 1199 q 506 1268 431 1268 z "},"Ā":{"ha":1010,"x_min":36,"x_max":974,"o":"m 772 264 l 239 264 l 125 0 l 36 0 l 467 989 l 544 989 l 974 0 l 885 0 l 772 264 m 739 339 l 506 885 l 271 339 l 739 339 m 297 1217 l 713 1217 l 713 1144 l 297 1144 l 297 1217 z "},"Ą":{"ha":1010,"x_min":36,"x_max":1032,"o":"m 1032 -237 q 918 -268 985 -268 q 802 -227 847 -268 q 757 -124 757 -186 q 785 -29 757 -71 q 869 36 814 13 l 772 264 l 239 264 l 125 0 l 36 0 l 467 989 l 544 989 l 974 0 l 960 0 q 864 -32 896 0 q 832 -114 832 -64 q 858 -181 832 -157 q 928 -204 885 -204 q 1008 -179 967 -204 l 1032 -237 m 739 339 l 506 885 l 271 339 l 739 339 z "},"Å":{"ha":1010,"x_min":36,"x_max":974,"o":"m 772 264 l 239 264 l 125 0 l 36 0 l 453 957 q 390 1006 414 972 q 367 1082 367 1039 q 408 1178 367 1139 q 506 1218 449 1218 q 603 1178 563 1218 q 644 1082 644 1139 q 621 1006 644 1039 q 558 957 597 972 l 974 0 l 885 0 l 772 264 m 506 1154 q 456 1133 475 1154 q 436 1082 436 1113 q 456 1031 436 1051 q 506 1010 475 1010 q 556 1031 536 1010 q 575 1082 575 1051 q 556 1133 575 1113 q 506 1154 536 1154 m 739 339 l 506 885 l 271 339 l 739 339 z "},"Ǻ":{"ha":1010,"x_min":36,"x_max":974,"o":"m 772 264 l 239 264 l 125 0 l 36 0 l 453 957 q 390 1006 414 972 q 367 1082 367 1039 q 408 1178 367 1139 q 506 1218 449 1218 q 582 1196 546 1218 l 699 1317 l 808 1317 l 621 1158 q 644 1082 644 1124 q 621 1006 644 1039 q 558 957 597 972 l 974 0 l 885 0 l 772 264 m 506 1154 q 456 1133 475 1154 q 436 1082 436 1113 q 456 1031 436 1051 q 506 1010 475 1010 q 556 1031 536 1010 q 575 1082 575 1051 q 556 1133 575 1113 q 506 1154 536 1154 m 739 339 l 506 885 l 271 339 l 739 339 z "},"Ã":{"ha":1010,"x_min":36,"x_max":974,"o":"m 772 264 l 239 264 l 125 0 l 36 0 l 467 989 l 544 989 l 974 0 l 885 0 l 772 264 m 739 339 l 506 885 l 271 339 l 739 339 m 285 1110 q 316 1217 285 1178 q 403 1257 347 1257 q 458 1245 432 1257 q 522 1210 485 1233 q 569 1183 551 1192 q 604 1174 588 1174 q 653 1197 636 1174 q 671 1253 671 1221 l 725 1253 q 694 1144 725 1183 q 607 1106 663 1106 q 551 1117 578 1106 q 488 1151 524 1129 q 439 1178 456 1171 q 406 1186 422 1186 q 356 1164 374 1186 q 339 1110 339 1142 l 285 1110 z "},"Æ":{"ha":1388,"x_min":8,"x_max":1313,"o":"m 772 914 l 807 540 l 1285 540 l 1285 464 l 814 464 l 850 75 l 1313 75 l 1313 0 l 781 0 l 756 264 l 258 264 l 101 0 l 8 0 l 604 989 l 1313 989 l 1313 914 l 772 914 m 696 914 l 643 914 l 303 339 l 749 339 l 696 914 z "},"Ǽ":{"ha":1388,"x_min":8,"x_max":1313,"o":"m 772 914 l 807 540 l 1285 540 l 1285 464 l 814 464 l 850 75 l 1313 75 l 1313 0 l 781 0 l 756 264 l 258 264 l 101 0 l 8 0 l 604 989 l 1313 989 l 1313 914 l 772 914 m 696 914 l 643 914 l 303 339 l 749 339 l 696 914 m 664 1074 l 804 1283 l 908 1283 l 729 1074 l 664 1074 z "},"B":{"ha":939,"x_min":128,"x_max":849,"o":"m 669 507 q 801 423 754 485 q 849 268 849 361 q 764 69 849 139 q 524 0 679 0 l 128 0 l 128 989 l 510 989 q 743 922 661 989 q 825 729 825 854 q 784 592 825 649 q 669 507 743 535 m 213 540 l 497 540 q 678 589 617 540 q 739 731 739 638 q 497 915 739 915 l 213 915 l 213 540 m 518 74 q 702 121 643 74 q 761 265 761 168 q 518 464 761 464 l 213 464 l 213 74 l 518 74 z "},"C":{"ha":950,"x_min":90,"x_max":875,"o":"m 539 -11 q 300 49 401 -11 q 144 224 199 110 q 90 496 90 339 q 144 765 90 651 q 300 940 199 879 q 539 1000 401 1000 q 727 967 642 1000 q 875 871 813 935 l 839 803 q 697 895 768 867 q 539 924 626 924 q 274 812 368 924 q 179 496 179 700 q 273 178 179 290 q 539 65 367 65 q 697 94 626 65 q 839 186 768 122 l 875 118 q 727 22 813 54 q 539 -11 642 -11 z "},"Ć":{"ha":950,"x_min":90,"x_max":875,"o":"m 539 -11 q 300 49 401 -11 q 144 224 199 110 q 90 496 90 339 q 144 765 90 651 q 300 940 199 879 q 539 1000 401 1000 q 727 967 642 1000 q 875 871 813 935 l 839 803 q 697 895 768 867 q 539 924 626 924 q 274 812 368 924 q 179 496 179 700 q 273 178 179 290 q 539 65 367 65 q 697 94 626 65 q 839 186 768 122 l 875 118 q 727 22 813 54 q 539 -11 642 -11 m 506 1074 l 646 1283 l 750 1283 l 571 1074 l 506 1074 z "},"Č":{"ha":950,"x_min":90,"x_max":875,"o":"m 539 -11 q 300 49 401 -11 q 144 224 199 110 q 90 496 90 339 q 144 765 90 651 q 300 940 199 879 q 539 1000 401 1000 q 727 967 642 1000 q 875 871 813 935 l 839 803 q 697 895 768 867 q 539 924 626 924 q 274 812 368 924 q 179 496 179 700 q 273 178 179 290 q 539 65 367 65 q 697 94 626 65 q 839 186 768 122 l 875 118 q 727 22 813 54 q 539 -11 642 -11 m 732 1283 l 571 1074 l 506 1074 l 344 1283 l 432 1283 l 539 1132 l 644 1283 l 732 1283 z "},"Ç":{"ha":950,"x_min":90,"x_max":875,"o":"m 539 65 q 697 94 626 65 q 839 186 768 122 l 875 118 q 736 24 817 57 q 558 -11 656 -8 l 553 -61 q 590 -57 572 -57 q 663 -82 632 -57 q 694 -154 694 -107 q 653 -236 694 -204 q 539 -268 611 -268 q 475 -262 508 -268 q 418 -242 442 -256 l 438 -187 q 542 -207 483 -207 q 602 -193 582 -207 q 622 -154 622 -179 q 610 -124 622 -135 q 572 -114 597 -114 q 504 -128 546 -114 l 478 -107 l 488 -8 q 196 141 301 8 q 90 496 90 274 q 144 765 90 651 q 300 940 199 879 q 539 1000 401 1000 q 727 967 642 1000 q 875 871 813 935 l 839 803 q 697 895 768 867 q 539 924 626 924 q 274 812 368 924 q 179 496 179 700 q 273 178 179 290 q 539 65 367 65 z "},"Ḉ":{"ha":950,"x_min":90,"x_max":875,"o":"m 571 1074 l 506 1074 l 646 1283 l 750 1283 l 571 1074 m 539 65 q 697 94 626 65 q 839 186 768 122 l 875 118 q 736 24 817 57 q 558 -11 656 -8 l 553 -61 q 590 -57 572 -57 q 663 -82 632 -57 q 694 -154 694 -107 q 653 -236 694 -204 q 539 -268 611 -268 q 475 -262 508 -268 q 418 -242 442 -256 l 438 -187 q 542 -207 483 -207 q 602 -193 582 -207 q 622 -154 622 -179 q 610 -124 622 -135 q 572 -114 597 -114 q 504 -128 546 -114 l 478 -107 l 488 -8 q 196 141 301 8 q 90 496 90 274 q 144 765 90 651 q 300 940 199 879 q 539 1000 401 1000 q 727 967 642 1000 q 875 871 813 935 l 839 803 q 697 895 768 867 q 539 924 626 924 q 274 812 368 924 q 179 496 179 700 q 273 178 179 290 q 539 65 367 65 z "},"Ĉ":{"ha":950,"x_min":90,"x_max":875,"o":"m 539 -11 q 300 49 401 -11 q 144 224 199 110 q 90 496 90 339 q 144 765 90 651 q 300 940 199 879 q 539 1000 401 1000 q 727 967 642 1000 q 875 871 813 935 l 839 803 q 697 895 768 867 q 539 924 626 924 q 274 812 368 924 q 179 496 179 700 q 273 178 179 290 q 539 65 367 65 q 697 94 626 65 q 839 186 768 122 l 875 118 q 727 22 813 54 q 539 -11 642 -11 m 344 1074 l 506 1283 l 571 1283 l 732 1074 l 644 1074 l 539 1225 l 432 1074 l 344 1074 z "},"Ċ":{"ha":950,"x_min":90,"x_max":875,"o":"m 539 -11 q 300 49 401 -11 q 144 224 199 110 q 90 496 90 339 q 144 765 90 651 q 300 940 199 879 q 539 1000 401 1000 q 727 967 642 1000 q 875 871 813 935 l 839 803 q 697 895 768 867 q 539 924 626 924 q 274 812 368 924 q 179 496 179 700 q 273 178 179 290 q 539 65 367 65 q 697 94 626 65 q 839 186 768 122 l 875 118 q 727 22 813 54 q 539 -11 642 -11 m 594 1235 l 594 1126 l 482 1126 l 482 1235 l 594 1235 z "},"D":{"ha":1026,"x_min":128,"x_max":938,"o":"m 128 989 l 446 989 q 810 861 682 989 q 938 496 938 733 q 809 129 938 258 q 446 0 681 0 l 128 0 l 128 989 m 442 75 q 744 181 643 75 q 846 496 846 288 q 442 914 846 914 l 214 914 l 214 75 l 442 75 z "},"Ǆ":{"ha":1825,"x_min":128,"x_max":1772,"o":"m 128 989 l 446 989 q 810 861 682 989 q 938 496 938 733 q 809 129 938 258 q 446 0 681 0 l 128 0 l 128 989 m 442 75 q 744 181 643 75 q 846 496 846 288 q 442 914 846 914 l 214 914 l 214 75 l 442 75 m 1772 74 l 1772 0 l 1067 0 l 1067 63 l 1658 915 l 1067 915 l 1067 989 l 1758 989 l 1758 926 l 1167 74 l 1772 74 m 1607 1283 l 1446 1074 l 1381 1074 l 1219 1283 l 1307 1283 l 1414 1132 l 1519 1283 l 1607 1283 z "},"Ð":{"ha":1039,"x_min":8,"x_max":949,"o":"m 458 989 q 821 861 693 989 q 949 496 949 733 q 820 129 949 258 q 458 0 692 0 l 140 0 l 140 465 l 8 465 l 8 538 l 140 538 l 140 989 l 458 989 m 454 75 q 757 181 656 75 q 858 496 858 288 q 454 914 858 914 l 226 914 l 226 538 l 499 538 l 499 465 l 226 465 l 226 75 l 454 75 z "},"Ď":{"ha":1026,"x_min":128,"x_max":938,"o":"m 128 989 l 446 989 q 810 861 682 989 q 938 496 938 733 q 809 129 938 258 q 446 0 681 0 l 128 0 l 128 989 m 442 75 q 744 181 643 75 q 846 496 846 288 q 442 914 846 914 l 214 914 l 214 75 l 442 75 m 706 1283 l 544 1074 l 479 1074 l 318 1283 l 406 1283 l 513 1132 l 618 1283 l 706 1283 z "},"Đ":{"ha":1039,"x_min":8,"x_max":949,"o":"m 458 989 q 821 861 693 989 q 949 496 949 733 q 820 129 949 258 q 458 0 692 0 l 140 0 l 140 465 l 8 465 l 8 538 l 140 538 l 140 989 l 458 989 m 454 75 q 757 181 656 75 q 858 496 858 288 q 454 914 858 914 l 226 914 l 226 538 l 499 538 l 499 465 l 226 465 l 226 75 l 454 75 z "},"Ḍ":{"ha":1026,"x_min":128,"x_max":938,"o":"m 128 989 l 446 989 q 810 861 682 989 q 938 496 938 733 q 809 129 938 258 q 446 0 681 0 l 128 0 l 128 989 m 442 75 q 744 181 643 75 q 846 496 846 288 q 442 914 846 914 l 214 914 l 214 75 l 442 75 m 568 -142 l 568 -250 l 458 -250 l 458 -142 l 568 -142 z "},"Ḏ":{"ha":1026,"x_min":128,"x_max":938,"o":"m 128 989 l 446 989 q 810 861 682 989 q 938 496 938 733 q 809 129 938 258 q 446 0 681 0 l 128 0 l 128 989 m 442 75 q 744 181 643 75 q 846 496 846 288 q 442 914 846 914 l 214 914 l 214 75 l 442 75 m 306 -160 l 721 -160 l 721 -232 l 306 -232 l 306 -160 z "},"ǅ":{"ha":1742,"x_min":128,"x_max":1678,"o":"m 128 989 l 446 989 q 810 861 682 989 q 938 496 938 733 q 809 129 938 258 q 446 0 681 0 l 128 0 l 128 989 m 442 75 q 744 181 643 75 q 846 496 846 288 q 442 914 846 914 l 214 914 l 214 75 l 442 75 m 1678 69 l 1678 0 l 1097 0 l 1097 58 l 1560 628 l 1114 628 l 1114 696 l 1663 696 l 1663 632 l 1206 69 l 1678 69 m 1582 1069 l 1422 788 l 1354 788 l 1194 1069 l 1282 1069 l 1389 857 l 1494 1069 l 1582 1069 z "},"E":{"ha":813,"x_min":128,"x_max":738,"o":"m 128 989 l 738 989 l 738 915 l 213 915 l 213 540 l 710 540 l 710 464 l 213 464 l 213 74 l 738 74 l 738 0 l 128 0 l 128 989 z "},"É":{"ha":813,"x_min":128,"x_max":738,"o":"m 128 989 l 738 989 l 738 915 l 213 915 l 213 540 l 710 540 l 710 464 l 213 464 l 213 74 l 738 74 l 738 0 l 128 0 l 128 989 m 418 1074 l 558 1283 l 663 1283 l 483 1074 l 418 1074 z "},"Ĕ":{"ha":813,"x_min":128,"x_max":738,"o":"m 128 989 l 738 989 l 738 915 l 213 915 l 213 540 l 710 540 l 710 464 l 213 464 l 213 74 l 738 74 l 738 0 l 128 0 l 128 989 m 451 1092 q 318 1126 376 1092 q 229 1239 260 1161 l 292 1267 q 363 1183 326 1206 q 451 1160 400 1160 q 538 1183 501 1160 q 610 1267 575 1206 l 672 1239 q 451 1092 614 1092 z "},"Ě":{"ha":813,"x_min":128,"x_max":738,"o":"m 128 989 l 738 989 l 738 915 l 213 915 l 213 540 l 710 540 l 710 464 l 213 464 l 213 74 l 738 74 l 738 0 l 128 0 l 128 989 m 644 1283 l 483 1074 l 418 1074 l 257 1283 l 344 1283 l 451 1132 l 557 1283 l 644 1283 z "},"Ȩ":{"ha":813,"x_min":128,"x_max":738,"o":"m 213 915 l 213 540 l 710 540 l 710 464 l 213 464 l 213 74 l 738 74 l 738 0 l 474 0 l 467 -61 q 504 -57 486 -57 q 577 -82 546 -57 q 608 -154 608 -107 q 567 -236 608 -204 q 453 -268 525 -268 q 389 -262 422 -268 q 332 -242 356 -256 l 351 -187 q 456 -207 397 -207 q 516 -193 496 -207 q 536 -154 536 -179 q 524 -124 536 -135 q 486 -114 511 -114 q 418 -128 460 -114 l 392 -107 l 403 0 l 128 0 l 128 989 l 738 989 l 738 915 l 213 915 z "},"Ḝ":{"ha":813,"x_min":128,"x_max":738,"o":"m 451 1092 q 318 1126 376 1092 q 229 1239 260 1161 l 292 1267 q 363 1183 326 1206 q 451 1160 400 1160 q 538 1183 501 1160 q 610 1267 575 1206 l 672 1239 q 451 1092 614 1092 m 213 915 l 213 540 l 710 540 l 710 464 l 213 464 l 213 74 l 738 74 l 738 0 l 474 0 l 467 -61 q 504 -57 486 -57 q 577 -82 546 -57 q 608 -154 608 -107 q 567 -236 608 -204 q 453 -268 525 -268 q 389 -262 422 -268 q 332 -242 356 -256 l 351 -187 q 456 -207 397 -207 q 516 -193 496 -207 q 536 -154 536 -179 q 524 -124 536 -135 q 486 -114 511 -114 q 418 -128 460 -114 l 392 -107 l 403 0 l 128 0 l 128 989 l 738 989 l 738 915 l 213 915 z "},"Ê":{"ha":813,"x_min":128,"x_max":738,"o":"m 128 989 l 738 989 l 738 915 l 213 915 l 213 540 l 710 540 l 710 464 l 213 464 l 213 74 l 738 74 l 738 0 l 128 0 l 128 989 m 257 1074 l 418 1283 l 483 1283 l 644 1074 l 557 1074 l 451 1225 l 344 1074 l 257 1074 z "},"Ế":{"ha":813,"x_min":128,"x_max":804,"o":"m 128 989 l 738 989 l 738 915 l 213 915 l 213 540 l 710 540 l 710 464 l 213 464 l 213 74 l 738 74 l 738 0 l 128 0 l 128 989 m 565 1215 l 701 1414 l 804 1414 l 625 1215 l 565 1215 m 257 1074 l 418 1282 l 483 1282 l 644 1074 l 557 1074 l 451 1224 l 344 1074 l 257 1074 z "},"Ệ":{"ha":813,"x_min":128,"x_max":738,"o":"m 128 989 l 738 989 l 738 915 l 213 915 l 213 540 l 710 540 l 710 464 l 213 464 l 213 74 l 738 74 l 738 0 l 128 0 l 128 989 m 506 -142 l 506 -250 l 396 -250 l 396 -142 l 506 -142 m 257 1074 l 418 1283 l 483 1283 l 644 1074 l 557 1074 l 451 1225 l 344 1074 l 257 1074 z "},"Ề":{"ha":813,"x_min":128,"x_max":738,"o":"m 128 989 l 738 989 l 738 915 l 213 915 l 213 540 l 710 540 l 710 464 l 213 464 l 213 74 l 738 74 l 738 0 l 128 0 l 128 989 m 474 1414 l 575 1414 l 685 1215 l 626 1215 l 474 1414 m 257 1074 l 418 1282 l 483 1282 l 644 1074 l 557 1074 l 451 1224 l 344 1074 l 257 1074 z "},"Ể":{"ha":813,"x_min":128,"x_max":739,"o":"m 128 989 l 738 989 l 738 915 l 213 915 l 213 540 l 710 540 l 710 464 l 213 464 l 213 74 l 738 74 l 738 0 l 128 0 l 128 989 m 631 1215 l 564 1215 l 564 1239 q 579 1276 564 1263 q 622 1300 594 1289 q 651 1315 642 1308 q 660 1331 660 1321 q 644 1351 660 1344 q 600 1358 628 1358 q 513 1343 558 1358 l 493 1397 q 603 1421 547 1421 q 702 1397 665 1421 q 739 1332 739 1372 q 723 1294 739 1307 q 676 1268 707 1281 q 642 1250 654 1258 q 631 1228 631 1242 l 631 1215 m 257 1074 l 418 1282 l 483 1282 l 644 1074 l 557 1074 l 451 1224 l 344 1074 l 257 1074 z "},"Ễ":{"ha":813,"x_min":128,"x_max":738,"o":"m 128 989 l 738 989 l 738 915 l 213 915 l 213 540 l 710 540 l 710 464 l 213 464 l 213 74 l 738 74 l 738 0 l 128 0 l 128 989 m 231 1301 q 263 1400 231 1363 q 349 1438 294 1438 q 403 1428 376 1438 q 468 1401 429 1419 q 515 1381 496 1388 q 550 1374 533 1374 q 599 1395 581 1374 q 617 1442 617 1417 l 671 1442 q 639 1344 671 1382 q 553 1306 607 1306 q 497 1315 524 1306 q 433 1343 469 1325 q 410 1354 428 1346 q 377 1367 392 1363 q 351 1371 363 1371 q 303 1349 321 1371 q 285 1301 285 1328 l 231 1301 m 257 1074 l 418 1282 l 483 1282 l 644 1074 l 557 1074 l 451 1224 l 344 1074 l 257 1074 z "},"Ȅ":{"ha":813,"x_min":128,"x_max":738,"o":"m 128 989 l 738 989 l 738 915 l 213 915 l 213 540 l 710 540 l 710 464 l 213 464 l 213 74 l 738 74 l 738 0 l 128 0 l 128 989 m 210 1283 l 296 1283 l 396 1074 l 346 1074 l 210 1283 m 369 1283 l 457 1283 l 556 1074 l 506 1074 l 369 1283 z "},"Ë":{"ha":813,"x_min":128,"x_max":738,"o":"m 128 989 l 738 989 l 738 915 l 213 915 l 213 540 l 710 540 l 710 464 l 213 464 l 213 74 l 738 74 l 738 0 l 128 0 l 128 989 m 386 1231 l 386 1129 l 282 1129 l 282 1231 l 386 1231 m 619 1231 l 619 1129 l 515 1129 l 515 1231 l 619 1231 z "},"Ė":{"ha":813,"x_min":128,"x_max":738,"o":"m 128 989 l 738 989 l 738 915 l 213 915 l 213 540 l 710 540 l 710 464 l 213 464 l 213 74 l 738 74 l 738 0 l 128 0 l 128 989 m 507 1235 l 507 1126 l 394 1126 l 394 1235 l 507 1235 z "},"Ẹ":{"ha":813,"x_min":128,"x_max":738,"o":"m 128 989 l 738 989 l 738 915 l 213 915 l 213 540 l 710 540 l 710 464 l 213 464 l 213 74 l 738 74 l 738 0 l 128 0 l 128 989 m 506 -142 l 506 -250 l 396 -250 l 396 -142 l 506 -142 z "},"È":{"ha":813,"x_min":128,"x_max":738,"o":"m 128 989 l 738 989 l 738 915 l 213 915 l 213 540 l 710 540 l 710 464 l 213 464 l 213 74 l 738 74 l 738 0 l 128 0 l 128 989 m 239 1283 l 343 1283 l 483 1074 l 418 1074 l 239 1283 z "},"Ẻ":{"ha":813,"x_min":128,"x_max":738,"o":"m 128 989 l 738 989 l 738 915 l 213 915 l 213 540 l 710 540 l 710 464 l 213 464 l 213 74 l 738 74 l 738 0 l 128 0 l 128 989 m 485 1074 l 418 1074 l 418 1096 q 434 1135 418 1119 q 476 1164 450 1150 q 505 1183 496 1175 q 514 1200 514 1190 q 498 1221 514 1214 q 453 1228 482 1228 q 367 1211 411 1228 l 347 1267 q 457 1290 401 1290 q 556 1266 519 1290 q 592 1201 592 1242 q 575 1158 592 1174 q 528 1128 558 1143 q 494 1106 504 1114 q 485 1086 485 1099 l 485 1074 z "},"Ȇ":{"ha":813,"x_min":128,"x_max":738,"o":"m 128 989 l 738 989 l 738 915 l 213 915 l 213 540 l 710 540 l 710 464 l 213 464 l 213 74 l 738 74 l 738 0 l 128 0 l 128 989 m 451 1268 q 583 1233 525 1268 q 672 1119 642 1197 l 610 1093 q 538 1177 575 1154 q 451 1200 501 1200 q 363 1177 400 1200 q 292 1093 326 1154 l 229 1119 q 319 1233 261 1199 q 451 1268 376 1268 z "},"Ē":{"ha":813,"x_min":128,"x_max":738,"o":"m 128 989 l 738 989 l 738 915 l 213 915 l 213 540 l 710 540 l 710 464 l 213 464 l 213 74 l 738 74 l 738 0 l 128 0 l 128 989 m 243 1217 l 658 1217 l 658 1144 l 243 1144 l 243 1217 z "},"Ḗ":{"ha":813,"x_min":128,"x_max":738,"o":"m 128 989 l 738 989 l 738 915 l 213 915 l 213 540 l 710 540 l 710 464 l 213 464 l 213 74 l 738 74 l 738 0 l 128 0 l 128 989 m 243 1217 l 658 1217 l 658 1144 l 243 1144 l 243 1217 m 418 1299 l 558 1508 l 663 1508 l 483 1299 l 418 1299 z "},"Ḕ":{"ha":813,"x_min":128,"x_max":738,"o":"m 128 989 l 738 989 l 738 915 l 213 915 l 213 540 l 710 540 l 710 464 l 213 464 l 213 74 l 738 74 l 738 0 l 128 0 l 128 989 m 243 1217 l 658 1217 l 658 1144 l 243 1144 l 243 1217 m 239 1508 l 343 1508 l 483 1299 l 418 1299 l 239 1508 z "},"Ę":{"ha":813,"x_min":128,"x_max":785,"o":"m 785 -237 q 669 -268 735 -268 q 554 -227 599 -268 q 510 -124 510 -186 q 567 0 510 -49 l 128 0 l 128 989 l 738 989 l 738 915 l 213 915 l 213 540 l 710 540 l 710 464 l 213 464 l 213 74 l 738 74 l 738 0 l 719 0 q 619 -31 653 0 q 585 -114 585 -62 q 610 -181 585 -157 q 679 -204 636 -204 q 761 -179 718 -204 l 785 -237 z "},"Ẽ":{"ha":813,"x_min":128,"x_max":738,"o":"m 128 989 l 738 989 l 738 915 l 213 915 l 213 540 l 710 540 l 710 464 l 213 464 l 213 74 l 738 74 l 738 0 l 128 0 l 128 989 m 231 1110 q 262 1217 231 1178 q 349 1257 293 1257 q 404 1245 378 1257 q 468 1210 431 1233 q 515 1183 497 1192 q 550 1174 533 1174 q 599 1197 582 1174 q 617 1253 617 1221 l 671 1253 q 640 1144 671 1183 q 553 1106 608 1106 q 497 1117 524 1106 q 433 1151 469 1129 q 385 1178 401 1171 q 351 1186 368 1186 q 302 1164 319 1186 q 285 1110 285 1142 l 231 1110 z "},"F":{"ha":775,"x_min":128,"x_max":724,"o":"m 128 989 l 724 989 l 724 915 l 214 915 l 214 540 l 696 540 l 696 464 l 214 464 l 214 0 l 128 0 l 128 989 z "},"G":{"ha":1008,"x_min":90,"x_max":892,"o":"m 892 507 l 892 56 q 743 8 838 26 q 553 -11 649 -11 q 304 49 408 -11 q 145 224 200 110 q 90 496 90 338 q 145 767 90 653 q 303 940 200 881 q 546 1000 406 1000 q 882 871 756 1000 l 846 803 q 703 895 775 867 q 544 924 632 924 q 274 813 369 924 q 179 496 179 701 q 276 175 179 286 q 554 64 372 64 q 814 110 694 64 l 814 433 l 553 433 l 553 507 l 892 507 z "},"Ğ":{"ha":1008,"x_min":90,"x_max":892,"o":"m 892 507 l 892 56 q 743 8 838 26 q 553 -11 649 -11 q 304 49 408 -11 q 145 224 200 110 q 90 496 90 338 q 145 767 90 653 q 303 940 200 881 q 546 1000 406 1000 q 882 871 756 1000 l 846 803 q 703 895 775 867 q 544 924 632 924 q 274 813 369 924 q 179 496 179 701 q 276 175 179 286 q 554 64 372 64 q 814 110 694 64 l 814 433 l 553 433 l 553 507 l 892 507 m 543 1092 q 410 1126 468 1092 q 321 1239 351 1161 l 383 1267 q 455 1183 418 1206 q 543 1160 492 1160 q 630 1183 593 1160 q 701 1267 667 1206 l 764 1239 q 543 1092 706 1092 z "},"Ǧ":{"ha":1008,"x_min":90,"x_max":892,"o":"m 892 507 l 892 56 q 743 8 838 26 q 553 -11 649 -11 q 304 49 408 -11 q 145 224 200 110 q 90 496 90 338 q 145 767 90 653 q 303 940 200 881 q 546 1000 406 1000 q 882 871 756 1000 l 846 803 q 703 895 775 867 q 544 924 632 924 q 274 813 369 924 q 179 496 179 701 q 276 175 179 286 q 554 64 372 64 q 814 110 694 64 l 814 433 l 553 433 l 553 507 l 892 507 m 736 1283 l 575 1074 l 510 1074 l 349 1283 l 436 1283 l 543 1132 l 649 1283 l 736 1283 z "},"Ĝ":{"ha":1008,"x_min":90,"x_max":892,"o":"m 892 507 l 892 56 q 743 8 838 26 q 553 -11 649 -11 q 304 49 408 -11 q 145 224 200 110 q 90 496 90 338 q 145 767 90 653 q 303 940 200 881 q 546 1000 406 1000 q 882 871 756 1000 l 846 803 q 703 895 775 867 q 544 924 632 924 q 274 813 369 924 q 179 496 179 701 q 276 175 179 286 q 554 64 372 64 q 814 110 694 64 l 814 433 l 553 433 l 553 507 l 892 507 m 349 1074 l 510 1283 l 575 1283 l 736 1074 l 649 1074 l 543 1225 l 436 1074 l 349 1074 z "},"Ģ":{"ha":1008,"x_min":90,"x_max":892,"o":"m 892 507 l 892 56 q 743 8 838 26 q 553 -11 649 -11 q 304 49 408 -11 q 145 224 200 110 q 90 496 90 338 q 145 767 90 653 q 303 940 200 881 q 546 1000 406 1000 q 882 871 756 1000 l 846 803 q 703 895 775 867 q 544 924 632 924 q 274 813 369 924 q 179 496 179 701 q 276 175 179 286 q 554 64 372 64 q 814 110 694 64 l 814 433 l 553 433 l 553 507 l 892 507 m 611 -104 l 611 -182 q 596 -277 611 -235 q 543 -358 581 -319 l 499 -324 q 537 -267 526 -294 q 549 -207 547 -240 l 493 -207 l 493 -104 l 611 -104 z "},"Ġ":{"ha":1008,"x_min":90,"x_max":892,"o":"m 892 507 l 892 56 q 743 8 838 26 q 553 -11 649 -11 q 304 49 408 -11 q 145 224 200 110 q 90 496 90 338 q 145 767 90 653 q 303 940 200 881 q 546 1000 406 1000 q 882 871 756 1000 l 846 803 q 703 895 775 867 q 544 924 632 924 q 274 813 369 924 q 179 496 179 701 q 276 175 179 286 q 554 64 372 64 q 814 110 694 64 l 814 433 l 553 433 l 553 507 l 892 507 m 599 1235 l 599 1126 l 486 1126 l 486 1235 l 599 1235 z "},"Ḡ":{"ha":1008,"x_min":90,"x_max":892,"o":"m 892 507 l 892 56 q 743 8 838 26 q 553 -11 649 -11 q 304 49 408 -11 q 145 224 200 110 q 90 496 90 338 q 145 767 90 653 q 303 940 200 881 q 546 1000 406 1000 q 882 871 756 1000 l 846 803 q 703 895 775 867 q 544 924 632 924 q 274 813 369 924 q 179 496 179 701 q 276 175 179 286 q 554 64 372 64 q 814 110 694 64 l 814 433 l 553 433 l 553 507 l 892 507 m 335 1217 l 750 1217 l 750 1144 l 335 1144 l 335 1217 z "},"H":{"ha":1058,"x_min":128,"x_max":931,"o":"m 931 989 l 931 0 l 844 0 l 844 464 l 214 464 l 214 0 l 128 0 l 128 989 l 214 989 l 214 540 l 844 540 l 844 989 l 931 989 z "},"Ħ":{"ha":1083,"x_min":8,"x_max":1075,"o":"m 1075 735 l 943 735 l 943 0 l 856 0 l 856 464 l 226 464 l 226 0 l 140 0 l 140 735 l 8 735 l 8 807 l 140 807 l 140 989 l 226 989 l 226 807 l 856 807 l 856 989 l 943 989 l 943 807 l 1075 807 l 1075 735 m 856 735 l 226 735 l 226 540 l 856 540 l 856 735 z "},"Ḫ":{"ha":1058,"x_min":128,"x_max":931,"o":"m 931 989 l 931 0 l 844 0 l 844 464 l 214 464 l 214 0 l 128 0 l 128 989 l 214 989 l 214 540 l 844 540 l 844 989 l 931 989 m 531 -290 q 397 -249 456 -290 q 307 -121 338 -208 l 371 -93 q 441 -191 401 -161 q 531 -221 481 -221 q 619 -191 579 -221 q 689 -93 658 -161 l 753 -119 q 664 -249 724 -208 q 531 -290 604 -290 z "},"Ĥ":{"ha":1058,"x_min":128,"x_max":931,"o":"m 931 989 l 931 0 l 844 0 l 844 464 l 214 464 l 214 0 l 128 0 l 128 989 l 214 989 l 214 540 l 844 540 l 844 989 l 931 989 m 335 1074 l 496 1283 l 561 1283 l 722 1074 l 635 1074 l 529 1225 l 422 1074 l 335 1074 z "},"Ḥ":{"ha":1058,"x_min":128,"x_max":931,"o":"m 931 989 l 931 0 l 844 0 l 844 464 l 214 464 l 214 0 l 128 0 l 128 989 l 214 989 l 214 540 l 844 540 l 844 989 l 931 989 m 585 -142 l 585 -250 l 475 -250 l 475 -142 l 585 -142 z "},"I":{"ha":342,"x_min":128,"x_max":214,"o":"m 128 989 l 214 989 l 214 0 l 128 0 l 128 989 z "},"Í":{"ha":342,"x_min":128,"x_max":382,"o":"m 128 989 l 214 989 l 214 0 l 128 0 l 128 989 m 138 1074 l 278 1283 l 382 1283 l 203 1074 l 138 1074 z "},"Ĭ":{"ha":342,"x_min":-51,"x_max":392,"o":"m 128 989 l 214 989 l 214 0 l 128 0 l 128 989 m 171 1092 q 38 1126 96 1092 q -51 1239 -21 1161 l 11 1267 q 83 1183 46 1206 q 171 1160 119 1160 q 258 1183 221 1160 q 329 1267 294 1206 l 392 1239 q 171 1092 333 1092 z "},"Î":{"ha":342,"x_min":-24,"x_max":364,"o":"m 128 989 l 214 989 l 214 0 l 128 0 l 128 989 m -24 1074 l 138 1283 l 203 1283 l 364 1074 l 276 1074 l 171 1225 l 64 1074 l -24 1074 z "},"Ȉ":{"ha":342,"x_min":-71,"x_max":275,"o":"m 128 989 l 214 989 l 214 0 l 128 0 l 128 989 m -71 1283 l 15 1283 l 115 1074 l 65 1074 l -71 1283 m 89 1283 l 176 1283 l 275 1074 l 225 1074 l 89 1283 z "},"Ï":{"ha":342,"x_min":1,"x_max":339,"o":"m 128 989 l 214 989 l 214 0 l 128 0 l 128 989 m 106 1231 l 106 1129 l 1 1129 l 1 1231 l 106 1231 m 339 1231 l 339 1129 l 235 1129 l 235 1231 l 339 1231 z "},"Ḯ":{"ha":342,"x_min":1,"x_max":382,"o":"m 128 989 l 214 989 l 214 0 l 128 0 l 128 989 m 106 1231 l 106 1129 l 1 1129 l 1 1231 l 106 1231 m 339 1231 l 339 1129 l 235 1129 l 235 1231 l 339 1231 m 138 1299 l 278 1508 l 382 1508 l 203 1299 l 138 1299 z "},"İ":{"ha":342,"x_min":114,"x_max":226,"o":"m 128 989 l 214 989 l 214 0 l 128 0 l 128 989 m 226 1235 l 226 1126 l 114 1126 l 114 1235 l 226 1235 z "},"Ị":{"ha":342,"x_min":115,"x_max":225,"o":"m 128 989 l 214 989 l 214 0 l 128 0 l 128 989 m 225 -142 l 225 -250 l 115 -250 l 115 -142 l 225 -142 z "},"Ì":{"ha":342,"x_min":-42,"x_max":214,"o":"m 128 989 l 214 989 l 214 0 l 128 0 l 128 989 m -42 1283 l 63 1283 l 203 1074 l 138 1074 l -42 1283 z "},"Ỉ":{"ha":342,"x_min":67,"x_max":311,"o":"m 128 989 l 214 989 l 214 0 l 128 0 l 128 989 m 204 1074 l 138 1074 l 138 1096 q 153 1135 138 1119 q 196 1164 169 1150 q 224 1183 215 1175 q 233 1200 233 1190 q 217 1221 233 1214 q 172 1228 201 1228 q 86 1211 131 1228 l 67 1267 q 176 1290 121 1290 q 275 1266 239 1290 q 311 1201 311 1242 q 294 1158 311 1174 q 247 1128 278 1143 q 214 1106 224 1114 q 204 1086 204 1099 l 204 1074 z "},"Ȋ":{"ha":342,"x_min":-51,"x_max":392,"o":"m 128 989 l 214 989 l 214 0 l 128 0 l 128 989 m 171 1268 q 303 1233 244 1268 q 392 1119 361 1197 l 329 1093 q 258 1177 294 1154 q 171 1200 221 1200 q 83 1177 119 1200 q 11 1093 46 1154 l -51 1119 q 38 1233 -19 1199 q 171 1268 96 1268 z "},"Ī":{"ha":342,"x_min":-37,"x_max":378,"o":"m 128 989 l 214 989 l 214 0 l 128 0 l 128 989 m -37 1217 l 378 1217 l 378 1144 l -37 1144 l -37 1217 z "},"Į":{"ha":342,"x_min":4,"x_max":279,"o":"m 279 -237 q 164 -268 232 -268 q 49 -227 93 -268 q 4 -124 4 -186 q 36 -26 4 -69 q 128 38 68 17 l 128 989 l 214 989 l 214 0 l 207 0 q 115 -33 149 0 q 81 -114 81 -65 q 106 -181 81 -157 q 174 -204 131 -204 q 257 -179 214 -204 l 279 -237 z "},"Ĩ":{"ha":342,"x_min":-50,"x_max":390,"o":"m 128 989 l 214 989 l 214 0 l 128 0 l 128 989 m -50 1110 q -19 1217 -50 1178 q 68 1257 13 1257 q 124 1245 97 1257 q 188 1210 150 1233 q 235 1183 217 1192 q 269 1174 253 1174 q 319 1197 301 1174 q 336 1253 336 1221 l 390 1253 q 359 1144 390 1183 q 272 1106 328 1106 q 216 1117 243 1106 q 153 1151 189 1129 q 104 1178 121 1171 q 71 1186 88 1186 q 22 1164 39 1186 q 4 1110 4 1142 l -50 1110 z "},"J":{"ha":436,"x_min":-10,"x_max":308,"o":"m -10 -171 q 89 -182 53 -182 q 192 -140 163 -182 q 222 4 222 -99 l 222 989 l 308 989 l 308 1 q 260 -197 308 -136 q 103 -258 213 -258 q -10 -247 57 -258 l -10 -171 z "},"Ĵ":{"ha":436,"x_min":-10,"x_max":458,"o":"m -10 -171 q 89 -182 53 -182 q 192 -140 163 -182 q 222 4 222 -99 l 222 989 l 308 989 l 308 1 q 260 -197 308 -136 q 103 -258 213 -258 q -10 -247 57 -258 l -10 -171 m 71 1074 l 232 1283 l 297 1283 l 458 1074 l 371 1074 l 265 1225 l 158 1074 l 71 1074 z "},"K":{"ha":860,"x_min":128,"x_max":863,"o":"m 746 0 l 214 474 l 214 0 l 128 0 l 128 989 l 214 989 l 214 531 l 719 989 l 833 989 l 300 506 l 863 0 l 746 0 z "},"Ķ":{"ha":860,"x_min":128,"x_max":863,"o":"m 746 0 l 214 474 l 214 0 l 128 0 l 128 989 l 214 989 l 214 531 l 719 989 l 833 989 l 300 506 l 863 0 l 746 0 m 492 -104 l 492 -182 q 476 -277 492 -235 q 424 -358 461 -319 l 379 -324 q 417 -267 407 -294 q 429 -207 428 -240 l 374 -207 l 374 -104 l 492 -104 z "},"L":{"ha":747,"x_min":128,"x_max":725,"o":"m 128 989 l 214 989 l 214 75 l 725 75 l 725 0 l 128 0 l 128 989 z "},"Ǉ":{"ha":1067,"x_min":128,"x_max":939,"o":"m 128 989 l 214 989 l 214 75 l 683 75 l 683 0 l 128 0 l 128 989 m 621 -171 q 719 -182 683 -182 q 823 -140 793 -182 q 853 4 853 -99 l 853 989 l 939 989 l 939 1 q 891 -197 939 -136 q 733 -258 843 -258 q 621 -247 688 -258 l 621 -171 z "},"Ĺ":{"ha":747,"x_min":128,"x_max":725,"o":"m 128 989 l 214 989 l 214 75 l 725 75 l 725 0 l 128 0 l 128 989 m 138 1074 l 278 1283 l 382 1283 l 203 1074 l 138 1074 z "},"Ľ":{"ha":747,"x_min":128,"x_max":725,"o":"m 128 989 l 214 989 l 214 75 l 725 75 l 725 0 l 128 0 l 128 989 m 332 724 l 332 989 l 418 989 l 382 724 l 332 724 z "},"Ļ":{"ha":747,"x_min":128,"x_max":725,"o":"m 128 989 l 214 989 l 214 75 l 725 75 l 725 0 l 128 0 l 128 989 m 489 -104 l 489 -182 q 474 -277 489 -235 q 421 -358 458 -319 l 376 -324 q 415 -267 404 -294 q 426 -207 425 -240 l 371 -207 l 371 -104 l 489 -104 z "},"Ŀ":{"ha":747,"x_min":128,"x_max":725,"o":"m 128 989 l 214 989 l 214 75 l 725 75 l 725 0 l 128 0 l 128 989 m 533 551 l 533 439 l 414 439 l 414 551 l 533 551 z "},"Ḷ":{"ha":747,"x_min":128,"x_max":725,"o":"m 128 989 l 214 989 l 214 75 l 725 75 l 725 0 l 128 0 l 128 989 m 485 -142 l 485 -250 l 375 -250 l 375 -142 l 485 -142 z "},"ǈ":{"ha":1064,"x_min":128,"x_max":963,"o":"m 128 989 l 214 989 l 214 75 l 725 75 l 725 0 l 128 0 l 128 989 m 675 -217 q 743 -228 713 -228 q 831 -196 800 -228 q 863 -82 863 -164 l 863 696 l 946 696 l 946 -97 q 896 -253 946 -201 q 758 -304 846 -304 q 675 -293 719 -304 l 675 -217 m 963 983 l 963 875 l 850 875 l 850 983 l 963 983 z "},"Ḻ":{"ha":747,"x_min":128,"x_max":725,"o":"m 128 989 l 214 989 l 214 75 l 725 75 l 725 0 l 128 0 l 128 989 m 222 -160 l 638 -160 l 638 -232 l 222 -232 l 222 -160 z "},"Ł":{"ha":760,"x_min":11,"x_max":738,"o":"m 738 75 l 738 0 l 140 0 l 140 435 l 11 360 l 11 444 l 140 519 l 140 989 l 226 989 l 226 568 l 490 721 l 490 636 l 226 483 l 226 75 l 738 75 z "},"M":{"ha":1178,"x_min":129,"x_max":1050,"o":"m 1050 989 l 1050 0 l 969 0 l 969 792 l 622 0 l 558 0 l 208 785 l 210 0 l 129 0 l 129 989 l 200 989 l 592 103 l 978 989 l 1050 989 z "},"Ṃ":{"ha":1178,"x_min":129,"x_max":1050,"o":"m 1050 989 l 1050 0 l 969 0 l 969 792 l 622 0 l 558 0 l 208 785 l 210 0 l 129 0 l 129 989 l 200 989 l 592 103 l 978 989 l 1050 989 m 643 -142 l 643 -250 l 533 -250 l 533 -142 l 643 -142 z "},"N":{"ha":1031,"x_min":128,"x_max":903,"o":"m 903 989 l 903 0 l 836 0 l 208 843 l 208 0 l 128 0 l 128 989 l 196 989 l 822 146 l 822 989 l 903 989 z "},"Ǌ":{"ha":1467,"x_min":128,"x_max":1339,"o":"m 903 989 l 903 0 l 836 0 l 208 843 l 208 0 l 128 0 l 128 989 l 196 989 l 822 146 l 822 989 l 903 989 m 1021 -171 q 1119 -182 1083 -182 q 1223 -140 1193 -182 q 1253 4 1253 -99 l 1253 989 l 1339 989 l 1339 1 q 1291 -197 1339 -136 q 1133 -258 1243 -258 q 1021 -247 1088 -258 l 1021 -171 z "},"Ń":{"ha":1031,"x_min":128,"x_max":903,"o":"m 903 989 l 903 0 l 836 0 l 208 843 l 208 0 l 128 0 l 128 989 l 196 989 l 822 146 l 822 989 l 903 989 m 483 1074 l 624 1283 l 728 1283 l 549 1074 l 483 1074 z "},"Ň":{"ha":1031,"x_min":128,"x_max":903,"o":"m 903 989 l 903 0 l 836 0 l 208 843 l 208 0 l 128 0 l 128 989 l 196 989 l 822 146 l 822 989 l 903 989 m 710 1283 l 549 1074 l 483 1074 l 322 1283 l 410 1283 l 517 1132 l 622 1283 l 710 1283 z "},"Ņ":{"ha":1031,"x_min":128,"x_max":903,"o":"m 903 989 l 903 0 l 836 0 l 208 843 l 208 0 l 128 0 l 128 989 l 196 989 l 822 146 l 822 989 l 903 989 m 575 -104 l 575 -182 q 560 -277 575 -235 q 507 -358 544 -319 l 463 -324 q 501 -267 490 -294 q 513 -207 511 -240 l 457 -207 l 457 -104 l 575 -104 z "},"Ṅ":{"ha":1031,"x_min":128,"x_max":903,"o":"m 903 989 l 903 0 l 836 0 l 208 843 l 208 0 l 128 0 l 128 989 l 196 989 l 822 146 l 822 989 l 903 989 m 572 1235 l 572 1126 l 460 1126 l 460 1235 l 572 1235 z "},"Ṇ":{"ha":1031,"x_min":128,"x_max":903,"o":"m 903 989 l 903 0 l 836 0 l 208 843 l 208 0 l 128 0 l 128 989 l 196 989 l 822 146 l 822 989 l 903 989 m 571 -142 l 571 -250 l 461 -250 l 461 -142 l 571 -142 z "},"Ŋ":{"ha":1031,"x_min":128,"x_max":903,"o":"m 903 989 l 903 -8 q 671 -256 903 -240 l 589 -261 l 583 -187 l 660 -182 q 822 -14 822 -169 l 822 17 l 208 843 l 208 0 l 128 0 l 128 989 l 196 989 l 822 146 l 822 989 l 903 989 z "},"ǋ":{"ha":1347,"x_min":128,"x_max":1246,"o":"m 903 989 l 903 0 l 836 0 l 208 843 l 208 0 l 128 0 l 128 989 l 196 989 l 822 146 l 822 989 l 903 989 m 958 -217 q 1026 -228 996 -228 q 1115 -196 1083 -228 q 1146 -82 1146 -164 l 1146 696 l 1229 696 l 1229 -97 q 1179 -253 1229 -201 q 1042 -304 1129 -304 q 958 -293 1003 -304 l 958 -217 m 1246 983 l 1246 875 l 1133 875 l 1133 983 l 1246 983 z "},"Ṉ":{"ha":1031,"x_min":128,"x_max":903,"o":"m 903 989 l 903 0 l 836 0 l 208 843 l 208 0 l 128 0 l 128 989 l 196 989 l 822 146 l 822 989 l 903 989 m 308 -160 l 724 -160 l 724 -232 l 308 -232 l 308 -160 z "},"Ñ":{"ha":1031,"x_min":128,"x_max":903,"o":"m 903 989 l 903 0 l 836 0 l 208 843 l 208 0 l 128 0 l 128 989 l 196 989 l 822 146 l 822 989 l 903 989 m 296 1110 q 327 1217 296 1178 q 414 1257 358 1257 q 469 1245 443 1257 q 533 1210 496 1233 q 581 1183 563 1192 q 615 1174 599 1174 q 665 1197 647 1174 q 682 1253 682 1221 l 736 1253 q 705 1144 736 1183 q 618 1106 674 1106 q 562 1117 589 1106 q 499 1151 535 1129 q 450 1178 467 1171 q 417 1186 433 1186 q 367 1164 385 1186 q 350 1110 350 1142 l 296 1110 z "},"O":{"ha":1063,"x_min":90,"x_max":972,"o":"m 531 -11 q 297 50 396 -11 q 144 225 197 111 q 90 494 90 339 q 143 764 90 650 q 295 939 196 878 q 531 1000 394 1000 q 767 939 667 1000 q 919 765 867 878 q 972 496 972 651 q 919 226 972 340 q 766 50 865 111 q 531 -11 667 -11 m 531 65 q 790 178 697 65 q 882 496 882 290 q 790 813 882 701 q 531 924 699 924 q 272 812 364 924 q 179 496 179 700 q 272 178 179 292 q 531 65 364 65 z "},"Ó":{"ha":1063,"x_min":90,"x_max":972,"o":"m 531 -11 q 297 50 396 -11 q 144 225 197 111 q 90 494 90 339 q 143 764 90 650 q 295 939 196 878 q 531 1000 394 1000 q 767 939 667 1000 q 919 765 867 878 q 972 496 972 651 q 919 226 972 340 q 766 50 865 111 q 531 -11 667 -11 m 531 65 q 790 178 697 65 q 882 496 882 290 q 790 813 882 701 q 531 924 699 924 q 272 812 364 924 q 179 496 179 700 q 272 178 179 292 q 531 65 364 65 m 497 1074 l 638 1283 l 742 1283 l 563 1074 l 497 1074 z "},"Ŏ":{"ha":1063,"x_min":90,"x_max":972,"o":"m 531 -11 q 297 50 396 -11 q 144 225 197 111 q 90 494 90 339 q 143 764 90 650 q 295 939 196 878 q 531 1000 394 1000 q 767 939 667 1000 q 919 765 867 878 q 972 496 972 651 q 919 226 972 340 q 766 50 865 111 q 531 -11 667 -11 m 531 65 q 790 178 697 65 q 882 496 882 290 q 790 813 882 701 q 531 924 699 924 q 272 812 364 924 q 179 496 179 700 q 272 178 179 292 q 531 65 364 65 m 531 1092 q 397 1126 456 1092 q 308 1239 339 1161 l 371 1267 q 442 1183 406 1206 q 531 1160 479 1160 q 617 1183 581 1160 q 689 1267 654 1206 l 751 1239 q 531 1092 693 1092 z "},"Ô":{"ha":1063,"x_min":90,"x_max":972,"o":"m 531 -11 q 297 50 396 -11 q 144 225 197 111 q 90 494 90 339 q 143 764 90 650 q 295 939 196 878 q 531 1000 394 1000 q 767 939 667 1000 q 919 765 867 878 q 972 496 972 651 q 919 226 972 340 q 766 50 865 111 q 531 -11 667 -11 m 531 65 q 790 178 697 65 q 882 496 882 290 q 790 813 882 701 q 531 924 699 924 q 272 812 364 924 q 179 496 179 700 q 272 178 179 292 q 531 65 364 65 m 336 1074 l 497 1283 l 563 1283 l 724 1074 l 636 1074 l 531 1225 l 424 1074 l 336 1074 z "},"Ố":{"ha":1063,"x_min":90,"x_max":972,"o":"m 531 -11 q 297 50 396 -11 q 144 225 197 111 q 90 494 90 339 q 143 764 90 650 q 295 939 196 878 q 531 1000 394 1000 q 767 939 667 1000 q 919 765 867 878 q 972 496 972 651 q 919 226 972 340 q 766 50 865 111 q 531 -11 667 -11 m 531 65 q 790 178 697 65 q 882 496 882 290 q 790 813 882 701 q 531 924 699 924 q 272 812 364 924 q 179 496 179 700 q 272 178 179 292 q 531 65 364 65 m 644 1215 l 781 1414 l 883 1414 l 704 1215 l 644 1215 m 336 1074 l 497 1282 l 563 1282 l 724 1074 l 636 1074 l 531 1224 l 424 1074 l 336 1074 z "},"Ộ":{"ha":1063,"x_min":90,"x_max":972,"o":"m 531 -11 q 297 50 396 -11 q 144 225 197 111 q 90 494 90 339 q 143 764 90 650 q 295 939 196 878 q 531 1000 394 1000 q 767 939 667 1000 q 919 765 867 878 q 972 496 972 651 q 919 226 972 340 q 766 50 865 111 q 531 -11 667 -11 m 531 65 q 790 178 697 65 q 882 496 882 290 q 790 813 882 701 q 531 924 699 924 q 272 812 364 924 q 179 496 179 700 q 272 178 179 292 q 531 65 364 65 m 585 -142 l 585 -250 l 475 -250 l 475 -142 l 585 -142 m 336 1074 l 497 1283 l 563 1283 l 724 1074 l 636 1074 l 531 1225 l 424 1074 l 336 1074 z "},"Ồ":{"ha":1063,"x_min":90,"x_max":972,"o":"m 531 -11 q 297 50 396 -11 q 144 225 197 111 q 90 494 90 339 q 143 764 90 650 q 295 939 196 878 q 531 1000 394 1000 q 767 939 667 1000 q 919 765 867 878 q 972 496 972 651 q 919 226 972 340 q 766 50 865 111 q 531 -11 667 -11 m 531 65 q 790 178 697 65 q 882 496 882 290 q 790 813 882 701 q 531 924 699 924 q 272 812 364 924 q 179 496 179 700 q 272 178 179 292 q 531 65 364 65 m 553 1414 l 654 1414 l 764 1215 l 706 1215 l 553 1414 m 336 1074 l 497 1282 l 563 1282 l 724 1074 l 636 1074 l 531 1224 l 424 1074 l 336 1074 z "},"Ổ":{"ha":1063,"x_min":90,"x_max":972,"o":"m 531 -11 q 297 50 396 -11 q 144 225 197 111 q 90 494 90 339 q 143 764 90 650 q 295 939 196 878 q 531 1000 394 1000 q 767 939 667 1000 q 919 765 867 878 q 972 496 972 651 q 919 226 972 340 q 766 50 865 111 q 531 -11 667 -11 m 531 65 q 790 178 697 65 q 882 496 882 290 q 790 813 882 701 q 531 924 699 924 q 272 812 364 924 q 179 496 179 700 q 272 178 179 292 q 531 65 364 65 m 710 1215 l 643 1215 l 643 1239 q 658 1276 643 1263 q 701 1300 674 1289 q 730 1315 721 1308 q 739 1331 739 1321 q 723 1351 739 1344 q 679 1358 707 1358 q 592 1343 638 1358 l 572 1397 q 682 1421 626 1421 q 781 1397 744 1421 q 818 1332 818 1372 q 802 1294 818 1307 q 756 1268 786 1281 q 722 1250 733 1258 q 710 1228 710 1242 l 710 1215 m 336 1074 l 497 1282 l 563 1282 l 724 1074 l 636 1074 l 531 1224 l 424 1074 l 336 1074 z "},"Ỗ":{"ha":1063,"x_min":90,"x_max":972,"o":"m 531 -11 q 297 50 396 -11 q 144 225 197 111 q 90 494 90 339 q 143 764 90 650 q 295 939 196 878 q 531 1000 394 1000 q 767 939 667 1000 q 919 765 867 878 q 972 496 972 651 q 919 226 972 340 q 766 50 865 111 q 531 -11 667 -11 m 531 65 q 790 178 697 65 q 882 496 882 290 q 790 813 882 701 q 531 924 699 924 q 272 812 364 924 q 179 496 179 700 q 272 178 179 292 q 531 65 364 65 m 310 1301 q 342 1400 310 1363 q 428 1438 374 1438 q 482 1428 456 1438 q 547 1401 508 1419 q 594 1381 575 1388 q 629 1374 613 1374 q 678 1395 660 1374 q 696 1442 696 1417 l 750 1442 q 718 1344 750 1382 q 632 1306 686 1306 q 576 1315 603 1306 q 513 1343 549 1325 q 489 1354 507 1346 q 456 1367 471 1363 q 431 1371 442 1371 q 382 1349 400 1371 q 364 1301 364 1328 l 310 1301 m 336 1074 l 497 1282 l 563 1282 l 724 1074 l 636 1074 l 531 1224 l 424 1074 l 336 1074 z "},"Ȍ":{"ha":1063,"x_min":90,"x_max":972,"o":"m 531 -11 q 297 50 396 -11 q 144 225 197 111 q 90 494 90 339 q 143 764 90 650 q 295 939 196 878 q 531 1000 394 1000 q 767 939 667 1000 q 919 765 867 878 q 972 496 972 651 q 919 226 972 340 q 766 50 865 111 q 531 -11 667 -11 m 531 65 q 790 178 697 65 q 882 496 882 290 q 790 813 882 701 q 531 924 699 924 q 272 812 364 924 q 179 496 179 700 q 272 178 179 292 q 531 65 364 65 m 289 1283 l 375 1283 l 475 1074 l 425 1074 l 289 1283 m 449 1283 l 536 1283 l 635 1074 l 585 1074 l 449 1283 z "},"Ö":{"ha":1063,"x_min":90,"x_max":972,"o":"m 531 -11 q 297 50 396 -11 q 144 225 197 111 q 90 494 90 339 q 143 764 90 650 q 295 939 196 878 q 531 1000 394 1000 q 767 939 667 1000 q 919 765 867 878 q 972 496 972 651 q 919 226 972 340 q 766 50 865 111 q 531 -11 667 -11 m 531 65 q 790 178 697 65 q 882 496 882 290 q 790 813 882 701 q 531 924 699 924 q 272 812 364 924 q 179 496 179 700 q 272 178 179 292 q 531 65 364 65 m 465 1231 l 465 1129 l 361 1129 l 361 1231 l 465 1231 m 699 1231 l 699 1129 l 594 1129 l 594 1231 l 699 1231 z "},"Ȫ":{"ha":1063,"x_min":90,"x_max":972,"o":"m 531 -11 q 297 50 396 -11 q 144 225 197 111 q 90 494 90 339 q 143 764 90 650 q 295 939 196 878 q 531 1000 394 1000 q 767 939 667 1000 q 919 765 867 878 q 972 496 972 651 q 919 226 972 340 q 766 50 865 111 q 531 -11 667 -11 m 531 65 q 790 178 697 65 q 882 496 882 290 q 790 813 882 701 q 531 924 699 924 q 272 812 364 924 q 179 496 179 700 q 272 178 179 292 q 531 65 364 65 m 465 1231 l 465 1129 l 361 1129 l 361 1231 l 465 1231 m 699 1231 l 699 1129 l 594 1129 l 594 1231 l 699 1231 m 322 1442 l 738 1442 l 738 1369 l 322 1369 l 322 1442 z "},"Ȱ":{"ha":1063,"x_min":90,"x_max":972,"o":"m 531 -11 q 297 50 396 -11 q 144 225 197 111 q 90 494 90 339 q 143 764 90 650 q 295 939 196 878 q 531 1000 394 1000 q 767 939 667 1000 q 919 765 867 878 q 972 496 972 651 q 919 226 972 340 q 766 50 865 111 q 531 -11 667 -11 m 531 65 q 790 178 697 65 q 882 496 882 290 q 790 813 882 701 q 531 924 699 924 q 272 812 364 924 q 179 496 179 700 q 272 178 179 292 q 531 65 364 65 m 586 1235 l 586 1126 l 474 1126 l 474 1235 l 586 1235 m 322 1442 l 738 1442 l 738 1369 l 322 1369 l 322 1442 z "},"Ọ":{"ha":1063,"x_min":90,"x_max":972,"o":"m 531 -11 q 297 50 396 -11 q 144 225 197 111 q 90 494 90 339 q 143 764 90 650 q 295 939 196 878 q 531 1000 394 1000 q 767 939 667 1000 q 919 765 867 878 q 972 496 972 651 q 919 226 972 340 q 766 50 865 111 q 531 -11 667 -11 m 531 65 q 790 178 697 65 q 882 496 882 290 q 790 813 882 701 q 531 924 699 924 q 272 812 364 924 q 179 496 179 700 q 272 178 179 292 q 531 65 364 65 m 585 -142 l 585 -250 l 475 -250 l 475 -142 l 585 -142 z "},"Ò":{"ha":1063,"x_min":90,"x_max":972,"o":"m 531 -11 q 297 50 396 -11 q 144 225 197 111 q 90 494 90 339 q 143 764 90 650 q 295 939 196 878 q 531 1000 394 1000 q 767 939 667 1000 q 919 765 867 878 q 972 496 972 651 q 919 226 972 340 q 766 50 865 111 q 531 -11 667 -11 m 531 65 q 790 178 697 65 q 882 496 882 290 q 790 813 882 701 q 531 924 699 924 q 272 812 364 924 q 179 496 179 700 q 272 178 179 292 q 531 65 364 65 m 318 1283 l 422 1283 l 563 1074 l 497 1074 l 318 1283 z "},"Ỏ":{"ha":1063,"x_min":90,"x_max":972,"o":"m 531 -11 q 297 50 396 -11 q 144 225 197 111 q 90 494 90 339 q 143 764 90 650 q 295 939 196 878 q 531 1000 394 1000 q 767 939 667 1000 q 919 765 867 878 q 972 496 972 651 q 919 226 972 340 q 766 50 865 111 q 531 -11 667 -11 m 531 65 q 790 178 697 65 q 882 496 882 290 q 790 813 882 701 q 531 924 699 924 q 272 812 364 924 q 179 496 179 700 q 272 178 179 292 q 531 65 364 65 m 564 1074 l 497 1074 l 497 1096 q 513 1135 497 1119 q 556 1164 529 1150 q 584 1183 575 1175 q 593 1200 593 1190 q 577 1221 593 1214 q 532 1228 561 1228 q 446 1211 490 1228 l 426 1267 q 536 1290 481 1290 q 635 1266 599 1290 q 671 1201 671 1242 q 654 1158 671 1174 q 607 1128 638 1143 q 574 1106 583 1114 q 564 1086 564 1099 l 564 1074 z "},"Ơ":{"ha":1063,"x_min":90,"x_max":972,"o":"m 972 1133 q 921 988 972 1042 q 778 929 869 935 q 922 756 872 867 q 972 496 972 646 q 919 226 972 340 q 765 50 865 111 q 531 -11 665 -11 q 297 50 397 -11 q 144 226 197 111 q 90 494 90 340 q 144 764 90 650 q 297 939 197 878 q 536 1000 397 1000 q 643 994 574 1000 q 732 989 707 989 q 858 1026 821 990 q 894 1146 894 1061 l 894 1165 l 972 1165 l 972 1133 m 882 496 q 790 813 882 701 q 531 924 699 924 q 272 812 364 924 q 179 496 179 700 q 272 178 179 292 q 531 65 364 65 q 790 178 697 65 q 882 496 882 290 z "},"Ớ":{"ha":1063,"x_min":90,"x_max":972,"o":"m 972 1133 q 921 988 972 1042 q 778 929 869 935 q 922 756 872 867 q 972 496 972 646 q 919 226 972 340 q 765 50 865 111 q 531 -11 665 -11 q 297 50 397 -11 q 144 226 197 111 q 90 494 90 340 q 144 764 90 650 q 297 939 197 878 q 536 1000 397 1000 q 643 994 574 1000 q 732 989 707 989 q 858 1026 821 990 q 894 1146 894 1061 l 894 1165 l 972 1165 l 972 1133 m 882 496 q 790 813 882 701 q 531 924 699 924 q 272 812 364 924 q 179 496 179 700 q 272 178 179 292 q 531 65 364 65 q 790 178 697 65 q 882 496 882 290 m 497 1074 l 638 1283 l 742 1283 l 563 1074 l 497 1074 z "},"Ợ":{"ha":1063,"x_min":90,"x_max":972,"o":"m 972 1133 q 921 988 972 1042 q 778 929 869 935 q 922 756 872 867 q 972 496 972 646 q 919 226 972 340 q 765 50 865 111 q 531 -11 665 -11 q 297 50 397 -11 q 144 226 197 111 q 90 494 90 340 q 144 764 90 650 q 297 939 197 878 q 536 1000 397 1000 q 643 994 574 1000 q 732 989 707 989 q 858 1026 821 990 q 894 1146 894 1061 l 894 1165 l 972 1165 l 972 1133 m 882 496 q 790 813 882 701 q 531 924 699 924 q 272 812 364 924 q 179 496 179 700 q 272 178 179 292 q 531 65 364 65 q 790 178 697 65 q 882 496 882 290 m 586 -142 l 586 -250 l 476 -250 l 476 -142 l 586 -142 z "},"Ờ":{"ha":1063,"x_min":90,"x_max":972,"o":"m 972 1133 q 921 988 972 1042 q 778 929 869 935 q 922 756 872 867 q 972 496 972 646 q 919 226 972 340 q 765 50 865 111 q 531 -11 665 -11 q 297 50 397 -11 q 144 226 197 111 q 90 494 90 340 q 144 764 90 650 q 297 939 197 878 q 536 1000 397 1000 q 643 994 574 1000 q 732 989 707 989 q 858 1026 821 990 q 894 1146 894 1061 l 894 1165 l 972 1165 l 972 1133 m 882 496 q 790 813 882 701 q 531 924 699 924 q 272 812 364 924 q 179 496 179 700 q 272 178 179 292 q 531 65 364 65 q 790 178 697 65 q 882 496 882 290 m 318 1283 l 422 1283 l 563 1074 l 497 1074 l 318 1283 z "},"Ở":{"ha":1063,"x_min":90,"x_max":972,"o":"m 972 1133 q 921 988 972 1042 q 778 929 869 935 q 922 756 872 867 q 972 496 972 646 q 919 226 972 340 q 765 50 865 111 q 531 -11 665 -11 q 297 50 397 -11 q 144 226 197 111 q 90 494 90 340 q 144 764 90 650 q 297 939 197 878 q 536 1000 397 1000 q 643 994 574 1000 q 732 989 707 989 q 858 1026 821 990 q 894 1146 894 1061 l 894 1165 l 972 1165 l 972 1133 m 882 496 q 790 813 882 701 q 531 924 699 924 q 272 812 364 924 q 179 496 179 700 q 272 178 179 292 q 531 65 364 65 q 790 178 697 65 q 882 496 882 290 m 564 1074 l 497 1074 l 497 1096 q 513 1135 497 1119 q 556 1164 529 1150 q 584 1183 575 1175 q 593 1200 593 1190 q 577 1221 593 1214 q 532 1228 561 1228 q 446 1211 490 1228 l 426 1267 q 536 1290 481 1290 q 635 1266 599 1290 q 671 1201 671 1242 q 654 1158 671 1174 q 607 1128 638 1143 q 574 1106 583 1114 q 564 1086 564 1099 l 564 1074 z "},"Ỡ":{"ha":1063,"x_min":90,"x_max":972,"o":"m 972 1133 q 921 988 972 1042 q 778 929 869 935 q 922 756 872 867 q 972 496 972 646 q 919 226 972 340 q 765 50 865 111 q 531 -11 665 -11 q 297 50 397 -11 q 144 226 197 111 q 90 494 90 340 q 144 764 90 650 q 297 939 197 878 q 536 1000 397 1000 q 643 994 574 1000 q 732 989 707 989 q 858 1026 821 990 q 894 1146 894 1061 l 894 1165 l 972 1165 l 972 1133 m 882 496 q 790 813 882 701 q 531 924 699 924 q 272 812 364 924 q 179 496 179 700 q 272 178 179 292 q 531 65 364 65 q 790 178 697 65 q 882 496 882 290 m 310 1110 q 341 1217 310 1178 q 428 1257 372 1257 q 483 1245 457 1257 q 547 1210 510 1233 q 594 1183 576 1192 q 629 1174 613 1174 q 678 1197 661 1174 q 696 1253 696 1221 l 750 1253 q 719 1144 750 1183 q 632 1106 688 1106 q 576 1117 603 1106 q 513 1151 549 1129 q 464 1178 481 1171 q 431 1186 447 1186 q 381 1164 399 1186 q 364 1110 364 1142 l 310 1110 z "},"Ő":{"ha":1063,"x_min":90,"x_max":972,"o":"m 531 -11 q 297 50 396 -11 q 144 225 197 111 q 90 494 90 339 q 143 764 90 650 q 295 939 196 878 q 531 1000 394 1000 q 767 939 667 1000 q 919 765 867 878 q 972 496 972 651 q 919 226 972 340 q 766 50 865 111 q 531 -11 667 -11 m 531 65 q 790 178 697 65 q 882 496 882 290 q 790 813 882 701 q 531 924 699 924 q 272 812 364 924 q 179 496 179 700 q 272 178 179 292 q 531 65 364 65 m 524 1283 l 611 1283 l 475 1074 l 425 1074 l 524 1283 m 685 1283 l 771 1283 l 635 1074 l 585 1074 l 685 1283 z "},"Ȏ":{"ha":1063,"x_min":90,"x_max":972,"o":"m 531 -11 q 297 50 396 -11 q 144 225 197 111 q 90 494 90 339 q 143 764 90 650 q 295 939 196 878 q 531 1000 394 1000 q 767 939 667 1000 q 919 765 867 878 q 972 496 972 651 q 919 226 972 340 q 766 50 865 111 q 531 -11 667 -11 m 531 65 q 790 178 697 65 q 882 496 882 290 q 790 813 882 701 q 531 924 699 924 q 272 812 364 924 q 179 496 179 700 q 272 178 179 292 q 531 65 364 65 m 531 1268 q 663 1233 604 1268 q 751 1119 721 1197 l 689 1093 q 617 1177 654 1154 q 531 1200 581 1200 q 442 1177 479 1200 q 371 1093 406 1154 l 308 1119 q 398 1233 340 1199 q 531 1268 456 1268 z "},"Ō":{"ha":1063,"x_min":90,"x_max":972,"o":"m 531 -11 q 297 50 396 -11 q 144 225 197 111 q 90 494 90 339 q 143 764 90 650 q 295 939 196 878 q 531 1000 394 1000 q 767 939 667 1000 q 919 765 867 878 q 972 496 972 651 q 919 226 972 340 q 766 50 865 111 q 531 -11 667 -11 m 531 65 q 790 178 697 65 q 882 496 882 290 q 790 813 882 701 q 531 924 699 924 q 272 812 364 924 q 179 496 179 700 q 272 178 179 292 q 531 65 364 65 m 322 1217 l 738 1217 l 738 1144 l 322 1144 l 322 1217 z "},"Ṓ":{"ha":1063,"x_min":90,"x_max":972,"o":"m 531 -11 q 297 50 396 -11 q 144 225 197 111 q 90 494 90 339 q 143 764 90 650 q 295 939 196 878 q 531 1000 394 1000 q 767 939 667 1000 q 919 765 867 878 q 972 496 972 651 q 919 226 972 340 q 766 50 865 111 q 531 -11 667 -11 m 531 65 q 790 178 697 65 q 882 496 882 290 q 790 813 882 701 q 531 924 699 924 q 272 812 364 924 q 179 496 179 700 q 272 178 179 292 q 531 65 364 65 m 322 1217 l 738 1217 l 738 1144 l 322 1144 l 322 1217 m 497 1299 l 638 1508 l 742 1508 l 563 1299 l 497 1299 z "},"Ṑ":{"ha":1063,"x_min":90,"x_max":972,"o":"m 531 -11 q 297 50 396 -11 q 144 225 197 111 q 90 494 90 339 q 143 764 90 650 q 295 939 196 878 q 531 1000 394 1000 q 767 939 667 1000 q 919 765 867 878 q 972 496 972 651 q 919 226 972 340 q 766 50 865 111 q 531 -11 667 -11 m 531 65 q 790 178 697 65 q 882 496 882 290 q 790 813 882 701 q 531 924 699 924 q 272 812 364 924 q 179 496 179 700 q 272 178 179 292 q 531 65 364 65 m 322 1217 l 738 1217 l 738 1144 l 322 1144 l 322 1217 m 318 1508 l 422 1508 l 563 1299 l 497 1299 l 318 1508 z "},"Ǫ":{"ha":1063,"x_min":90,"x_max":972,"o":"m 658 4 q 553 -114 553 -25 q 578 -180 553 -156 q 647 -204 603 -204 q 729 -179 682 -204 l 751 -237 q 638 -268 703 -268 q 522 -228 567 -268 q 476 -124 476 -187 q 524 -11 476 -58 q 294 51 392 -10 q 143 226 196 113 q 90 494 90 340 q 144 764 90 650 q 297 939 197 878 q 531 1000 396 1000 q 766 939 667 1000 q 919 765 865 878 q 972 496 972 651 q 890 174 972 301 q 658 4 808 46 m 179 496 q 272 178 179 292 q 531 65 364 65 q 790 178 697 65 q 882 496 882 290 q 790 813 882 701 q 531 924 699 924 q 272 812 364 924 q 179 496 179 700 z "},"Ø":{"ha":1063,"x_min":90,"x_max":972,"o":"m 813 906 q 931 736 890 840 q 972 496 972 632 q 919 226 972 340 q 766 50 865 111 q 531 -11 667 -11 q 310 43 404 -11 l 251 -57 l 189 -21 l 250 83 q 132 255 174 150 q 90 494 90 360 q 143 764 90 650 q 295 939 196 878 q 531 1000 394 1000 q 753 947 658 1000 l 811 1046 l 874 1010 l 813 906 m 179 496 q 208 297 179 383 q 292 156 238 211 l 714 878 q 531 924 638 924 q 272 812 364 924 q 179 496 179 700 m 531 65 q 790 178 697 65 q 882 496 882 290 q 771 833 882 722 l 350 111 q 531 65 425 65 z "},"Ǿ":{"ha":1063,"x_min":90,"x_max":972,"o":"m 813 906 q 931 736 890 840 q 972 496 972 632 q 919 226 972 340 q 766 50 865 111 q 531 -11 667 -11 q 310 43 404 -11 l 251 -57 l 189 -21 l 250 83 q 132 255 174 150 q 90 494 90 360 q 143 764 90 650 q 295 939 196 878 q 531 1000 394 1000 q 753 947 658 1000 l 811 1046 l 874 1010 l 813 906 m 179 496 q 208 297 179 383 q 292 156 238 211 l 714 878 q 531 924 638 924 q 272 812 364 924 q 179 496 179 700 m 531 65 q 790 178 697 65 q 882 496 882 290 q 771 833 882 722 l 350 111 q 531 65 425 65 m 497 1074 l 638 1283 l 742 1283 l 563 1074 l 497 1074 z "},"Õ":{"ha":1063,"x_min":90,"x_max":972,"o":"m 531 -11 q 297 50 396 -11 q 144 225 197 111 q 90 494 90 339 q 143 764 90 650 q 295 939 196 878 q 531 1000 394 1000 q 767 939 667 1000 q 919 765 867 878 q 972 496 972 651 q 919 226 972 340 q 766 50 865 111 q 531 -11 667 -11 m 531 65 q 790 178 697 65 q 882 496 882 290 q 790 813 882 701 q 531 924 699 924 q 272 812 364 924 q 179 496 179 700 q 272 178 179 292 q 531 65 364 65 m 310 1110 q 341 1217 310 1178 q 428 1257 372 1257 q 483 1245 457 1257 q 547 1210 510 1233 q 594 1183 576 1192 q 629 1174 613 1174 q 678 1197 661 1174 q 696 1253 696 1221 l 750 1253 q 719 1144 750 1183 q 632 1106 688 1106 q 576 1117 603 1106 q 513 1151 549 1129 q 464 1178 481 1171 q 431 1186 447 1186 q 381 1164 399 1186 q 364 1110 364 1142 l 310 1110 z "},"Ṍ":{"ha":1063,"x_min":90,"x_max":972,"o":"m 531 -11 q 297 50 396 -11 q 144 225 197 111 q 90 494 90 339 q 143 764 90 650 q 295 939 196 878 q 531 1000 394 1000 q 767 939 667 1000 q 919 765 867 878 q 972 496 972 651 q 919 226 972 340 q 766 50 865 111 q 531 -11 667 -11 m 531 65 q 790 178 697 65 q 882 496 882 290 q 790 813 882 701 q 531 924 699 924 q 272 812 364 924 q 179 496 179 700 q 272 178 179 292 q 531 65 364 65 m 310 1110 q 341 1217 310 1178 q 428 1257 372 1257 q 483 1245 457 1257 q 547 1210 510 1233 q 594 1183 576 1192 q 629 1174 613 1174 q 678 1197 661 1174 q 696 1253 696 1221 l 750 1253 q 719 1144 750 1183 q 632 1106 688 1106 q 576 1117 603 1106 q 513 1151 549 1129 q 464 1178 481 1171 q 431 1186 447 1186 q 381 1164 399 1186 q 364 1110 364 1142 l 310 1110 m 497 1299 l 638 1508 l 742 1508 l 563 1299 l 497 1299 z "},"Ṏ":{"ha":1063,"x_min":90,"x_max":972,"o":"m 531 -11 q 297 50 396 -11 q 144 225 197 111 q 90 494 90 339 q 143 764 90 650 q 295 939 196 878 q 531 1000 394 1000 q 767 939 667 1000 q 919 765 867 878 q 972 496 972 651 q 919 226 972 340 q 766 50 865 111 q 531 -11 667 -11 m 531 65 q 790 178 697 65 q 882 496 882 290 q 790 813 882 701 q 531 924 699 924 q 272 812 364 924 q 179 496 179 700 q 272 178 179 292 q 531 65 364 65 m 310 1110 q 341 1217 310 1178 q 428 1257 372 1257 q 483 1245 457 1257 q 547 1210 510 1233 q 594 1183 576 1192 q 629 1174 613 1174 q 678 1197 661 1174 q 696 1253 696 1221 l 750 1253 q 719 1144 750 1183 q 632 1106 688 1106 q 576 1117 603 1106 q 513 1151 549 1129 q 464 1178 481 1171 q 431 1186 447 1186 q 381 1164 399 1186 q 364 1110 364 1142 l 310 1110 m 465 1456 l 465 1354 l 361 1354 l 361 1456 l 465 1456 m 699 1456 l 699 1354 l 594 1354 l 594 1456 l 699 1456 z "},"Ȭ":{"ha":1063,"x_min":90,"x_max":972,"o":"m 531 -11 q 297 50 396 -11 q 144 225 197 111 q 90 494 90 339 q 143 764 90 650 q 295 939 196 878 q 531 1000 394 1000 q 767 939 667 1000 q 919 765 867 878 q 972 496 972 651 q 919 226 972 340 q 766 50 865 111 q 531 -11 667 -11 m 531 65 q 790 178 697 65 q 882 496 882 290 q 790 813 882 701 q 531 924 699 924 q 272 812 364 924 q 179 496 179 700 q 272 178 179 292 q 531 65 364 65 m 310 1110 q 341 1217 310 1178 q 428 1257 372 1257 q 483 1245 457 1257 q 547 1210 510 1233 q 594 1183 576 1192 q 629 1174 613 1174 q 678 1197 661 1174 q 696 1253 696 1221 l 750 1253 q 719 1144 750 1183 q 632 1106 688 1106 q 576 1117 603 1106 q 513 1151 549 1129 q 464 1178 481 1171 q 431 1186 447 1186 q 381 1164 399 1186 q 364 1110 364 1142 l 310 1110 m 322 1442 l 738 1442 l 738 1369 l 322 1369 l 322 1442 z "},"Œ":{"ha":1468,"x_min":90,"x_max":1393,"o":"m 868 915 l 868 540 l 1365 540 l 1365 464 l 868 464 l 868 74 l 1393 74 l 1393 0 l 786 0 l 786 68 q 529 -11 682 -11 q 297 51 396 -11 q 144 226 197 113 q 90 494 90 340 q 143 764 90 650 q 295 939 196 878 q 529 1000 394 1000 q 786 922 681 1000 l 786 989 l 1393 989 l 1393 915 l 868 915 m 179 496 q 272 178 179 292 q 531 65 364 65 q 783 153 689 65 l 783 836 q 531 924 689 924 q 272 811 364 924 q 179 496 179 699 z "},"P":{"ha":894,"x_min":128,"x_max":826,"o":"m 128 989 l 508 989 q 742 917 657 989 q 826 718 826 844 q 741 517 826 590 q 508 444 656 444 l 214 444 l 214 0 l 128 0 l 128 989 m 503 519 q 679 571 619 519 q 739 718 739 622 q 679 864 739 813 q 503 915 619 915 l 214 915 l 214 519 l 503 519 z "},"Þ":{"ha":894,"x_min":128,"x_max":826,"o":"m 515 765 q 745 698 664 765 q 826 506 826 631 q 744 310 826 379 q 515 240 663 240 l 214 240 l 214 0 l 128 0 l 128 989 l 214 989 l 214 765 l 515 765 m 510 314 q 682 361 625 314 q 739 506 739 408 q 683 646 739 600 q 510 692 626 692 l 214 692 l 214 314 l 510 314 z "},"Q":{"ha":1063,"x_min":90,"x_max":972,"o":"m 678 10 q 857 -203 743 -107 l 797 -265 q 685 -153 743 -222 q 585 -8 628 -83 q 531 -11 549 -11 q 297 50 396 -11 q 144 225 197 111 q 90 494 90 339 q 143 764 90 650 q 295 939 196 878 q 531 1000 394 1000 q 767 939 667 1000 q 919 765 867 878 q 972 496 972 651 q 895 181 972 307 q 678 10 818 54 m 179 496 q 272 178 179 292 q 531 65 364 65 q 790 178 697 65 q 882 496 882 290 q 790 813 882 701 q 531 924 699 924 q 272 812 364 924 q 179 496 179 700 z "},"R":{"ha":956,"x_min":128,"x_max":889,"o":"m 889 0 l 800 0 l 676 329 q 611 419 653 396 q 490 442 569 442 l 214 442 l 214 0 l 128 0 l 128 989 l 510 989 q 749 919 664 989 q 833 718 833 849 q 783 557 833 622 q 638 465 732 492 q 711 429 681 458 q 763 343 742 400 l 889 0 m 504 517 q 747 719 747 517 q 504 915 747 915 l 213 915 l 213 517 l 504 517 z "},"Ŕ":{"ha":956,"x_min":128,"x_max":889,"o":"m 889 0 l 800 0 l 676 329 q 611 419 653 396 q 490 442 569 442 l 214 442 l 214 0 l 128 0 l 128 989 l 510 989 q 749 919 664 989 q 833 718 833 849 q 783 557 833 622 q 638 465 732 492 q 711 429 681 458 q 763 343 742 400 l 889 0 m 504 517 q 747 719 747 517 q 504 915 747 915 l 213 915 l 213 517 l 504 517 m 439 1074 l 579 1283 l 683 1283 l 504 1074 l 439 1074 z "},"Ř":{"ha":956,"x_min":128,"x_max":889,"o":"m 889 0 l 800 0 l 676 329 q 611 419 653 396 q 490 442 569 442 l 214 442 l 214 0 l 128 0 l 128 989 l 510 989 q 749 919 664 989 q 833 718 833 849 q 783 557 833 622 q 638 465 732 492 q 711 429 681 458 q 763 343 742 400 l 889 0 m 504 517 q 747 719 747 517 q 504 915 747 915 l 213 915 l 213 517 l 504 517 m 665 1283 l 504 1074 l 439 1074 l 278 1283 l 365 1283 l 472 1132 l 578 1283 l 665 1283 z "},"Ŗ":{"ha":956,"x_min":128,"x_max":889,"o":"m 889 0 l 800 0 l 676 329 q 611 419 653 396 q 490 442 569 442 l 214 442 l 214 0 l 128 0 l 128 989 l 510 989 q 749 919 664 989 q 833 718 833 849 q 783 557 833 622 q 638 465 732 492 q 711 429 681 458 q 763 343 742 400 l 889 0 m 504 517 q 747 719 747 517 q 504 915 747 915 l 213 915 l 213 517 l 504 517 m 531 -104 l 531 -182 q 515 -277 531 -235 q 463 -358 500 -319 l 418 -324 q 456 -267 446 -294 q 468 -207 467 -240 l 413 -207 l 413 -104 l 531 -104 z "},"Ȑ":{"ha":956,"x_min":128,"x_max":889,"o":"m 889 0 l 800 0 l 676 329 q 611 419 653 396 q 490 442 569 442 l 214 442 l 214 0 l 128 0 l 128 989 l 510 989 q 749 919 664 989 q 833 718 833 849 q 783 557 833 622 q 638 465 732 492 q 711 429 681 458 q 763 343 742 400 l 889 0 m 504 517 q 747 719 747 517 q 504 915 747 915 l 213 915 l 213 517 l 504 517 m 231 1283 l 317 1283 l 417 1074 l 367 1074 l 231 1283 m 390 1283 l 478 1283 l 576 1074 l 526 1074 l 390 1283 z "},"Ṛ":{"ha":956,"x_min":128,"x_max":889,"o":"m 889 0 l 800 0 l 676 329 q 611 419 653 396 q 490 442 569 442 l 214 442 l 214 0 l 128 0 l 128 989 l 510 989 q 749 919 664 989 q 833 718 833 849 q 783 557 833 622 q 638 465 732 492 q 711 429 681 458 q 763 343 742 400 l 889 0 m 504 517 q 747 719 747 517 q 504 915 747 915 l 213 915 l 213 517 l 504 517 m 526 -142 l 526 -250 l 417 -250 l 417 -142 l 526 -142 z "},"Ȓ":{"ha":956,"x_min":128,"x_max":889,"o":"m 889 0 l 800 0 l 676 329 q 611 419 653 396 q 490 442 569 442 l 214 442 l 214 0 l 128 0 l 128 989 l 510 989 q 749 919 664 989 q 833 718 833 849 q 783 557 833 622 q 638 465 732 492 q 711 429 681 458 q 763 343 742 400 l 889 0 m 504 517 q 747 719 747 517 q 504 915 747 915 l 213 915 l 213 517 l 504 517 m 472 1268 q 604 1233 546 1268 q 693 1119 663 1197 l 631 1093 q 559 1177 596 1154 q 472 1200 522 1200 q 384 1177 421 1200 q 313 1093 347 1154 l 250 1119 q 340 1233 282 1199 q 472 1268 397 1268 z "},"Ṟ":{"ha":956,"x_min":128,"x_max":889,"o":"m 889 0 l 800 0 l 676 329 q 611 419 653 396 q 490 442 569 442 l 214 442 l 214 0 l 128 0 l 128 989 l 510 989 q 749 919 664 989 q 833 718 833 849 q 783 557 833 622 q 638 465 732 492 q 711 429 681 458 q 763 343 742 400 l 889 0 m 504 517 q 747 719 747 517 q 504 915 747 915 l 213 915 l 213 517 l 504 517 m 264 -160 l 679 -160 l 679 -232 l 264 -232 l 264 -160 z "},"S":{"ha":851,"x_min":69,"x_max":786,"o":"m 435 -11 q 228 20 318 -11 q 69 118 139 51 l 106 186 q 255 93 179 121 q 435 65 331 65 q 629 117 560 65 q 699 261 699 168 q 665 349 699 315 q 578 403 631 383 q 440 442 526 422 q 255 494 326 467 q 135 575 183 521 q 86 719 86 629 q 129 867 86 803 q 252 965 172 931 q 438 1000 332 1000 q 625 967 539 1000 q 774 871 711 935 l 738 803 q 596 894 668 865 q 438 924 524 924 q 242 869 313 924 q 172 721 172 815 q 233 599 172 639 q 413 531 294 558 l 453 521 q 629 469 564 494 q 740 394 694 444 q 786 261 786 344 q 743 119 786 181 q 620 23 700 57 q 435 -11 540 -11 z "},"Ś":{"ha":851,"x_min":69,"x_max":786,"o":"m 435 -11 q 228 20 318 -11 q 69 118 139 51 l 106 186 q 255 93 179 121 q 435 65 331 65 q 629 117 560 65 q 699 261 699 168 q 665 349 699 315 q 578 403 631 383 q 440 442 526 422 q 255 494 326 467 q 135 575 183 521 q 86 719 86 629 q 129 867 86 803 q 252 965 172 931 q 438 1000 332 1000 q 625 967 539 1000 q 774 871 711 935 l 738 803 q 596 894 668 865 q 438 924 524 924 q 242 869 313 924 q 172 721 172 815 q 233 599 172 639 q 413 531 294 558 l 453 521 q 629 469 564 494 q 740 394 694 444 q 786 261 786 344 q 743 119 786 181 q 620 23 700 57 q 435 -11 540 -11 m 393 1074 l 533 1283 l 638 1283 l 458 1074 l 393 1074 z "},"Ṥ":{"ha":851,"x_min":69,"x_max":786,"o":"m 435 -11 q 228 20 318 -11 q 69 118 139 51 l 106 186 q 255 93 179 121 q 435 65 331 65 q 629 117 560 65 q 699 261 699 168 q 665 349 699 315 q 578 403 631 383 q 440 442 526 422 q 255 494 326 467 q 135 575 183 521 q 86 719 86 629 q 129 867 86 803 q 252 965 172 931 q 438 1000 332 1000 q 625 967 539 1000 q 774 871 711 935 l 738 803 q 596 894 668 865 q 438 924 524 924 q 242 869 313 924 q 172 721 172 815 q 233 599 172 639 q 413 531 294 558 l 453 521 q 629 469 564 494 q 740 394 694 444 q 786 261 786 344 q 743 119 786 181 q 620 23 700 57 q 435 -11 540 -11 m 396 1074 l 536 1283 l 640 1283 l 461 1074 l 396 1074 m 328 1285 l 328 1176 l 215 1176 l 215 1285 l 328 1285 z "},"Š":{"ha":851,"x_min":69,"x_max":786,"o":"m 435 -11 q 228 20 318 -11 q 69 118 139 51 l 106 186 q 255 93 179 121 q 435 65 331 65 q 629 117 560 65 q 699 261 699 168 q 665 349 699 315 q 578 403 631 383 q 440 442 526 422 q 255 494 326 467 q 135 575 183 521 q 86 719 86 629 q 129 867 86 803 q 252 965 172 931 q 438 1000 332 1000 q 625 967 539 1000 q 774 871 711 935 l 738 803 q 596 894 668 865 q 438 924 524 924 q 242 869 313 924 q 172 721 172 815 q 233 599 172 639 q 413 531 294 558 l 453 521 q 629 469 564 494 q 740 394 694 444 q 786 261 786 344 q 743 119 786 181 q 620 23 700 57 q 435 -11 540 -11 m 619 1283 l 458 1074 l 393 1074 l 232 1283 l 319 1283 l 426 1132 l 532 1283 l 619 1283 z "},"Ṧ":{"ha":851,"x_min":69,"x_max":786,"o":"m 435 -11 q 228 20 318 -11 q 69 118 139 51 l 106 186 q 255 93 179 121 q 435 65 331 65 q 629 117 560 65 q 699 261 699 168 q 665 349 699 315 q 578 403 631 383 q 440 442 526 422 q 255 494 326 467 q 135 575 183 521 q 86 719 86 629 q 129 867 86 803 q 252 965 172 931 q 438 1000 332 1000 q 625 967 539 1000 q 774 871 711 935 l 738 803 q 596 894 668 865 q 438 924 524 924 q 242 869 313 924 q 172 721 172 815 q 233 599 172 639 q 413 531 294 558 l 453 521 q 629 469 564 494 q 740 394 694 444 q 786 261 786 344 q 743 119 786 181 q 620 23 700 57 q 435 -11 540 -11 m 619 1283 l 458 1074 l 393 1074 l 232 1283 l 319 1283 l 426 1132 l 532 1283 l 619 1283 m 482 1460 l 482 1351 l 369 1351 l 369 1460 l 482 1460 z "},"Ş":{"ha":851,"x_min":69,"x_max":786,"o":"m 786 261 q 745 122 786 182 q 629 26 704 61 q 453 -11 554 -8 l 447 -61 q 485 -57 467 -57 q 558 -82 526 -57 q 589 -154 589 -107 q 547 -236 589 -204 q 433 -268 506 -268 q 369 -262 403 -268 q 313 -242 336 -256 l 332 -187 q 436 -207 378 -207 q 497 -193 476 -207 q 517 -154 517 -179 q 504 -124 517 -135 q 467 -114 492 -114 q 399 -128 440 -114 l 372 -107 l 382 -10 q 208 28 285 -3 q 69 118 131 60 l 106 186 q 255 93 179 121 q 435 65 331 65 q 629 117 560 65 q 699 261 699 168 q 665 349 699 315 q 578 403 631 383 q 440 442 526 422 q 255 494 326 467 q 135 575 183 521 q 86 719 86 629 q 129 867 86 803 q 252 965 172 931 q 438 1000 332 1000 q 625 967 539 1000 q 774 871 711 935 l 738 803 q 596 894 668 865 q 438 924 524 924 q 242 869 313 924 q 172 721 172 815 q 233 599 172 639 q 413 531 294 558 l 453 521 q 629 469 564 494 q 740 394 694 444 q 786 261 786 344 z "},"Ŝ":{"ha":851,"x_min":69,"x_max":786,"o":"m 435 -11 q 228 20 318 -11 q 69 118 139 51 l 106 186 q 255 93 179 121 q 435 65 331 65 q 629 117 560 65 q 699 261 699 168 q 665 349 699 315 q 578 403 631 383 q 440 442 526 422 q 255 494 326 467 q 135 575 183 521 q 86 719 86 629 q 129 867 86 803 q 252 965 172 931 q 438 1000 332 1000 q 625 967 539 1000 q 774 871 711 935 l 738 803 q 596 894 668 865 q 438 924 524 924 q 242 869 313 924 q 172 721 172 815 q 233 599 172 639 q 413 531 294 558 l 453 521 q 629 469 564 494 q 740 394 694 444 q 786 261 786 344 q 743 119 786 181 q 620 23 700 57 q 435 -11 540 -11 m 232 1074 l 393 1283 l 458 1283 l 619 1074 l 532 1074 l 426 1225 l 319 1074 l 232 1074 z "},"Ș":{"ha":851,"x_min":69,"x_max":786,"o":"m 435 -11 q 228 20 318 -11 q 69 118 139 51 l 106 186 q 255 93 179 121 q 435 65 331 65 q 629 117 560 65 q 699 261 699 168 q 665 349 699 315 q 578 403 631 383 q 440 442 526 422 q 255 494 326 467 q 135 575 183 521 q 86 719 86 629 q 129 867 86 803 q 252 965 172 931 q 438 1000 332 1000 q 625 967 539 1000 q 774 871 711 935 l 738 803 q 596 894 668 865 q 438 924 524 924 q 242 869 313 924 q 172 721 172 815 q 233 599 172 639 q 413 531 294 558 l 453 521 q 629 469 564 494 q 740 394 694 444 q 786 261 786 344 q 743 119 786 181 q 620 23 700 57 q 435 -11 540 -11 m 490 -104 l 490 -182 q 475 -277 490 -235 q 422 -358 460 -319 l 378 -324 q 416 -267 406 -294 q 428 -207 426 -240 l 372 -207 l 372 -104 l 490 -104 z "},"Ṡ":{"ha":851,"x_min":69,"x_max":786,"o":"m 435 -11 q 228 20 318 -11 q 69 118 139 51 l 106 186 q 255 93 179 121 q 435 65 331 65 q 629 117 560 65 q 699 261 699 168 q 665 349 699 315 q 578 403 631 383 q 440 442 526 422 q 255 494 326 467 q 135 575 183 521 q 86 719 86 629 q 129 867 86 803 q 252 965 172 931 q 438 1000 332 1000 q 625 967 539 1000 q 774 871 711 935 l 738 803 q 596 894 668 865 q 438 924 524 924 q 242 869 313 924 q 172 721 172 815 q 233 599 172 639 q 413 531 294 558 l 453 521 q 629 469 564 494 q 740 394 694 444 q 786 261 786 344 q 743 119 786 181 q 620 23 700 57 q 435 -11 540 -11 m 482 1235 l 482 1126 l 369 1126 l 369 1235 l 482 1235 z "},"Ṣ":{"ha":851,"x_min":69,"x_max":786,"o":"m 435 -11 q 228 20 318 -11 q 69 118 139 51 l 106 186 q 255 93 179 121 q 435 65 331 65 q 629 117 560 65 q 699 261 699 168 q 665 349 699 315 q 578 403 631 383 q 440 442 526 422 q 255 494 326 467 q 135 575 183 521 q 86 719 86 629 q 129 867 86 803 q 252 965 172 931 q 438 1000 332 1000 q 625 967 539 1000 q 774 871 711 935 l 738 803 q 596 894 668 865 q 438 924 524 924 q 242 869 313 924 q 172 721 172 815 q 233 599 172 639 q 413 531 294 558 l 453 521 q 629 469 564 494 q 740 394 694 444 q 786 261 786 344 q 743 119 786 181 q 620 23 700 57 q 435 -11 540 -11 m 486 -142 l 486 -250 l 376 -250 l 376 -142 l 486 -142 z "},"Ṩ":{"ha":851,"x_min":69,"x_max":786,"o":"m 435 -11 q 228 20 318 -11 q 69 118 139 51 l 106 186 q 255 93 179 121 q 435 65 331 65 q 629 117 560 65 q 699 261 699 168 q 665 349 699 315 q 578 403 631 383 q 440 442 526 422 q 255 494 326 467 q 135 575 183 521 q 86 719 86 629 q 129 867 86 803 q 252 965 172 931 q 438 1000 332 1000 q 625 967 539 1000 q 774 871 711 935 l 738 803 q 596 894 668 865 q 438 924 524 924 q 242 869 313 924 q 172 721 172 815 q 233 599 172 639 q 413 531 294 558 l 453 521 q 629 469 564 494 q 740 394 694 444 q 786 261 786 344 q 743 119 786 181 q 620 23 700 57 q 435 -11 540 -11 m 486 -142 l 486 -250 l 376 -250 l 376 -142 l 486 -142 m 482 1235 l 482 1126 l 369 1126 l 369 1235 l 482 1235 z "},"ẞ":{"ha":957,"x_min":128,"x_max":865,"o":"m 657 515 q 811 431 757 494 q 865 269 865 367 q 828 124 865 188 q 722 25 790 60 q 564 -10 653 -10 q 426 14 492 -10 q 308 82 360 38 l 343 153 q 450 88 400 108 q 553 67 500 67 q 719 122 658 67 q 781 272 781 176 q 717 416 781 368 q 532 464 654 464 l 343 464 l 343 540 l 483 540 q 654 591 594 540 q 714 735 714 642 q 654 872 714 822 q 486 922 594 922 q 281 853 347 922 q 214 638 214 783 l 214 0 l 128 0 l 128 647 q 488 999 128 999 q 717 928 632 999 q 801 738 801 858 q 764 599 801 657 q 657 515 726 542 z "},"Ə":{"ha":1032,"x_min":90,"x_max":942,"o":"m 483 1000 q 727 940 624 1000 q 886 765 831 879 q 942 496 942 651 q 890 226 942 340 q 742 51 838 113 q 517 -11 646 -11 q 290 49 386 -11 q 142 223 194 110 q 90 490 90 336 l 90 540 l 851 540 q 745 825 840 725 q 485 925 650 925 q 168 803 304 925 l 132 871 q 288 966 196 932 q 483 1000 381 1000 m 517 65 q 757 169 669 65 q 853 463 844 274 l 178 463 q 274 169 186 274 q 517 65 363 65 z "},"T":{"ha":828,"x_min":17,"x_max":811,"o":"m 371 914 l 17 914 l 17 989 l 811 989 l 811 914 l 457 914 l 457 0 l 371 0 l 371 914 z "},"Ŧ":{"ha":828,"x_min":17,"x_max":811,"o":"m 457 914 l 457 538 l 660 538 l 660 465 l 457 465 l 457 0 l 371 0 l 371 465 l 168 465 l 168 538 l 371 538 l 371 914 l 17 914 l 17 989 l 811 989 l 811 914 l 457 914 z "},"Ť":{"ha":828,"x_min":17,"x_max":811,"o":"m 371 914 l 17 914 l 17 989 l 811 989 l 811 914 l 457 914 l 457 0 l 371 0 l 371 914 m 607 1283 l 446 1074 l 381 1074 l 219 1283 l 307 1283 l 414 1132 l 519 1283 l 607 1283 z "},"Ţ":{"ha":828,"x_min":17,"x_max":811,"o":"m 436 0 l 429 -61 q 467 -57 449 -57 q 540 -82 508 -57 q 571 -154 571 -107 q 529 -236 571 -204 q 415 -268 488 -268 q 351 -262 385 -268 q 294 -242 318 -256 l 314 -187 q 418 -207 360 -207 q 478 -193 458 -207 q 499 -154 499 -179 q 486 -124 499 -135 q 449 -114 474 -114 q 381 -128 422 -114 l 354 -107 l 368 28 l 371 28 l 371 914 l 17 914 l 17 989 l 811 989 l 811 914 l 457 914 l 457 0 l 436 0 z "},"Ț":{"ha":828,"x_min":17,"x_max":811,"o":"m 371 914 l 17 914 l 17 989 l 811 989 l 811 914 l 457 914 l 457 0 l 371 0 l 371 914 m 472 -104 l 472 -182 q 457 -277 472 -235 q 404 -358 442 -319 l 360 -324 q 398 -267 388 -294 q 410 -207 408 -240 l 354 -207 l 354 -104 l 472 -104 z "},"Ṭ":{"ha":828,"x_min":17,"x_max":811,"o":"m 371 914 l 17 914 l 17 989 l 811 989 l 811 914 l 457 914 l 457 0 l 371 0 l 371 914 m 468 -142 l 468 -250 l 358 -250 l 358 -142 l 468 -142 z "},"Ṯ":{"ha":828,"x_min":17,"x_max":811,"o":"m 371 914 l 17 914 l 17 989 l 811 989 l 811 914 l 457 914 l 457 0 l 371 0 l 371 914 m 206 -160 l 621 -160 l 621 -232 l 206 -232 l 206 -160 z "},"U":{"ha":1008,"x_min":121,"x_max":888,"o":"m 506 -11 q 219 88 317 -11 q 121 381 121 188 l 121 989 l 207 989 l 207 371 q 506 65 207 65 q 727 142 651 65 q 803 371 803 219 l 803 989 l 888 989 l 888 381 q 790 88 888 188 q 506 -11 693 -11 z "},"Ú":{"ha":1008,"x_min":121,"x_max":888,"o":"m 506 -11 q 219 88 317 -11 q 121 381 121 188 l 121 989 l 207 989 l 207 371 q 506 65 207 65 q 727 142 651 65 q 803 371 803 219 l 803 989 l 888 989 l 888 381 q 790 88 888 188 q 506 -11 693 -11 m 472 1074 l 613 1283 l 717 1283 l 538 1074 l 472 1074 z "},"Ŭ":{"ha":1008,"x_min":121,"x_max":888,"o":"m 506 -11 q 219 88 317 -11 q 121 381 121 188 l 121 989 l 207 989 l 207 371 q 506 65 207 65 q 727 142 651 65 q 803 371 803 219 l 803 989 l 888 989 l 888 381 q 790 88 888 188 q 506 -11 693 -11 m 506 1092 q 372 1126 431 1092 q 283 1239 314 1161 l 346 1267 q 417 1183 381 1206 q 506 1160 454 1160 q 592 1183 556 1160 q 664 1267 629 1206 l 726 1239 q 506 1092 668 1092 z "},"Û":{"ha":1008,"x_min":121,"x_max":888,"o":"m 506 -11 q 219 88 317 -11 q 121 381 121 188 l 121 989 l 207 989 l 207 371 q 506 65 207 65 q 727 142 651 65 q 803 371 803 219 l 803 989 l 888 989 l 888 381 q 790 88 888 188 q 506 -11 693 -11 m 311 1074 l 472 1283 l 538 1283 l 699 1074 l 611 1074 l 506 1225 l 399 1074 l 311 1074 z "},"Ȕ":{"ha":1008,"x_min":121,"x_max":888,"o":"m 506 -11 q 219 88 317 -11 q 121 381 121 188 l 121 989 l 207 989 l 207 371 q 506 65 207 65 q 727 142 651 65 q 803 371 803 219 l 803 989 l 888 989 l 888 381 q 790 88 888 188 q 506 -11 693 -11 m 264 1283 l 350 1283 l 450 1074 l 400 1074 l 264 1283 m 424 1283 l 511 1283 l 610 1074 l 560 1074 l 424 1283 z "},"Ü":{"ha":1008,"x_min":121,"x_max":888,"o":"m 506 -11 q 219 88 317 -11 q 121 381 121 188 l 121 989 l 207 989 l 207 371 q 506 65 207 65 q 727 142 651 65 q 803 371 803 219 l 803 989 l 888 989 l 888 381 q 790 88 888 188 q 506 -11 693 -11 m 440 1231 l 440 1129 l 336 1129 l 336 1231 l 440 1231 m 674 1231 l 674 1129 l 569 1129 l 569 1231 l 674 1231 z "},"Ụ":{"ha":1008,"x_min":121,"x_max":888,"o":"m 506 -11 q 219 88 317 -11 q 121 381 121 188 l 121 989 l 207 989 l 207 371 q 506 65 207 65 q 727 142 651 65 q 803 371 803 219 l 803 989 l 888 989 l 888 381 q 790 88 888 188 q 506 -11 693 -11 m 560 -142 l 560 -250 l 450 -250 l 450 -142 l 560 -142 z "},"Ù":{"ha":1008,"x_min":121,"x_max":888,"o":"m 506 -11 q 219 88 317 -11 q 121 381 121 188 l 121 989 l 207 989 l 207 371 q 506 65 207 65 q 727 142 651 65 q 803 371 803 219 l 803 989 l 888 989 l 888 381 q 790 88 888 188 q 506 -11 693 -11 m 293 1283 l 397 1283 l 538 1074 l 472 1074 l 293 1283 z "},"Ủ":{"ha":1008,"x_min":121,"x_max":888,"o":"m 506 -11 q 219 88 317 -11 q 121 381 121 188 l 121 989 l 207 989 l 207 371 q 506 65 207 65 q 727 142 651 65 q 803 371 803 219 l 803 989 l 888 989 l 888 381 q 790 88 888 188 q 506 -11 693 -11 m 539 1074 l 472 1074 l 472 1096 q 488 1135 472 1119 q 531 1164 504 1150 q 559 1183 550 1175 q 568 1200 568 1190 q 552 1221 568 1214 q 507 1228 536 1228 q 421 1211 465 1228 l 401 1267 q 511 1290 456 1290 q 610 1266 574 1290 q 646 1201 646 1242 q 629 1158 646 1174 q 582 1128 613 1143 q 549 1106 558 1114 q 539 1086 539 1099 l 539 1074 z "},"Ư":{"ha":1008,"x_min":121,"x_max":1054,"o":"m 1054 1165 l 1054 1133 q 1011 997 1054 1049 q 888 932 968 944 l 888 381 q 790 88 888 188 q 506 -11 693 -11 q 219 88 317 -11 q 121 381 121 188 l 121 989 l 207 989 l 207 371 q 506 65 207 65 q 727 142 651 65 q 803 371 803 219 l 803 989 l 828 989 q 942 1026 907 990 q 976 1146 976 1063 l 976 1165 l 1054 1165 z "},"Ứ":{"ha":1008,"x_min":121,"x_max":1054,"o":"m 1054 1165 l 1054 1133 q 1011 997 1054 1049 q 888 932 968 944 l 888 381 q 790 88 888 188 q 506 -11 693 -11 q 219 88 317 -11 q 121 381 121 188 l 121 989 l 207 989 l 207 371 q 506 65 207 65 q 727 142 651 65 q 803 371 803 219 l 803 989 l 828 989 q 942 1026 907 990 q 976 1146 976 1063 l 976 1165 l 1054 1165 m 472 1074 l 613 1283 l 717 1283 l 538 1074 l 472 1074 z "},"Ự":{"ha":1008,"x_min":121,"x_max":1054,"o":"m 1054 1165 l 1054 1133 q 1011 997 1054 1049 q 888 932 968 944 l 888 381 q 790 88 888 188 q 506 -11 693 -11 q 219 88 317 -11 q 121 381 121 188 l 121 989 l 207 989 l 207 371 q 506 65 207 65 q 727 142 651 65 q 803 371 803 219 l 803 989 l 828 989 q 942 1026 907 990 q 976 1146 976 1063 l 976 1165 l 1054 1165 m 560 -142 l 560 -250 l 450 -250 l 450 -142 l 560 -142 z "},"Ừ":{"ha":1008,"x_min":121,"x_max":1054,"o":"m 1054 1165 l 1054 1133 q 1011 997 1054 1049 q 888 932 968 944 l 888 381 q 790 88 888 188 q 506 -11 693 -11 q 219 88 317 -11 q 121 381 121 188 l 121 989 l 207 989 l 207 371 q 506 65 207 65 q 727 142 651 65 q 803 371 803 219 l 803 989 l 828 989 q 942 1026 907 990 q 976 1146 976 1063 l 976 1165 l 1054 1165 m 293 1283 l 397 1283 l 538 1074 l 472 1074 l 293 1283 z "},"Ử":{"ha":1008,"x_min":121,"x_max":1054,"o":"m 1054 1165 l 1054 1133 q 1011 997 1054 1049 q 888 932 968 944 l 888 381 q 790 88 888 188 q 506 -11 693 -11 q 219 88 317 -11 q 121 381 121 188 l 121 989 l 207 989 l 207 371 q 506 65 207 65 q 727 142 651 65 q 803 371 803 219 l 803 989 l 828 989 q 942 1026 907 990 q 976 1146 976 1063 l 976 1165 l 1054 1165 m 539 1074 l 472 1074 l 472 1096 q 488 1135 472 1119 q 531 1164 504 1150 q 559 1183 550 1175 q 568 1200 568 1190 q 552 1221 568 1214 q 507 1228 536 1228 q 421 1211 465 1228 l 401 1267 q 511 1290 456 1290 q 610 1266 574 1290 q 646 1201 646 1242 q 629 1158 646 1174 q 582 1128 613 1143 q 549 1106 558 1114 q 539 1086 539 1099 l 539 1074 z "},"Ữ":{"ha":1008,"x_min":121,"x_max":1054,"o":"m 1054 1165 l 1054 1133 q 1011 997 1054 1049 q 888 932 968 944 l 888 381 q 790 88 888 188 q 506 -11 693 -11 q 219 88 317 -11 q 121 381 121 188 l 121 989 l 207 989 l 207 371 q 506 65 207 65 q 727 142 651 65 q 803 371 803 219 l 803 989 l 828 989 q 942 1026 907 990 q 976 1146 976 1063 l 976 1165 l 1054 1165 m 285 1110 q 316 1217 285 1178 q 403 1257 347 1257 q 458 1245 432 1257 q 522 1210 485 1233 q 569 1183 551 1192 q 604 1174 588 1174 q 653 1197 636 1174 q 671 1253 671 1221 l 725 1253 q 694 1144 725 1183 q 607 1106 663 1106 q 551 1117 578 1106 q 488 1151 524 1129 q 439 1178 456 1171 q 406 1186 422 1186 q 356 1164 374 1186 q 339 1110 339 1142 l 285 1110 z "},"Ű":{"ha":1008,"x_min":121,"x_max":888,"o":"m 506 -11 q 219 88 317 -11 q 121 381 121 188 l 121 989 l 207 989 l 207 371 q 506 65 207 65 q 727 142 651 65 q 803 371 803 219 l 803 989 l 888 989 l 888 381 q 790 88 888 188 q 506 -11 693 -11 m 499 1283 l 586 1283 l 450 1074 l 400 1074 l 499 1283 m 660 1283 l 746 1283 l 610 1074 l 560 1074 l 660 1283 z "},"Ȗ":{"ha":1008,"x_min":121,"x_max":888,"o":"m 506 -11 q 219 88 317 -11 q 121 381 121 188 l 121 989 l 207 989 l 207 371 q 506 65 207 65 q 727 142 651 65 q 803 371 803 219 l 803 989 l 888 989 l 888 381 q 790 88 888 188 q 506 -11 693 -11 m 506 1268 q 638 1233 579 1268 q 726 1119 696 1197 l 664 1093 q 592 1177 629 1154 q 506 1200 556 1200 q 417 1177 454 1200 q 346 1093 381 1154 l 283 1119 q 373 1233 315 1199 q 506 1268 431 1268 z "},"Ū":{"ha":1008,"x_min":121,"x_max":888,"o":"m 506 -11 q 219 88 317 -11 q 121 381 121 188 l 121 989 l 207 989 l 207 371 q 506 65 207 65 q 727 142 651 65 q 803 371 803 219 l 803 989 l 888 989 l 888 381 q 790 88 888 188 q 506 -11 693 -11 m 297 1217 l 713 1217 l 713 1144 l 297 1144 l 297 1217 z "},"Ṻ":{"ha":1008,"x_min":121,"x_max":888,"o":"m 506 -11 q 219 88 317 -11 q 121 381 121 188 l 121 989 l 207 989 l 207 371 q 506 65 207 65 q 727 142 651 65 q 803 371 803 219 l 803 989 l 888 989 l 888 381 q 790 88 888 188 q 506 -11 693 -11 m 297 1217 l 713 1217 l 713 1144 l 297 1144 l 297 1217 m 440 1456 l 440 1354 l 336 1354 l 336 1456 l 440 1456 m 674 1456 l 674 1354 l 569 1354 l 569 1456 l 674 1456 z "},"Ų":{"ha":1008,"x_min":121,"x_max":888,"o":"m 888 989 l 888 381 q 829 138 888 231 q 656 8 771 44 q 565 -40 593 -11 q 536 -114 536 -69 q 561 -180 536 -156 q 629 -204 586 -204 q 713 -179 665 -204 l 735 -237 q 621 -268 686 -268 q 506 -228 550 -268 q 461 -124 461 -187 q 514 -11 461 -53 l 506 -11 q 219 88 317 -11 q 121 381 121 188 l 121 989 l 207 989 l 207 371 q 506 65 207 65 q 727 142 651 65 q 803 371 803 219 l 803 989 l 888 989 z "},"Ů":{"ha":1008,"x_min":121,"x_max":888,"o":"m 506 -11 q 219 88 317 -11 q 121 381 121 188 l 121 989 l 207 989 l 207 371 q 506 65 207 65 q 727 142 651 65 q 803 371 803 219 l 803 989 l 888 989 l 888 381 q 790 88 888 188 q 506 -11 693 -11 m 506 1067 q 407 1106 447 1067 q 367 1203 367 1144 q 408 1299 367 1258 q 506 1339 449 1339 q 603 1299 563 1339 q 643 1203 643 1258 q 603 1106 643 1144 q 506 1067 563 1067 m 506 1129 q 556 1150 536 1129 q 575 1203 575 1171 q 556 1253 575 1233 q 506 1274 536 1274 q 455 1253 475 1274 q 435 1203 435 1233 q 455 1150 435 1171 q 506 1129 475 1129 z "},"Ũ":{"ha":1008,"x_min":121,"x_max":888,"o":"m 506 -11 q 219 88 317 -11 q 121 381 121 188 l 121 989 l 207 989 l 207 371 q 506 65 207 65 q 727 142 651 65 q 803 371 803 219 l 803 989 l 888 989 l 888 381 q 790 88 888 188 q 506 -11 693 -11 m 285 1110 q 316 1217 285 1178 q 403 1257 347 1257 q 458 1245 432 1257 q 522 1210 485 1233 q 569 1183 551 1192 q 604 1174 588 1174 q 653 1197 636 1174 q 671 1253 671 1221 l 725 1253 q 694 1144 725 1183 q 607 1106 663 1106 q 551 1117 578 1106 q 488 1151 524 1129 q 439 1178 456 1171 q 406 1186 422 1186 q 356 1164 374 1186 q 339 1110 339 1142 l 285 1110 z "},"Ṹ":{"ha":1008,"x_min":121,"x_max":888,"o":"m 506 -11 q 219 88 317 -11 q 121 381 121 188 l 121 989 l 207 989 l 207 371 q 506 65 207 65 q 727 142 651 65 q 803 371 803 219 l 803 989 l 888 989 l 888 381 q 790 88 888 188 q 506 -11 693 -11 m 285 1110 q 316 1217 285 1178 q 403 1257 347 1257 q 458 1245 432 1257 q 522 1210 485 1233 q 569 1183 551 1192 q 604 1174 588 1174 q 653 1197 636 1174 q 671 1253 671 1221 l 725 1253 q 694 1144 725 1183 q 607 1106 663 1106 q 551 1117 578 1106 q 488 1151 524 1129 q 439 1178 456 1171 q 406 1186 422 1186 q 356 1164 374 1186 q 339 1110 339 1142 l 285 1110 m 472 1299 l 613 1508 l 717 1508 l 538 1299 l 472 1299 z "},"V":{"ha":954,"x_min":10,"x_max":944,"o":"m 944 989 l 517 0 l 438 0 l 10 989 l 100 989 l 478 111 l 856 989 l 944 989 z "},"W":{"ha":1538,"x_min":53,"x_max":1486,"o":"m 1486 989 l 1142 0 l 1067 0 l 769 851 l 471 0 l 397 0 l 53 989 l 139 989 l 436 119 l 736 989 l 804 988 l 1103 122 l 1400 989 l 1486 989 z "},"Ẃ":{"ha":1538,"x_min":53,"x_max":1486,"o":"m 1486 989 l 1142 0 l 1067 0 l 769 851 l 471 0 l 397 0 l 53 989 l 139 989 l 436 119 l 736 989 l 804 988 l 1103 122 l 1400 989 l 1486 989 m 735 1074 l 875 1283 l 979 1283 l 800 1074 l 735 1074 z "},"Ŵ":{"ha":1538,"x_min":53,"x_max":1486,"o":"m 1486 989 l 1142 0 l 1067 0 l 769 851 l 471 0 l 397 0 l 53 989 l 139 989 l 436 119 l 736 989 l 804 988 l 1103 122 l 1400 989 l 1486 989 m 574 1074 l 735 1283 l 800 1283 l 961 1074 l 874 1074 l 768 1225 l 661 1074 l 574 1074 z "},"Ẅ":{"ha":1538,"x_min":53,"x_max":1486,"o":"m 1486 989 l 1142 0 l 1067 0 l 769 851 l 471 0 l 397 0 l 53 989 l 139 989 l 436 119 l 736 989 l 804 988 l 1103 122 l 1400 989 l 1486 989 m 703 1231 l 703 1129 l 599 1129 l 599 1231 l 703 1231 m 936 1231 l 936 1129 l 832 1129 l 832 1231 l 936 1231 z "},"Ẁ":{"ha":1538,"x_min":53,"x_max":1486,"o":"m 1486 989 l 1142 0 l 1067 0 l 769 851 l 471 0 l 397 0 l 53 989 l 139 989 l 436 119 l 736 989 l 804 988 l 1103 122 l 1400 989 l 1486 989 m 556 1283 l 660 1283 l 800 1074 l 735 1074 l 556 1283 z "},"X":{"ha":894,"x_min":22,"x_max":872,"o":"m 872 0 l 771 0 l 447 440 l 126 0 l 22 0 l 399 508 l 43 989 l 144 989 l 449 572 l 753 989 l 853 989 l 497 507 l 872 0 z "},"Y":{"ha":829,"x_min":-11,"x_max":839,"o":"m 457 407 l 457 0 l 371 0 l 371 410 l -11 989 l 89 989 l 415 485 l 742 989 l 839 989 l 457 407 z "},"Ý":{"ha":829,"x_min":-11,"x_max":839,"o":"m 457 407 l 457 0 l 371 0 l 371 410 l -11 989 l 89 989 l 415 485 l 742 989 l 839 989 l 457 407 m 381 1074 l 521 1283 l 625 1283 l 446 1074 l 381 1074 z "},"Ŷ":{"ha":829,"x_min":-11,"x_max":839,"o":"m 457 407 l 457 0 l 371 0 l 371 410 l -11 989 l 89 989 l 415 485 l 742 989 l 839 989 l 457 407 m 219 1074 l 381 1283 l 446 1283 l 607 1074 l 519 1074 l 414 1225 l 307 1074 l 219 1074 z "},"Ÿ":{"ha":829,"x_min":-11,"x_max":839,"o":"m 457 407 l 457 0 l 371 0 l 371 410 l -11 989 l 89 989 l 415 485 l 742 989 l 839 989 l 457 407 m 349 1231 l 349 1129 l 244 1129 l 244 1231 l 349 1231 m 582 1231 l 582 1129 l 478 1129 l 478 1231 l 582 1231 z "},"Ẏ":{"ha":829,"x_min":-11,"x_max":839,"o":"m 457 407 l 457 0 l 371 0 l 371 410 l -11 989 l 89 989 l 415 485 l 742 989 l 839 989 l 457 407 m 469 1235 l 469 1126 l 357 1126 l 357 1235 l 469 1235 z "},"Ỵ":{"ha":829,"x_min":-11,"x_max":839,"o":"m 457 407 l 457 0 l 371 0 l 371 410 l -11 989 l 89 989 l 415 485 l 742 989 l 839 989 l 457 407 m 468 -142 l 468 -250 l 358 -250 l 358 -142 l 468 -142 z "},"Ỳ":{"ha":829,"x_min":-11,"x_max":839,"o":"m 457 407 l 457 0 l 371 0 l 371 410 l -11 989 l 89 989 l 415 485 l 742 989 l 839 989 l 457 407 m 201 1283 l 306 1283 l 446 1074 l 381 1074 l 201 1283 z "},"Ỷ":{"ha":829,"x_min":-11,"x_max":839,"o":"m 457 407 l 457 0 l 371 0 l 371 410 l -11 989 l 89 989 l 415 485 l 742 989 l 839 989 l 457 407 m 447 1074 l 381 1074 l 381 1096 q 397 1135 381 1119 q 439 1164 413 1150 q 467 1183 458 1175 q 476 1200 476 1190 q 460 1221 476 1214 q 415 1228 444 1228 q 329 1211 374 1228 l 310 1267 q 419 1290 364 1290 q 518 1266 482 1290 q 554 1201 554 1242 q 538 1158 554 1174 q 490 1128 521 1143 q 457 1106 467 1114 q 447 1086 447 1099 l 447 1074 z "},"Ȳ":{"ha":829,"x_min":-11,"x_max":839,"o":"m 457 407 l 457 0 l 371 0 l 371 410 l -11 989 l 89 989 l 415 485 l 742 989 l 839 989 l 457 407 m 206 1217 l 621 1217 l 621 1144 l 206 1144 l 206 1217 z "},"Ỹ":{"ha":829,"x_min":-11,"x_max":839,"o":"m 457 407 l 457 0 l 371 0 l 371 410 l -11 989 l 89 989 l 415 485 l 742 989 l 839 989 l 457 407 m 193 1110 q 224 1217 193 1178 q 311 1257 256 1257 q 367 1245 340 1257 q 431 1210 393 1233 q 478 1183 460 1192 q 513 1174 496 1174 q 562 1197 544 1174 q 579 1253 579 1221 l 633 1253 q 602 1144 633 1183 q 515 1106 571 1106 q 459 1117 486 1106 q 396 1151 432 1129 q 347 1178 364 1171 q 314 1186 331 1186 q 265 1164 282 1186 q 247 1110 247 1142 l 193 1110 z "},"Z":{"ha":819,"x_min":61,"x_max":767,"o":"m 767 74 l 767 0 l 61 0 l 61 63 l 653 915 l 61 915 l 61 989 l 753 989 l 753 926 l 161 74 l 767 74 z "},"Ź":{"ha":819,"x_min":61,"x_max":767,"o":"m 767 74 l 767 0 l 61 0 l 61 63 l 653 915 l 61 915 l 61 989 l 753 989 l 753 926 l 161 74 l 767 74 m 375 1074 l 515 1283 l 619 1283 l 440 1074 l 375 1074 z "},"Ž":{"ha":819,"x_min":61,"x_max":767,"o":"m 767 74 l 767 0 l 61 0 l 61 63 l 653 915 l 61 915 l 61 989 l 753 989 l 753 926 l 161 74 l 767 74 m 601 1283 l 440 1074 l 375 1074 l 214 1283 l 301 1283 l 408 1132 l 514 1283 l 601 1283 z "},"Ż":{"ha":819,"x_min":61,"x_max":767,"o":"m 767 74 l 767 0 l 61 0 l 61 63 l 653 915 l 61 915 l 61 989 l 753 989 l 753 926 l 161 74 l 767 74 m 464 1235 l 464 1126 l 351 1126 l 351 1235 l 464 1235 z "},"Ẓ":{"ha":819,"x_min":61,"x_max":767,"o":"m 767 74 l 767 0 l 61 0 l 61 63 l 653 915 l 61 915 l 61 989 l 753 989 l 753 926 l 161 74 l 767 74 m 472 -142 l 472 -250 l 363 -250 l 363 -142 l 472 -142 z "},"a":{"ha":821,"x_min":71,"x_max":706,"o":"m 706 696 l 706 0 l 621 0 l 621 133 q 528 27 590 64 q 381 -10 467 -10 q 217 34 288 -10 q 109 159 147 78 q 71 349 71 240 q 110 540 71 457 q 219 667 149 622 q 381 713 289 713 q 527 676 465 713 q 621 571 589 640 l 621 696 l 706 696 m 393 65 q 561 140 501 65 q 621 351 621 215 q 561 564 621 489 q 392 639 501 639 q 221 562 282 639 q 160 349 160 485 q 221 140 160 214 q 393 65 282 65 z "},"á":{"ha":821,"x_min":71,"x_max":706,"o":"m 706 696 l 706 0 l 621 0 l 621 133 q 528 27 590 64 q 381 -10 467 -10 q 217 34 288 -10 q 109 159 147 78 q 71 349 71 240 q 110 540 71 457 q 219 667 149 622 q 381 713 289 713 q 527 676 465 713 q 621 571 589 640 l 621 696 l 706 696 m 393 65 q 561 140 501 65 q 621 351 621 215 q 561 564 621 489 q 392 639 501 639 q 221 562 282 639 q 160 349 160 485 q 221 140 160 214 q 393 65 282 65 m 378 788 l 518 1069 l 626 1069 l 443 788 l 378 788 z "},"ă":{"ha":821,"x_min":71,"x_max":706,"o":"m 706 696 l 706 0 l 621 0 l 621 133 q 528 27 590 64 q 381 -10 467 -10 q 217 34 288 -10 q 109 159 147 78 q 71 349 71 240 q 110 540 71 457 q 219 667 149 622 q 381 713 289 713 q 527 676 465 713 q 621 571 589 640 l 621 696 l 706 696 m 393 65 q 561 140 501 65 q 621 351 621 215 q 561 564 621 489 q 392 639 501 639 q 221 562 282 639 q 160 349 160 485 q 221 140 160 214 q 393 65 282 65 m 411 833 q 278 874 338 833 q 188 1001 218 915 l 251 1029 q 322 931 282 961 q 411 901 361 901 q 499 931 460 901 q 569 1029 539 961 l 633 1003 q 544 874 604 915 q 411 833 485 833 z "},"ắ":{"ha":821,"x_min":71,"x_max":706,"o":"m 706 696 l 706 0 l 621 0 l 621 133 q 528 27 590 64 q 381 -10 467 -10 q 217 34 288 -10 q 109 159 147 78 q 71 349 71 240 q 110 540 71 457 q 219 667 149 622 q 381 713 289 713 q 527 676 465 713 q 621 571 589 640 l 621 696 l 706 696 m 393 65 q 561 140 501 65 q 621 351 621 215 q 561 564 621 489 q 392 639 501 639 q 221 562 282 639 q 160 349 160 485 q 221 140 160 214 q 393 65 282 65 m 379 931 l 518 1129 l 622 1129 l 442 931 l 379 931 m 411 779 q 278 815 336 779 q 189 929 219 850 l 250 956 q 322 872 283 894 q 411 849 360 849 q 500 872 463 849 q 571 956 538 894 l 632 929 q 542 815 600 850 q 411 779 485 779 z "},"ặ":{"ha":821,"x_min":71,"x_max":706,"o":"m 706 696 l 706 0 l 621 0 l 621 133 q 528 27 590 64 q 381 -10 467 -10 q 217 34 288 -10 q 109 159 147 78 q 71 349 71 240 q 110 540 71 457 q 219 667 149 622 q 381 713 289 713 q 527 676 465 713 q 621 571 589 640 l 621 696 l 706 696 m 393 65 q 561 140 501 65 q 621 351 621 215 q 561 564 621 489 q 392 639 501 639 q 221 562 282 639 q 160 349 160 485 q 221 140 160 214 q 393 65 282 65 m 465 -142 l 465 -250 l 356 -250 l 356 -142 l 465 -142 m 411 833 q 278 874 338 833 q 188 1001 218 915 l 251 1029 q 322 931 282 961 q 411 901 361 901 q 499 931 460 901 q 569 1029 539 961 l 633 1003 q 544 874 604 915 q 411 833 485 833 z "},"ằ":{"ha":821,"x_min":71,"x_max":706,"o":"m 706 696 l 706 0 l 621 0 l 621 133 q 528 27 590 64 q 381 -10 467 -10 q 217 34 288 -10 q 109 159 147 78 q 71 349 71 240 q 110 540 71 457 q 219 667 149 622 q 381 713 289 713 q 527 676 465 713 q 621 571 589 640 l 621 696 l 706 696 m 393 65 q 561 140 501 65 q 621 351 621 215 q 561 564 621 489 q 392 639 501 639 q 221 562 282 639 q 160 349 160 485 q 221 140 160 214 q 393 65 282 65 m 199 1129 l 303 1129 l 442 931 l 379 931 l 199 1129 m 411 779 q 278 815 336 779 q 189 929 221 850 l 250 956 q 322 872 283 894 q 411 849 360 849 q 500 872 463 849 q 571 956 538 894 l 632 929 q 543 815 601 850 q 411 779 485 779 z "},"ẳ":{"ha":821,"x_min":71,"x_max":706,"o":"m 706 696 l 706 0 l 621 0 l 621 133 q 528 27 590 64 q 381 -10 467 -10 q 217 34 288 -10 q 109 159 147 78 q 71 349 71 240 q 110 540 71 457 q 219 667 149 622 q 381 713 289 713 q 527 676 465 713 q 621 571 589 640 l 621 696 l 706 696 m 393 65 q 561 140 501 65 q 621 351 621 215 q 561 564 621 489 q 392 639 501 639 q 221 562 282 639 q 160 349 160 485 q 221 140 160 214 q 393 65 282 65 m 444 931 l 378 931 l 378 953 q 393 990 378 976 q 436 1014 408 1003 q 465 1028 456 1022 q 474 1044 474 1035 q 457 1066 474 1058 q 413 1074 440 1074 q 326 1056 369 1074 l 307 1113 q 417 1136 361 1136 q 515 1112 479 1136 q 551 1046 551 1088 q 536 1010 551 1022 q 490 982 521 997 q 456 964 468 972 q 444 943 444 956 l 444 931 m 411 779 q 278 815 336 779 q 189 929 221 850 l 250 956 q 322 872 283 894 q 411 849 360 849 q 500 872 463 849 q 571 956 538 894 l 632 929 q 543 815 601 850 q 411 779 485 779 z "},"ẵ":{"ha":821,"x_min":71,"x_max":706,"o":"m 706 696 l 706 0 l 621 0 l 621 133 q 528 27 590 64 q 381 -10 467 -10 q 217 34 288 -10 q 109 159 147 78 q 71 349 71 240 q 110 540 71 457 q 219 667 149 622 q 381 713 289 713 q 527 676 465 713 q 621 571 589 640 l 621 696 l 706 696 m 393 65 q 561 140 501 65 q 621 351 621 215 q 561 564 621 489 q 392 639 501 639 q 221 562 282 639 q 160 349 160 485 q 221 140 160 214 q 393 65 282 65 m 190 997 q 222 1101 190 1063 q 308 1140 253 1140 q 365 1128 338 1140 q 428 1094 392 1117 q 476 1067 460 1075 q 510 1060 493 1060 q 559 1083 542 1060 q 576 1136 576 1106 l 631 1136 q 599 1032 631 1071 q 513 993 567 993 q 456 1005 483 993 q 393 1039 429 1017 q 344 1066 361 1058 q 311 1074 328 1074 q 262 1051 279 1074 q 244 997 244 1029 l 190 997 m 411 779 q 278 815 336 779 q 189 929 221 850 l 250 956 q 322 872 283 894 q 411 849 360 849 q 500 872 463 849 q 571 956 538 894 l 632 929 q 543 815 601 850 q 411 779 485 779 z "},"ǎ":{"ha":821,"x_min":71,"x_max":706,"o":"m 706 696 l 706 0 l 621 0 l 621 133 q 528 27 590 64 q 381 -10 467 -10 q 217 34 288 -10 q 109 159 147 78 q 71 349 71 240 q 110 540 71 457 q 219 667 149 622 q 381 713 289 713 q 527 676 465 713 q 621 571 589 640 l 621 696 l 706 696 m 393 65 q 561 140 501 65 q 621 351 621 215 q 561 564 621 489 q 392 639 501 639 q 221 562 282 639 q 160 349 160 485 q 221 140 160 214 q 393 65 282 65 m 604 1069 l 444 788 l 376 788 l 217 1069 l 304 1069 l 411 857 l 517 1069 l 604 1069 z "},"â":{"ha":821,"x_min":71,"x_max":706,"o":"m 706 696 l 706 0 l 621 0 l 621 133 q 528 27 590 64 q 381 -10 467 -10 q 217 34 288 -10 q 109 159 147 78 q 71 349 71 240 q 110 540 71 457 q 219 667 149 622 q 381 713 289 713 q 527 676 465 713 q 621 571 589 640 l 621 696 l 706 696 m 393 65 q 561 140 501 65 q 621 351 621 215 q 561 564 621 489 q 392 639 501 639 q 221 562 282 639 q 160 349 160 485 q 221 140 160 214 q 393 65 282 65 m 217 788 l 376 1069 l 444 1069 l 604 788 l 517 788 l 411 999 l 304 788 l 217 788 z "},"ấ":{"ha":821,"x_min":71,"x_max":764,"o":"m 706 696 l 706 0 l 621 0 l 621 133 q 528 27 590 64 q 381 -10 467 -10 q 217 34 288 -10 q 109 159 147 78 q 71 349 71 240 q 110 540 71 457 q 219 667 149 622 q 381 713 289 713 q 527 676 465 713 q 621 571 589 640 l 621 696 l 706 696 m 393 65 q 561 140 501 65 q 621 351 621 215 q 561 564 621 489 q 392 639 501 639 q 221 562 282 639 q 160 349 160 485 q 221 140 160 214 q 393 65 282 65 m 525 931 l 661 1129 l 764 1129 l 585 931 l 525 931 m 217 788 l 378 997 l 443 997 l 604 788 l 517 788 l 411 938 l 304 788 l 217 788 z "},"ậ":{"ha":821,"x_min":71,"x_max":706,"o":"m 706 696 l 706 0 l 621 0 l 621 133 q 528 27 590 64 q 381 -10 467 -10 q 217 34 288 -10 q 109 159 147 78 q 71 349 71 240 q 110 540 71 457 q 219 667 149 622 q 381 713 289 713 q 527 676 465 713 q 621 571 589 640 l 621 696 l 706 696 m 393 65 q 561 140 501 65 q 621 351 621 215 q 561 564 621 489 q 392 639 501 639 q 221 562 282 639 q 160 349 160 485 q 221 140 160 214 q 393 65 282 65 m 465 -142 l 465 -250 l 356 -250 l 356 -142 l 465 -142 m 217 788 l 376 1069 l 444 1069 l 604 788 l 517 788 l 411 999 l 304 788 l 217 788 z "},"ầ":{"ha":821,"x_min":71,"x_max":706,"o":"m 706 696 l 706 0 l 621 0 l 621 133 q 528 27 590 64 q 381 -10 467 -10 q 217 34 288 -10 q 109 159 147 78 q 71 349 71 240 q 110 540 71 457 q 219 667 149 622 q 381 713 289 713 q 527 676 465 713 q 621 571 589 640 l 621 696 l 706 696 m 393 65 q 561 140 501 65 q 621 351 621 215 q 561 564 621 489 q 392 639 501 639 q 221 562 282 639 q 160 349 160 485 q 221 140 160 214 q 393 65 282 65 m 433 1129 l 535 1129 l 644 931 l 586 931 l 433 1129 m 217 788 l 378 997 l 443 997 l 604 788 l 517 788 l 411 938 l 304 788 l 217 788 z "},"ẩ":{"ha":821,"x_min":71,"x_max":706,"o":"m 706 696 l 706 0 l 621 0 l 621 133 q 528 27 590 64 q 381 -10 467 -10 q 217 34 288 -10 q 109 159 147 78 q 71 349 71 240 q 110 540 71 457 q 219 667 149 622 q 381 713 289 713 q 527 676 465 713 q 621 571 589 640 l 621 696 l 706 696 m 393 65 q 561 140 501 65 q 621 351 621 215 q 561 564 621 489 q 392 639 501 639 q 221 562 282 639 q 160 349 160 485 q 221 140 160 214 q 393 65 282 65 m 590 931 l 524 931 l 524 953 q 539 990 524 976 q 582 1014 554 1003 q 610 1028 601 1022 q 619 1044 619 1035 q 603 1066 619 1058 q 560 1074 588 1074 q 472 1056 515 1074 l 453 1113 q 563 1136 507 1136 q 662 1112 625 1136 q 699 1046 699 1088 q 683 1010 699 1022 q 636 982 668 997 q 602 964 614 972 q 590 943 590 956 l 590 931 m 217 788 l 378 997 l 443 997 l 604 788 l 517 788 l 411 938 l 304 788 l 217 788 z "},"ẫ":{"ha":821,"x_min":71,"x_max":706,"o":"m 706 696 l 706 0 l 621 0 l 621 133 q 528 27 590 64 q 381 -10 467 -10 q 217 34 288 -10 q 109 159 147 78 q 71 349 71 240 q 110 540 71 457 q 219 667 149 622 q 381 713 289 713 q 527 676 465 713 q 621 571 589 640 l 621 696 l 706 696 m 393 65 q 561 140 501 65 q 621 351 621 215 q 561 564 621 489 q 392 639 501 639 q 221 562 282 639 q 160 349 160 485 q 221 140 160 214 q 393 65 282 65 m 190 1017 q 222 1114 190 1076 q 308 1151 254 1151 q 363 1142 336 1151 q 428 1115 389 1133 q 474 1094 456 1101 q 510 1088 493 1088 q 558 1109 540 1088 q 576 1156 576 1131 l 631 1156 q 599 1058 631 1096 q 513 1019 567 1019 q 456 1029 483 1019 q 393 1057 429 1039 q 369 1068 388 1060 q 337 1081 351 1076 q 311 1085 322 1085 q 263 1064 281 1085 q 244 1017 244 1043 l 190 1017 m 217 788 l 378 997 l 443 997 l 604 788 l 517 788 l 411 938 l 304 788 l 217 788 z "},"ȁ":{"ha":821,"x_min":71,"x_max":706,"o":"m 706 696 l 706 0 l 621 0 l 621 133 q 528 27 590 64 q 381 -10 467 -10 q 217 34 288 -10 q 109 159 147 78 q 71 349 71 240 q 110 540 71 457 q 219 667 149 622 q 381 713 289 713 q 527 676 465 713 q 621 571 589 640 l 621 696 l 706 696 m 393 65 q 561 140 501 65 q 621 351 621 215 q 561 564 621 489 q 392 639 501 639 q 221 562 282 639 q 160 349 160 485 q 221 140 160 214 q 393 65 282 65 m 194 1069 l 285 1069 l 353 788 l 306 788 l 194 1069 m 357 1069 l 447 1069 l 515 788 l 468 788 l 357 1069 z "},"ä":{"ha":821,"x_min":71,"x_max":706,"o":"m 706 696 l 706 0 l 621 0 l 621 133 q 528 27 590 64 q 381 -10 467 -10 q 217 34 288 -10 q 109 159 147 78 q 71 349 71 240 q 110 540 71 457 q 219 667 149 622 q 381 713 289 713 q 527 676 465 713 q 621 571 589 640 l 621 696 l 706 696 m 393 65 q 561 140 501 65 q 621 351 621 215 q 561 564 621 489 q 392 639 501 639 q 221 562 282 639 q 160 349 160 485 q 221 140 160 214 q 393 65 282 65 m 346 981 l 346 878 l 242 878 l 242 981 l 346 981 m 579 981 l 579 878 l 475 878 l 475 981 l 579 981 z "},"ȧ":{"ha":821,"x_min":71,"x_max":706,"o":"m 706 696 l 706 0 l 621 0 l 621 133 q 528 27 590 64 q 381 -10 467 -10 q 217 34 288 -10 q 109 159 147 78 q 71 349 71 240 q 110 540 71 457 q 219 667 149 622 q 381 713 289 713 q 527 676 465 713 q 621 571 589 640 l 621 696 l 706 696 m 393 65 q 561 140 501 65 q 621 351 621 215 q 561 564 621 489 q 392 639 501 639 q 221 562 282 639 q 160 349 160 485 q 221 140 160 214 q 393 65 282 65 m 467 983 l 467 875 l 354 875 l 354 983 l 467 983 z "},"ạ":{"ha":821,"x_min":71,"x_max":706,"o":"m 706 696 l 706 0 l 621 0 l 621 133 q 528 27 590 64 q 381 -10 467 -10 q 217 34 288 -10 q 109 159 147 78 q 71 349 71 240 q 110 540 71 457 q 219 667 149 622 q 381 713 289 713 q 527 676 465 713 q 621 571 589 640 l 621 696 l 706 696 m 393 65 q 561 140 501 65 q 621 351 621 215 q 561 564 621 489 q 392 639 501 639 q 221 562 282 639 q 160 349 160 485 q 221 140 160 214 q 393 65 282 65 m 465 -142 l 465 -250 l 356 -250 l 356 -142 l 465 -142 z "},"à":{"ha":821,"x_min":71,"x_max":706,"o":"m 706 696 l 706 0 l 621 0 l 621 133 q 528 27 590 64 q 381 -10 467 -10 q 217 34 288 -10 q 109 159 147 78 q 71 349 71 240 q 110 540 71 457 q 219 667 149 622 q 381 713 289 713 q 527 676 465 713 q 621 571 589 640 l 621 696 l 706 696 m 393 65 q 561 140 501 65 q 621 351 621 215 q 561 564 621 489 q 392 639 501 639 q 221 562 282 639 q 160 349 160 485 q 221 140 160 214 q 393 65 282 65 m 194 1069 l 303 1069 l 443 788 l 378 788 l 194 1069 z "},"ả":{"ha":821,"x_min":71,"x_max":706,"o":"m 706 696 l 706 0 l 621 0 l 621 133 q 528 27 590 64 q 381 -10 467 -10 q 217 34 288 -10 q 109 159 147 78 q 71 349 71 240 q 110 540 71 457 q 219 667 149 622 q 381 713 289 713 q 527 676 465 713 q 621 571 589 640 l 621 696 l 706 696 m 393 65 q 561 140 501 65 q 621 351 621 215 q 561 564 621 489 q 392 639 501 639 q 221 562 282 639 q 160 349 160 485 q 221 140 160 214 q 393 65 282 65 m 446 788 l 381 788 l 381 828 q 394 874 381 856 q 435 921 407 893 q 463 951 454 939 q 472 976 472 963 q 456 1002 472 993 q 413 1011 440 1011 q 326 994 371 1011 l 307 1050 q 418 1075 361 1075 q 515 1049 479 1075 q 551 982 551 1022 q 537 930 551 950 q 494 888 522 910 q 458 851 469 867 q 446 810 446 835 l 446 788 z "},"ȃ":{"ha":821,"x_min":71,"x_max":706,"o":"m 706 696 l 706 0 l 621 0 l 621 133 q 528 27 590 64 q 381 -10 467 -10 q 217 34 288 -10 q 109 159 147 78 q 71 349 71 240 q 110 540 71 457 q 219 667 149 622 q 381 713 289 713 q 527 676 465 713 q 621 571 589 640 l 621 696 l 706 696 m 393 65 q 561 140 501 65 q 621 351 621 215 q 561 564 621 489 q 392 639 501 639 q 221 562 282 639 q 160 349 160 485 q 221 140 160 214 q 393 65 282 65 m 411 1028 q 544 987 485 1028 q 633 858 603 946 l 569 831 q 500 930 539 900 q 411 960 461 960 q 322 930 361 960 q 251 831 282 900 l 188 857 q 276 987 217 946 q 411 1028 336 1028 z "},"ā":{"ha":821,"x_min":71,"x_max":706,"o":"m 706 696 l 706 0 l 621 0 l 621 133 q 528 27 590 64 q 381 -10 467 -10 q 217 34 288 -10 q 109 159 147 78 q 71 349 71 240 q 110 540 71 457 q 219 667 149 622 q 381 713 289 713 q 527 676 465 713 q 621 571 589 640 l 621 696 l 706 696 m 393 65 q 561 140 501 65 q 621 351 621 215 q 561 564 621 489 q 392 639 501 639 q 221 562 282 639 q 160 349 160 485 q 221 140 160 214 q 393 65 282 65 m 203 965 l 618 965 l 618 893 l 203 893 l 203 965 z "},"ą":{"ha":821,"x_min":71,"x_max":772,"o":"m 772 -243 q 656 -274 724 -274 q 538 -233 583 -274 q 493 -126 493 -192 q 526 -26 493 -69 q 621 40 560 17 l 621 133 q 528 27 590 64 q 381 -10 467 -10 q 217 34 288 -10 q 109 159 147 78 q 71 349 71 240 q 110 540 71 457 q 219 667 149 622 q 381 713 289 713 q 527 676 465 713 q 621 571 589 640 l 621 696 l 706 696 l 706 0 l 699 0 q 605 -33 642 0 q 568 -117 568 -65 q 594 -185 568 -160 q 664 -211 621 -211 q 749 -183 701 -211 l 772 -243 m 393 65 q 561 140 501 65 q 621 351 621 215 q 561 564 621 489 q 392 639 501 639 q 221 562 282 639 q 160 349 160 485 q 221 140 160 214 q 393 65 282 65 z "},"å":{"ha":821,"x_min":71,"x_max":706,"o":"m 706 696 l 706 0 l 621 0 l 621 133 q 528 27 590 64 q 381 -10 467 -10 q 217 34 288 -10 q 109 159 147 78 q 71 349 71 240 q 110 540 71 457 q 219 667 149 622 q 381 713 289 713 q 527 676 465 713 q 621 571 589 640 l 621 696 l 706 696 m 393 65 q 561 140 501 65 q 621 351 621 215 q 561 564 621 489 q 392 639 501 639 q 221 562 282 639 q 160 349 160 485 q 221 140 160 214 q 393 65 282 65 m 411 793 q 313 832 353 793 q 272 929 272 871 q 313 1024 272 985 q 411 1063 354 1063 q 508 1024 468 1063 q 549 929 549 985 q 508 832 549 871 q 411 793 468 793 m 411 856 q 461 876 442 856 q 481 929 481 897 q 460 979 481 958 q 411 1000 440 1000 q 360 979 381 1000 q 340 929 340 958 q 360 876 340 897 q 411 856 381 856 z "},"ǻ":{"ha":821,"x_min":71,"x_max":708,"o":"m 411 796 q 312 836 353 796 q 271 935 271 876 q 312 1033 271 993 q 411 1074 353 1074 q 489 1050 454 1074 l 606 1219 l 708 1217 l 529 1011 q 553 935 553 976 q 511 836 553 876 q 411 796 469 796 m 411 1008 q 360 987 381 1008 q 340 935 340 965 q 360 883 340 904 q 411 861 381 861 q 463 883 442 861 q 483 935 483 904 q 463 987 483 965 q 411 1008 442 1008 m 621 696 l 706 696 l 706 0 l 621 0 l 621 133 q 528 27 590 64 q 381 -10 467 -10 q 217 34 288 -10 q 109 159 147 78 q 71 349 71 240 q 110 540 71 457 q 219 667 149 622 q 381 713 289 713 q 527 676 465 713 q 621 571 589 640 l 621 696 m 393 65 q 561 140 501 65 q 621 351 621 215 q 561 564 621 489 q 392 639 501 639 q 221 562 282 639 q 160 349 160 485 q 221 140 160 214 q 393 65 282 65 z "},"ã":{"ha":821,"x_min":71,"x_max":706,"o":"m 706 696 l 706 0 l 621 0 l 621 133 q 528 27 590 64 q 381 -10 467 -10 q 217 34 288 -10 q 109 159 147 78 q 71 349 71 240 q 110 540 71 457 q 219 667 149 622 q 381 713 289 713 q 527 676 465 713 q 621 571 589 640 l 621 696 l 706 696 m 393 65 q 561 140 501 65 q 621 351 621 215 q 561 564 621 489 q 392 639 501 639 q 221 562 282 639 q 160 349 160 485 q 221 140 160 214 q 393 65 282 65 m 190 858 q 222 967 190 928 q 308 1006 253 1006 q 364 994 338 1006 q 428 958 390 982 q 476 931 460 939 q 510 924 493 924 q 559 947 542 924 q 576 1001 576 969 l 631 1001 q 599 893 631 932 q 513 854 568 854 q 457 866 483 854 q 393 901 431 878 q 344 928 361 921 q 311 936 328 936 q 262 913 279 936 q 244 858 244 890 l 190 858 z "},"æ":{"ha":1231,"x_min":93,"x_max":1164,"o":"m 647 358 l 647 353 q 712 140 647 214 q 896 65 776 65 q 1119 151 1013 65 l 1151 85 q 1036 17 1106 43 q 897 -10 967 -10 q 713 40 789 -10 q 601 182 638 89 q 508 41 576 92 q 344 -10 440 -10 q 216 18 274 -10 q 126 95 158 46 q 93 208 93 144 q 133 333 93 286 q 262 401 172 379 q 504 424 351 424 l 561 424 l 561 450 q 523 594 561 550 q 397 639 485 639 q 154 563 276 639 l 122 628 q 247 690 174 667 q 393 713 321 713 q 626 574 578 713 q 732 676 667 640 q 879 713 797 713 q 1088 623 1013 713 q 1164 374 1164 533 l 1164 358 l 647 358 m 878 643 q 727 585 786 643 q 653 424 668 526 l 1085 424 q 1022 587 1075 531 q 878 643 968 643 m 350 64 q 502 129 443 64 q 561 299 561 194 l 561 358 l 507 358 q 313 344 383 358 q 212 297 242 329 q 182 213 182 265 q 229 105 182 146 q 350 64 276 64 z "},"ǽ":{"ha":1231,"x_min":93,"x_max":1164,"o":"m 647 358 l 647 353 q 712 140 647 214 q 896 65 776 65 q 1119 151 1013 65 l 1151 85 q 1036 17 1106 43 q 897 -10 967 -10 q 713 40 789 -10 q 601 182 638 89 q 508 41 576 92 q 344 -10 440 -10 q 216 18 274 -10 q 126 95 158 46 q 93 208 93 144 q 133 333 93 286 q 262 401 172 379 q 504 424 351 424 l 561 424 l 561 450 q 523 594 561 550 q 397 639 485 639 q 154 563 276 639 l 122 628 q 247 690 174 667 q 393 713 321 713 q 626 574 578 713 q 732 676 667 640 q 879 713 797 713 q 1088 623 1013 713 q 1164 374 1164 533 l 1164 358 l 647 358 m 878 643 q 727 585 786 643 q 653 424 668 526 l 1085 424 q 1022 587 1075 531 q 878 643 968 643 m 350 64 q 502 129 443 64 q 561 299 561 194 l 561 358 l 507 358 q 313 344 383 358 q 212 297 242 329 q 182 213 182 265 q 229 105 182 146 q 350 64 276 64 m 572 788 l 713 1069 l 821 1069 l 638 788 l 572 788 z "},"b":{"ha":821,"x_min":115,"x_max":750,"o":"m 440 713 q 603 668 532 713 q 712 543 674 624 q 750 354 750 463 q 711 163 750 246 q 602 35 672 81 q 440 -10 532 -10 q 292 28 354 -10 q 200 136 231 65 l 200 0 l 115 0 l 115 1022 l 199 1022 l 199 565 q 292 675 229 638 q 440 713 354 713 m 431 65 q 600 142 539 65 q 661 354 661 218 q 600 564 661 489 q 429 639 539 639 q 260 564 319 639 q 200 351 200 489 q 260 140 200 214 q 431 65 319 65 z "},"c":{"ha":681,"x_min":71,"x_max":642,"o":"m 397 -10 q 225 35 299 -10 q 111 160 151 79 q 71 349 71 242 q 111 540 71 457 q 226 667 151 622 q 400 713 301 713 q 535 688 471 713 q 642 621 600 664 l 608 554 q 505 619 554 599 q 403 639 456 639 q 225 562 290 639 q 160 349 160 485 q 224 140 160 215 q 403 65 289 65 q 505 85 456 65 q 608 149 554 106 l 642 83 q 531 15 597 40 q 397 -10 465 -10 z "},"ć":{"ha":681,"x_min":71,"x_max":642,"o":"m 397 -10 q 225 35 299 -10 q 111 160 151 79 q 71 349 71 242 q 111 540 71 457 q 226 667 151 622 q 400 713 301 713 q 535 688 471 713 q 642 621 600 664 l 608 554 q 505 619 554 599 q 403 639 456 639 q 225 562 290 639 q 160 349 160 485 q 224 140 160 215 q 403 65 289 65 q 505 85 456 65 q 608 149 554 106 l 642 83 q 531 15 597 40 q 397 -10 465 -10 m 363 788 l 503 1069 l 611 1069 l 428 788 l 363 788 z "},"č":{"ha":681,"x_min":71,"x_max":642,"o":"m 397 -10 q 225 35 299 -10 q 111 160 151 79 q 71 349 71 242 q 111 540 71 457 q 226 667 151 622 q 400 713 301 713 q 535 688 471 713 q 642 621 600 664 l 608 554 q 505 619 554 599 q 403 639 456 639 q 225 562 290 639 q 160 349 160 485 q 224 140 160 215 q 403 65 289 65 q 505 85 456 65 q 608 149 554 106 l 642 83 q 531 15 597 40 q 397 -10 465 -10 m 589 1069 l 429 788 l 361 788 l 201 1069 l 289 1069 l 396 857 l 501 1069 l 589 1069 z "},"ç":{"ha":681,"x_min":71,"x_max":642,"o":"m 642 83 q 540 18 601 43 q 414 -10 479 -7 l 408 -61 q 446 -57 428 -57 q 519 -82 488 -57 q 550 -154 550 -107 q 508 -236 550 -204 q 394 -268 467 -268 q 331 -262 364 -268 q 274 -242 297 -256 l 293 -187 q 397 -207 339 -207 q 458 -193 438 -207 q 478 -154 478 -179 q 465 -124 478 -135 q 428 -114 453 -114 q 360 -128 401 -114 l 333 -107 l 343 -6 q 144 106 217 11 q 71 349 71 201 q 111 540 71 457 q 226 667 151 622 q 400 713 301 713 q 535 688 471 713 q 642 621 600 664 l 608 554 q 505 619 554 599 q 403 639 456 639 q 225 562 290 639 q 160 349 160 485 q 224 140 160 215 q 403 65 289 65 q 505 85 456 65 q 608 149 554 106 l 642 83 z "},"ḉ":{"ha":681,"x_min":71,"x_max":642,"o":"m 428 788 l 363 788 l 503 1069 l 611 1069 l 428 788 m 642 83 q 540 18 601 43 q 414 -10 479 -7 l 408 -61 q 446 -57 428 -57 q 519 -82 488 -57 q 550 -154 550 -107 q 508 -236 550 -204 q 394 -268 467 -268 q 331 -262 364 -268 q 274 -242 297 -256 l 293 -187 q 397 -207 339 -207 q 458 -193 438 -207 q 478 -154 478 -179 q 465 -124 478 -135 q 428 -114 453 -114 q 360 -128 401 -114 l 333 -107 l 343 -6 q 144 106 217 11 q 71 349 71 201 q 111 540 71 457 q 226 667 151 622 q 400 713 301 713 q 535 688 471 713 q 642 621 600 664 l 608 554 q 505 619 554 599 q 403 639 456 639 q 225 562 290 639 q 160 349 160 485 q 224 140 160 215 q 403 65 289 65 q 505 85 456 65 q 608 149 554 106 l 642 83 z "},"ĉ":{"ha":681,"x_min":71,"x_max":642,"o":"m 397 -10 q 225 35 299 -10 q 111 160 151 79 q 71 349 71 242 q 111 540 71 457 q 226 667 151 622 q 400 713 301 713 q 535 688 471 713 q 642 621 600 664 l 608 554 q 505 619 554 599 q 403 639 456 639 q 225 562 290 639 q 160 349 160 485 q 224 140 160 215 q 403 65 289 65 q 505 85 456 65 q 608 149 554 106 l 642 83 q 531 15 597 40 q 397 -10 465 -10 m 201 788 l 361 1069 l 429 1069 l 589 788 l 501 788 l 396 999 l 289 788 l 201 788 z "},"ċ":{"ha":681,"x_min":71,"x_max":642,"o":"m 397 -10 q 225 35 299 -10 q 111 160 151 79 q 71 349 71 242 q 111 540 71 457 q 226 667 151 622 q 400 713 301 713 q 535 688 471 713 q 642 621 600 664 l 608 554 q 505 619 554 599 q 403 639 456 639 q 225 562 290 639 q 160 349 160 485 q 224 140 160 215 q 403 65 289 65 q 505 85 456 65 q 608 149 554 106 l 642 83 q 531 15 597 40 q 397 -10 465 -10 m 451 983 l 451 875 l 339 875 l 339 983 l 451 983 z "},"d":{"ha":821,"x_min":71,"x_max":706,"o":"m 706 1022 l 706 0 l 621 0 l 621 133 q 528 27 590 64 q 381 -10 467 -10 q 219 35 289 -10 q 110 163 149 81 q 71 354 71 246 q 109 544 71 463 q 217 669 147 625 q 381 713 288 713 q 527 676 465 713 q 621 571 589 640 l 621 1022 l 706 1022 m 392 65 q 561 140 501 65 q 621 351 621 215 q 561 563 621 488 q 393 639 501 639 q 221 564 282 639 q 160 354 160 489 q 221 142 160 218 q 392 65 282 65 z "},"ð":{"ha":786,"x_min":71,"x_max":715,"o":"m 558 853 q 715 408 715 688 q 633 97 715 203 q 389 -10 550 -10 q 222 31 294 -10 q 110 147 150 72 q 71 321 71 222 q 110 496 71 421 q 222 612 150 571 q 389 653 294 653 q 625 535 551 653 q 483 824 599 708 l 260 736 l 239 797 l 426 871 q 228 965 342 932 l 251 1031 q 507 901 403 988 l 690 974 l 711 913 l 558 853 m 390 65 q 560 133 499 65 q 622 321 622 201 q 561 510 622 442 q 392 578 500 578 q 221 510 282 578 q 160 321 160 443 q 219 131 160 197 q 390 65 279 65 z "},"ď":{"ha":821,"x_min":71,"x_max":842,"o":"m 621 1022 l 706 1022 l 706 0 l 621 0 l 621 133 q 528 27 590 64 q 381 -10 467 -10 q 219 35 289 -10 q 110 163 149 81 q 71 354 71 246 q 109 544 71 463 q 217 669 147 625 q 381 713 288 713 q 527 676 465 713 q 621 571 589 640 l 621 1022 m 842 1022 l 804 751 l 756 751 l 756 1022 l 842 1022 m 392 65 q 561 140 501 65 q 621 351 621 215 q 561 563 621 488 q 393 639 501 639 q 221 564 282 639 q 160 354 160 489 q 221 142 160 218 q 392 65 282 65 z "},"đ":{"ha":821,"x_min":71,"x_max":840,"o":"m 840 818 l 706 818 l 706 0 l 621 0 l 621 133 q 528 27 590 64 q 381 -10 467 -10 q 219 35 289 -10 q 110 163 149 81 q 71 354 71 246 q 109 544 71 463 q 217 669 147 625 q 381 713 288 713 q 527 676 465 713 q 621 571 589 640 l 621 818 l 342 818 l 342 885 l 621 885 l 621 1022 l 706 1022 l 706 885 l 840 885 l 840 818 m 392 65 q 561 140 501 65 q 621 351 621 215 q 561 563 621 488 q 393 639 501 639 q 221 564 282 639 q 160 354 160 489 q 221 142 160 218 q 392 65 282 65 z "},"ḍ":{"ha":821,"x_min":71,"x_max":706,"o":"m 706 1022 l 706 0 l 621 0 l 621 133 q 528 27 590 64 q 381 -10 467 -10 q 219 35 289 -10 q 110 163 149 81 q 71 354 71 246 q 109 544 71 463 q 217 669 147 625 q 381 713 288 713 q 527 676 465 713 q 621 571 589 640 l 621 1022 l 706 1022 m 392 65 q 561 140 501 65 q 621 351 621 215 q 561 563 621 488 q 393 639 501 639 q 221 564 282 639 q 160 354 160 489 q 221 142 160 218 q 392 65 282 65 m 467 -142 l 467 -250 l 357 -250 l 357 -142 l 467 -142 z "},"ḏ":{"ha":821,"x_min":71,"x_max":706,"o":"m 706 1022 l 706 0 l 621 0 l 621 133 q 528 27 590 64 q 381 -10 467 -10 q 219 35 289 -10 q 110 163 149 81 q 71 354 71 246 q 109 544 71 463 q 217 669 147 625 q 381 713 288 713 q 527 676 465 713 q 621 571 589 640 l 621 1022 l 706 1022 m 392 65 q 561 140 501 65 q 621 351 621 215 q 561 563 621 488 q 393 639 501 639 q 221 564 282 639 q 160 354 160 489 q 221 142 160 218 q 392 65 282 65 m 204 -160 l 619 -160 l 619 -232 l 204 -232 l 204 -160 z "},"ǆ":{"ha":1536,"x_min":71,"x_max":1472,"o":"m 706 1022 l 706 0 l 621 0 l 621 133 q 528 27 590 64 q 381 -10 467 -10 q 219 35 289 -10 q 110 163 149 81 q 71 354 71 246 q 109 544 71 463 q 217 669 147 625 q 381 713 288 713 q 527 676 465 713 q 621 571 589 640 l 621 1022 l 706 1022 m 392 65 q 561 140 501 65 q 621 351 621 215 q 561 563 621 488 q 393 639 501 639 q 221 564 282 639 q 160 354 160 489 q 221 142 160 218 q 392 65 282 65 m 1472 69 l 1472 0 l 892 0 l 892 58 l 1354 628 l 908 628 l 908 696 l 1457 696 l 1457 632 l 1000 69 l 1472 69 m 1376 1069 l 1217 788 l 1149 788 l 989 1069 l 1076 1069 l 1183 857 l 1289 1069 l 1376 1069 z "},"e":{"ha":754,"x_min":71,"x_max":688,"o":"m 160 358 l 160 354 q 224 140 160 214 q 413 65 289 65 q 642 151 538 65 l 675 85 q 558 16 629 42 q 413 -10 488 -10 q 163 86 254 -10 q 71 350 71 182 q 112 540 71 457 q 226 667 153 622 q 396 713 300 713 q 610 624 533 713 q 688 376 688 535 l 688 358 l 160 358 m 396 643 q 240 585 300 643 q 165 424 181 528 l 607 424 q 544 587 599 531 q 396 643 490 643 z "},"é":{"ha":754,"x_min":71,"x_max":688,"o":"m 160 358 l 160 354 q 224 140 160 214 q 413 65 289 65 q 642 151 538 65 l 675 85 q 558 16 629 42 q 413 -10 488 -10 q 163 86 254 -10 q 71 350 71 182 q 112 540 71 457 q 226 667 153 622 q 396 713 300 713 q 610 624 533 713 q 688 376 688 535 l 688 358 l 160 358 m 396 643 q 240 585 300 643 q 165 424 181 528 l 607 424 q 544 587 599 531 q 396 643 490 643 m 363 788 l 503 1069 l 611 1069 l 428 788 l 363 788 z "},"ĕ":{"ha":754,"x_min":71,"x_max":688,"o":"m 160 358 l 160 354 q 224 140 160 214 q 413 65 289 65 q 642 151 538 65 l 675 85 q 558 16 629 42 q 413 -10 488 -10 q 163 86 254 -10 q 71 350 71 182 q 112 540 71 457 q 226 667 153 622 q 396 713 300 713 q 610 624 533 713 q 688 376 688 535 l 688 358 l 160 358 m 396 643 q 240 585 300 643 q 165 424 181 528 l 607 424 q 544 587 599 531 q 396 643 490 643 m 396 833 q 263 874 322 833 q 172 1001 203 915 l 236 1029 q 306 931 267 961 q 396 901 346 901 q 484 931 444 901 q 554 1029 524 961 l 618 1003 q 529 874 589 915 q 396 833 469 833 z "},"ě":{"ha":754,"x_min":71,"x_max":688,"o":"m 160 358 l 160 354 q 224 140 160 214 q 413 65 289 65 q 642 151 538 65 l 675 85 q 558 16 629 42 q 413 -10 488 -10 q 163 86 254 -10 q 71 350 71 182 q 112 540 71 457 q 226 667 153 622 q 396 713 300 713 q 610 624 533 713 q 688 376 688 535 l 688 358 l 160 358 m 396 643 q 240 585 300 643 q 165 424 181 528 l 607 424 q 544 587 599 531 q 396 643 490 643 m 589 1069 l 429 788 l 361 788 l 201 1069 l 289 1069 l 396 857 l 501 1069 l 589 1069 z "},"ḝ":{"ha":754,"x_min":71,"x_max":688,"o":"m 396 833 q 263 874 322 833 q 172 1001 203 915 l 236 1029 q 306 931 267 961 q 396 901 346 901 q 484 931 444 901 q 554 1029 524 961 l 618 1003 q 529 874 589 915 q 396 833 469 833 m 160 358 l 160 354 q 224 140 160 214 q 413 65 289 65 q 642 151 538 65 l 675 85 q 567 19 632 44 q 433 -10 503 -6 l 428 -61 q 465 -57 447 -57 q 538 -82 507 -57 q 569 -154 569 -107 q 528 -236 569 -204 q 414 -268 486 -268 q 350 -262 383 -268 q 293 -242 317 -256 l 313 -187 q 417 -207 358 -207 q 477 -193 457 -207 q 497 -154 497 -179 q 485 -124 497 -135 q 447 -114 472 -114 q 379 -128 421 -114 l 353 -107 l 363 -7 q 148 102 225 8 q 71 350 71 196 q 112 540 71 457 q 226 667 153 622 q 396 713 300 713 q 610 624 533 713 q 688 376 688 535 l 688 358 l 160 358 m 396 643 q 240 585 300 643 q 165 424 181 528 l 607 424 q 544 587 599 531 q 396 643 490 643 z "},"ê":{"ha":754,"x_min":71,"x_max":688,"o":"m 160 358 l 160 354 q 224 140 160 214 q 413 65 289 65 q 642 151 538 65 l 675 85 q 558 16 629 42 q 413 -10 488 -10 q 163 86 254 -10 q 71 350 71 182 q 112 540 71 457 q 226 667 153 622 q 396 713 300 713 q 610 624 533 713 q 688 376 688 535 l 688 358 l 160 358 m 396 643 q 240 585 300 643 q 165 424 181 528 l 607 424 q 544 587 599 531 q 396 643 490 643 m 201 788 l 361 1069 l 429 1069 l 589 788 l 501 788 l 396 999 l 289 788 l 201 788 z "},"ế":{"ha":754,"x_min":71,"x_max":749,"o":"m 160 358 l 160 354 q 224 140 160 214 q 413 65 289 65 q 642 151 538 65 l 675 85 q 558 16 629 42 q 413 -10 488 -10 q 163 86 254 -10 q 71 350 71 182 q 112 540 71 457 q 226 667 153 622 q 396 713 300 713 q 610 624 533 713 q 688 376 688 535 l 688 358 l 160 358 m 396 643 q 240 585 300 643 q 165 424 181 528 l 607 424 q 544 587 599 531 q 396 643 490 643 m 510 931 l 646 1129 l 749 1129 l 569 931 l 510 931 m 201 788 l 363 997 l 428 997 l 589 788 l 501 788 l 396 938 l 289 788 l 201 788 z "},"ệ":{"ha":754,"x_min":71,"x_max":688,"o":"m 160 358 l 160 354 q 224 140 160 214 q 413 65 289 65 q 642 151 538 65 l 675 85 q 558 16 629 42 q 413 -10 488 -10 q 163 86 254 -10 q 71 350 71 182 q 112 540 71 457 q 226 667 153 622 q 396 713 300 713 q 610 624 533 713 q 688 376 688 535 l 688 358 l 160 358 m 396 643 q 240 585 300 643 q 165 424 181 528 l 607 424 q 544 587 599 531 q 396 643 490 643 m 467 -142 l 467 -250 l 357 -250 l 357 -142 l 467 -142 m 201 788 l 361 1069 l 429 1069 l 589 788 l 501 788 l 396 999 l 289 788 l 201 788 z "},"ề":{"ha":754,"x_min":71,"x_max":688,"o":"m 160 358 l 160 354 q 224 140 160 214 q 413 65 289 65 q 642 151 538 65 l 675 85 q 558 16 629 42 q 413 -10 488 -10 q 163 86 254 -10 q 71 350 71 182 q 112 540 71 457 q 226 667 153 622 q 396 713 300 713 q 610 624 533 713 q 688 376 688 535 l 688 358 l 160 358 m 396 643 q 240 585 300 643 q 165 424 181 528 l 607 424 q 544 587 599 531 q 396 643 490 643 m 418 1129 l 519 1129 l 629 931 l 571 931 l 418 1129 m 201 788 l 363 997 l 428 997 l 589 788 l 501 788 l 396 938 l 289 788 l 201 788 z "},"ể":{"ha":754,"x_min":71,"x_max":688,"o":"m 160 358 l 160 354 q 224 140 160 214 q 413 65 289 65 q 642 151 538 65 l 675 85 q 558 16 629 42 q 413 -10 488 -10 q 163 86 254 -10 q 71 350 71 182 q 112 540 71 457 q 226 667 153 622 q 396 713 300 713 q 610 624 533 713 q 688 376 688 535 l 688 358 l 160 358 m 396 643 q 240 585 300 643 q 165 424 181 528 l 607 424 q 544 587 599 531 q 396 643 490 643 m 575 931 l 508 931 l 508 953 q 524 990 508 976 q 567 1014 539 1003 q 595 1028 586 1022 q 604 1044 604 1035 q 588 1066 604 1058 q 544 1074 572 1074 q 457 1056 500 1074 l 438 1113 q 547 1136 492 1136 q 647 1112 610 1136 q 683 1046 683 1088 q 668 1010 683 1022 q 621 982 653 997 q 587 964 599 972 q 575 943 575 956 l 575 931 m 201 788 l 363 997 l 428 997 l 589 788 l 501 788 l 396 938 l 289 788 l 201 788 z "},"ễ":{"ha":754,"x_min":71,"x_max":688,"o":"m 160 358 l 160 354 q 224 140 160 214 q 413 65 289 65 q 642 151 538 65 l 675 85 q 558 16 629 42 q 413 -10 488 -10 q 163 86 254 -10 q 71 350 71 182 q 112 540 71 457 q 226 667 153 622 q 396 713 300 713 q 610 624 533 713 q 688 376 688 535 l 688 358 l 160 358 m 396 643 q 240 585 300 643 q 165 424 181 528 l 607 424 q 544 587 599 531 q 396 643 490 643 m 175 1017 q 207 1114 175 1076 q 293 1151 239 1151 q 347 1142 321 1151 q 413 1115 374 1133 q 459 1094 440 1101 q 494 1088 478 1088 q 543 1109 525 1088 q 561 1156 561 1131 l 615 1156 q 583 1058 615 1096 q 497 1019 551 1019 q 441 1029 468 1019 q 378 1057 414 1039 q 354 1068 372 1060 q 322 1081 336 1076 q 296 1085 307 1085 q 247 1064 265 1085 q 229 1017 229 1043 l 175 1017 m 201 788 l 363 997 l 428 997 l 589 788 l 501 788 l 396 938 l 289 788 l 201 788 z "},"ȅ":{"ha":754,"x_min":71,"x_max":688,"o":"m 160 358 l 160 354 q 224 140 160 214 q 413 65 289 65 q 642 151 538 65 l 675 85 q 558 16 629 42 q 413 -10 488 -10 q 163 86 254 -10 q 71 350 71 182 q 112 540 71 457 q 226 667 153 622 q 396 713 300 713 q 610 624 533 713 q 688 376 688 535 l 688 358 l 160 358 m 396 643 q 240 585 300 643 q 165 424 181 528 l 607 424 q 544 587 599 531 q 396 643 490 643 m 179 1069 l 269 1069 l 338 788 l 290 788 l 179 1069 m 342 1069 l 432 1069 l 500 788 l 453 788 l 342 1069 z "},"ë":{"ha":754,"x_min":71,"x_max":688,"o":"m 160 358 l 160 354 q 224 140 160 214 q 413 65 289 65 q 642 151 538 65 l 675 85 q 558 16 629 42 q 413 -10 488 -10 q 163 86 254 -10 q 71 350 71 182 q 112 540 71 457 q 226 667 153 622 q 396 713 300 713 q 610 624 533 713 q 688 376 688 535 l 688 358 l 160 358 m 396 643 q 240 585 300 643 q 165 424 181 528 l 607 424 q 544 587 599 531 q 396 643 490 643 m 331 981 l 331 878 l 226 878 l 226 981 l 331 981 m 564 981 l 564 878 l 460 878 l 460 981 l 564 981 z "},"ė":{"ha":754,"x_min":71,"x_max":688,"o":"m 160 358 l 160 354 q 224 140 160 214 q 413 65 289 65 q 642 151 538 65 l 675 85 q 558 16 629 42 q 413 -10 488 -10 q 163 86 254 -10 q 71 350 71 182 q 112 540 71 457 q 226 667 153 622 q 396 713 300 713 q 610 624 533 713 q 688 376 688 535 l 688 358 l 160 358 m 396 643 q 240 585 300 643 q 165 424 181 528 l 607 424 q 544 587 599 531 q 396 643 490 643 m 451 983 l 451 875 l 339 875 l 339 983 l 451 983 z "},"ẹ":{"ha":754,"x_min":71,"x_max":688,"o":"m 160 358 l 160 354 q 224 140 160 214 q 413 65 289 65 q 642 151 538 65 l 675 85 q 558 16 629 42 q 413 -10 488 -10 q 163 86 254 -10 q 71 350 71 182 q 112 540 71 457 q 226 667 153 622 q 396 713 300 713 q 610 624 533 713 q 688 376 688 535 l 688 358 l 160 358 m 396 643 q 240 585 300 643 q 165 424 181 528 l 607 424 q 544 587 599 531 q 396 643 490 643 m 467 -142 l 467 -250 l 357 -250 l 357 -142 l 467 -142 z "},"è":{"ha":754,"x_min":71,"x_max":688,"o":"m 160 358 l 160 354 q 224 140 160 214 q 413 65 289 65 q 642 151 538 65 l 675 85 q 558 16 629 42 q 413 -10 488 -10 q 163 86 254 -10 q 71 350 71 182 q 112 540 71 457 q 226 667 153 622 q 396 713 300 713 q 610 624 533 713 q 688 376 688 535 l 688 358 l 160 358 m 396 643 q 240 585 300 643 q 165 424 181 528 l 607 424 q 544 587 599 531 q 396 643 490 643 m 179 1069 l 288 1069 l 428 788 l 363 788 l 179 1069 z "},"ẻ":{"ha":754,"x_min":71,"x_max":688,"o":"m 160 358 l 160 354 q 224 140 160 214 q 413 65 289 65 q 642 151 538 65 l 675 85 q 558 16 629 42 q 413 -10 488 -10 q 163 86 254 -10 q 71 350 71 182 q 112 540 71 457 q 226 667 153 622 q 396 713 300 713 q 610 624 533 713 q 688 376 688 535 l 688 358 l 160 358 m 396 643 q 240 585 300 643 q 165 424 181 528 l 607 424 q 544 587 599 531 q 396 643 490 643 m 431 788 l 365 788 l 365 828 q 378 874 365 856 q 419 921 392 893 q 448 951 439 939 q 457 976 457 963 q 441 1002 457 993 q 397 1011 425 1011 q 311 994 356 1011 l 292 1050 q 403 1075 346 1075 q 500 1049 464 1075 q 536 982 536 1022 q 522 930 536 950 q 479 888 507 910 q 442 851 454 867 q 431 810 431 835 l 431 788 z "},"ȇ":{"ha":754,"x_min":71,"x_max":688,"o":"m 160 358 l 160 354 q 224 140 160 214 q 413 65 289 65 q 642 151 538 65 l 675 85 q 558 16 629 42 q 413 -10 488 -10 q 163 86 254 -10 q 71 350 71 182 q 112 540 71 457 q 226 667 153 622 q 396 713 300 713 q 610 624 533 713 q 688 376 688 535 l 688 358 l 160 358 m 396 643 q 240 585 300 643 q 165 424 181 528 l 607 424 q 544 587 599 531 q 396 643 490 643 m 396 1028 q 528 987 469 1028 q 618 858 588 946 l 554 831 q 485 930 524 900 q 396 960 446 960 q 306 930 346 960 q 236 831 267 900 l 172 857 q 261 987 201 946 q 396 1028 321 1028 z "},"ē":{"ha":754,"x_min":71,"x_max":688,"o":"m 160 358 l 160 354 q 224 140 160 214 q 413 65 289 65 q 642 151 538 65 l 675 85 q 558 16 629 42 q 413 -10 488 -10 q 163 86 254 -10 q 71 350 71 182 q 112 540 71 457 q 226 667 153 622 q 396 713 300 713 q 610 624 533 713 q 688 376 688 535 l 688 358 l 160 358 m 396 643 q 240 585 300 643 q 165 424 181 528 l 607 424 q 544 587 599 531 q 396 643 490 643 m 188 965 l 603 965 l 603 893 l 188 893 l 188 965 z "},"ḗ":{"ha":754,"x_min":71,"x_max":688,"o":"m 160 358 l 160 354 q 224 140 160 214 q 413 65 289 65 q 642 151 538 65 l 675 85 q 558 16 629 42 q 413 -10 488 -10 q 163 86 254 -10 q 71 350 71 182 q 112 540 71 457 q 226 667 153 622 q 396 713 300 713 q 610 624 533 713 q 688 376 688 535 l 688 358 l 160 358 m 396 643 q 240 585 300 643 q 165 424 181 528 l 607 424 q 544 587 599 531 q 396 643 490 643 m 188 965 l 603 965 l 603 893 l 188 893 l 188 965 m 363 1060 l 503 1342 l 611 1342 l 428 1060 l 363 1060 z "},"ḕ":{"ha":754,"x_min":71,"x_max":688,"o":"m 160 358 l 160 354 q 224 140 160 214 q 413 65 289 65 q 642 151 538 65 l 675 85 q 558 16 629 42 q 413 -10 488 -10 q 163 86 254 -10 q 71 350 71 182 q 112 540 71 457 q 226 667 153 622 q 396 713 300 713 q 610 624 533 713 q 688 376 688 535 l 688 358 l 160 358 m 396 643 q 240 585 300 643 q 165 424 181 528 l 607 424 q 544 587 599 531 q 396 643 490 643 m 188 965 l 603 965 l 603 893 l 188 893 l 188 965 m 179 1342 l 288 1342 l 428 1060 l 363 1060 l 179 1342 z "},"ę":{"ha":754,"x_min":71,"x_max":688,"o":"m 160 358 l 160 354 q 224 140 160 214 q 413 65 289 65 q 642 151 538 65 l 675 86 q 651 65 665 75 q 604 39 636 56 q 501 -37 531 -3 q 471 -117 471 -72 q 497 -185 471 -160 q 567 -211 522 -211 q 651 -183 607 -211 l 675 -243 q 558 -274 626 -274 q 440 -233 486 -274 q 394 -126 394 -192 q 449 -7 394 -57 q 413 -10 438 -10 q 163 86 254 -10 q 71 350 71 182 q 112 540 71 457 q 226 667 153 622 q 396 713 300 713 q 610 624 533 713 q 688 376 688 535 l 688 358 l 160 358 m 396 643 q 240 585 300 643 q 164 424 179 528 l 607 424 q 544 587 599 531 q 396 643 490 643 z "},"ẽ":{"ha":754,"x_min":71,"x_max":688,"o":"m 160 358 l 160 354 q 224 140 160 214 q 413 65 289 65 q 642 151 538 65 l 675 85 q 558 16 629 42 q 413 -10 488 -10 q 163 86 254 -10 q 71 350 71 182 q 112 540 71 457 q 226 667 153 622 q 396 713 300 713 q 610 624 533 713 q 688 376 688 535 l 688 358 l 160 358 m 396 643 q 240 585 300 643 q 165 424 181 528 l 607 424 q 544 587 599 531 q 396 643 490 643 m 175 858 q 206 967 175 928 q 293 1006 238 1006 q 349 994 322 1006 q 413 958 375 982 q 461 931 444 939 q 494 924 478 924 q 544 947 526 924 q 561 1001 561 969 l 615 1001 q 584 893 615 932 q 497 854 553 854 q 442 866 468 854 q 378 901 415 878 q 329 928 346 921 q 296 936 313 936 q 247 913 264 936 q 229 858 229 890 l 175 858 z "},"ə":{"ha":753,"x_min":67,"x_max":682,"o":"m 346 713 q 592 617 503 713 q 682 353 682 521 q 643 161 682 243 q 533 35 604 79 q 365 -10 461 -10 q 146 80 225 -10 q 67 331 67 169 l 67 346 l 596 346 l 596 350 q 530 565 594 490 q 346 639 465 639 q 111 553 231 639 l 78 618 q 199 688 126 663 q 346 713 272 713 m 364 60 q 518 117 460 60 q 592 279 576 174 l 150 279 q 213 116 158 172 q 364 60 268 60 z "},"f":{"ha":450,"x_min":11,"x_max":426,"o":"m 356 951 q 264 919 296 951 q 232 806 232 888 l 232 696 l 411 696 l 411 628 l 232 628 l 232 0 l 147 0 l 147 628 l 11 628 l 11 696 l 147 696 l 147 821 q 199 976 147 925 q 340 1028 250 1028 q 426 1017 382 1028 l 426 940 q 356 951 389 951 z "},"g":{"ha":826,"x_min":71,"x_max":711,"o":"m 711 696 l 711 -3 q 636 -232 711 -154 q 415 -310 561 -310 q 144 -235 260 -310 l 161 -161 q 286 -218 229 -201 q 417 -235 343 -235 q 574 -178 521 -235 q 628 -11 628 -121 l 628 168 q 533 59 596 97 q 383 21 471 21 q 221 65 292 21 q 110 187 150 108 q 71 367 71 265 q 110 548 71 469 q 221 669 150 626 q 383 713 292 713 q 533 676 471 713 q 626 571 594 640 l 626 696 l 711 696 m 394 97 q 565 169 503 97 q 626 367 626 242 q 565 566 626 493 q 394 639 503 639 q 222 566 285 639 q 160 367 160 493 q 222 169 160 240 q 394 97 285 97 z "},"ğ":{"ha":826,"x_min":71,"x_max":711,"o":"m 711 696 l 711 -3 q 636 -232 711 -154 q 415 -310 561 -310 q 144 -235 260 -310 l 161 -161 q 286 -218 229 -201 q 417 -235 343 -235 q 574 -178 521 -235 q 628 -11 628 -121 l 628 168 q 533 59 596 97 q 383 21 471 21 q 221 65 292 21 q 110 187 150 108 q 71 367 71 265 q 110 548 71 469 q 221 669 150 626 q 383 713 292 713 q 533 676 471 713 q 626 571 594 640 l 626 696 l 711 696 m 394 97 q 565 169 503 97 q 626 367 626 242 q 565 566 626 493 q 394 639 503 639 q 222 566 285 639 q 160 367 160 493 q 222 169 160 240 q 394 97 285 97 m 417 833 q 283 874 343 833 q 193 1001 224 915 l 257 1029 q 327 931 288 961 q 417 901 367 901 q 505 931 465 901 q 575 1029 544 961 l 639 1003 q 550 874 610 915 q 417 833 490 833 z "},"ǧ":{"ha":826,"x_min":71,"x_max":711,"o":"m 711 696 l 711 -3 q 636 -232 711 -154 q 415 -310 561 -310 q 144 -235 260 -310 l 161 -161 q 286 -218 229 -201 q 417 -235 343 -235 q 574 -178 521 -235 q 628 -11 628 -121 l 628 168 q 533 59 596 97 q 383 21 471 21 q 221 65 292 21 q 110 187 150 108 q 71 367 71 265 q 110 548 71 469 q 221 669 150 626 q 383 713 292 713 q 533 676 471 713 q 626 571 594 640 l 626 696 l 711 696 m 394 97 q 565 169 503 97 q 626 367 626 242 q 565 566 626 493 q 394 639 503 639 q 222 566 285 639 q 160 367 160 493 q 222 169 160 240 q 394 97 285 97 m 610 1069 l 450 788 l 382 788 l 222 1069 l 310 1069 l 417 857 l 522 1069 l 610 1069 z "},"ĝ":{"ha":826,"x_min":71,"x_max":711,"o":"m 711 696 l 711 -3 q 636 -232 711 -154 q 415 -310 561 -310 q 144 -235 260 -310 l 161 -161 q 286 -218 229 -201 q 417 -235 343 -235 q 574 -178 521 -235 q 628 -11 628 -121 l 628 168 q 533 59 596 97 q 383 21 471 21 q 221 65 292 21 q 110 187 150 108 q 71 367 71 265 q 110 548 71 469 q 221 669 150 626 q 383 713 292 713 q 533 676 471 713 q 626 571 594 640 l 626 696 l 711 696 m 394 97 q 565 169 503 97 q 626 367 626 242 q 565 566 626 493 q 394 639 503 639 q 222 566 285 639 q 160 367 160 493 q 222 169 160 240 q 394 97 285 97 m 222 788 l 382 1069 l 450 1069 l 610 788 l 522 788 l 417 999 l 310 788 l 222 788 z "},"ģ":{"ha":826,"x_min":71,"x_max":711,"o":"m 711 696 l 711 -3 q 636 -232 711 -154 q 415 -310 561 -310 q 144 -235 260 -310 l 161 -161 q 286 -218 229 -201 q 417 -235 343 -235 q 574 -178 521 -235 q 628 -11 628 -121 l 628 168 q 533 59 596 97 q 383 21 471 21 q 221 65 292 21 q 110 187 150 108 q 71 367 71 265 q 110 548 71 469 q 221 669 150 626 q 383 713 292 713 q 533 676 471 713 q 626 571 594 640 l 626 696 l 711 696 m 394 97 q 565 169 503 97 q 626 367 626 242 q 565 566 626 493 q 394 639 503 639 q 222 566 285 639 q 160 367 160 493 q 222 169 160 240 q 394 97 285 97 m 475 931 l 475 828 l 357 828 l 357 906 q 372 1001 357 958 q 425 1082 388 1043 l 469 1047 q 431 991 442 1018 q 419 931 421 964 l 475 931 z "},"ġ":{"ha":826,"x_min":71,"x_max":711,"o":"m 711 696 l 711 -3 q 636 -232 711 -154 q 415 -310 561 -310 q 144 -235 260 -310 l 161 -161 q 286 -218 229 -201 q 417 -235 343 -235 q 574 -178 521 -235 q 628 -11 628 -121 l 628 168 q 533 59 596 97 q 383 21 471 21 q 221 65 292 21 q 110 187 150 108 q 71 367 71 265 q 110 548 71 469 q 221 669 150 626 q 383 713 292 713 q 533 676 471 713 q 626 571 594 640 l 626 696 l 711 696 m 394 97 q 565 169 503 97 q 626 367 626 242 q 565 566 626 493 q 394 639 503 639 q 222 566 285 639 q 160 367 160 493 q 222 169 160 240 q 394 97 285 97 m 472 983 l 472 875 l 360 875 l 360 983 l 472 983 z "},"ḡ":{"ha":826,"x_min":71,"x_max":711,"o":"m 711 696 l 711 -3 q 636 -232 711 -154 q 415 -310 561 -310 q 144 -235 260 -310 l 161 -161 q 286 -218 229 -201 q 417 -235 343 -235 q 574 -178 521 -235 q 628 -11 628 -121 l 628 168 q 533 59 596 97 q 383 21 471 21 q 221 65 292 21 q 110 187 150 108 q 71 367 71 265 q 110 548 71 469 q 221 669 150 626 q 383 713 292 713 q 533 676 471 713 q 626 571 594 640 l 626 696 l 711 696 m 394 97 q 565 169 503 97 q 626 367 626 242 q 565 566 626 493 q 394 639 503 639 q 222 566 285 639 q 160 367 160 493 q 222 169 160 240 q 394 97 285 97 m 208 965 l 624 965 l 624 893 l 208 893 l 208 965 z "},"h":{"ha":803,"x_min":115,"x_max":690,"o":"m 439 713 q 690 443 690 713 l 690 0 l 606 0 l 606 438 q 563 590 606 542 q 431 639 521 639 q 263 575 326 639 q 199 403 199 511 l 199 0 l 115 0 l 115 1022 l 199 1022 l 199 575 q 294 678 232 643 q 439 713 357 713 z "},"ħ":{"ha":803,"x_min":-19,"x_max":690,"o":"m 439 713 q 690 443 690 713 l 690 0 l 606 0 l 606 438 q 563 590 606 542 q 431 639 521 639 q 263 575 326 639 q 199 403 199 511 l 199 0 l 115 0 l 115 818 l -19 818 l -19 885 l 115 885 l 115 1022 l 199 1022 l 199 885 l 481 885 l 481 818 l 199 818 l 199 575 q 294 678 232 643 q 439 713 357 713 z "},"ḫ":{"ha":803,"x_min":115,"x_max":690,"o":"m 439 713 q 690 443 690 713 l 690 0 l 606 0 l 606 438 q 563 590 606 542 q 431 639 521 639 q 263 575 326 639 q 199 403 199 511 l 199 0 l 115 0 l 115 1022 l 199 1022 l 199 575 q 294 678 232 643 q 439 713 357 713 m 401 -290 q 267 -249 326 -290 q 178 -121 208 -208 l 242 -93 q 312 -191 272 -161 q 401 -221 351 -221 q 490 -191 450 -221 q 560 -93 529 -161 l 624 -119 q 535 -249 594 -208 q 401 -290 475 -290 z "},"ĥ":{"ha":803,"x_min":-36,"x_max":690,"o":"m 439 713 q 690 443 690 713 l 690 0 l 606 0 l 606 438 q 563 590 606 542 q 431 639 521 639 q 263 575 326 639 q 199 403 199 511 l 199 0 l 115 0 l 115 1022 l 199 1022 l 199 575 q 294 678 232 643 q 439 713 357 713 m -36 1107 l 125 1317 l 190 1317 l 351 1107 l 264 1107 l 158 1258 l 51 1107 l -36 1107 z "},"ḥ":{"ha":803,"x_min":115,"x_max":690,"o":"m 439 713 q 690 443 690 713 l 690 0 l 606 0 l 606 438 q 563 590 606 542 q 431 639 521 639 q 263 575 326 639 q 199 403 199 511 l 199 0 l 115 0 l 115 1022 l 199 1022 l 199 575 q 294 678 232 643 q 439 713 357 713 m 456 -142 l 456 -250 l 346 -250 l 346 -142 l 456 -142 z "},"i":{"ha":317,"x_min":103,"x_max":215,"o":"m 115 696 l 199 696 l 199 0 l 115 0 l 115 696 m 215 983 l 215 875 l 103 875 l 103 983 l 215 983 z "},"ı":{"ha":317,"x_min":115,"x_max":199,"o":"m 115 696 l 199 696 l 199 0 l 115 0 l 115 696 z "},"í":{"ha":317,"x_min":115,"x_max":375,"o":"m 115 696 l 199 696 l 199 0 l 115 0 l 115 696 m 126 788 l 267 1069 l 375 1069 l 192 788 l 126 788 z "},"ĭ":{"ha":317,"x_min":-64,"x_max":382,"o":"m 115 696 l 199 696 l 199 0 l 115 0 l 115 696 m 160 833 q 26 874 86 833 q -64 1001 -33 915 l 0 1029 q 70 931 31 961 q 160 901 110 901 q 248 931 208 901 q 318 1029 288 961 l 382 1003 q 293 874 353 915 q 160 833 233 833 z "},"î":{"ha":317,"x_min":-35,"x_max":353,"o":"m 115 696 l 199 696 l 199 0 l 115 0 l 115 696 m -35 788 l 125 1069 l 193 1069 l 353 788 l 265 788 l 160 999 l 53 788 l -35 788 z "},"ȉ":{"ha":317,"x_min":-57,"x_max":264,"o":"m 115 696 l 199 696 l 199 0 l 115 0 l 115 696 m -57 1069 l 33 1069 l 101 788 l 54 788 l -57 1069 m 106 1069 l 196 1069 l 264 788 l 217 788 l 106 1069 z "},"ï":{"ha":317,"x_min":-10,"x_max":328,"o":"m 115 696 l 199 696 l 199 0 l 115 0 l 115 696 m 94 981 l 94 878 l -10 878 l -10 981 l 94 981 m 328 981 l 328 878 l 224 878 l 224 981 l 328 981 z "},"ḯ":{"ha":317,"x_min":-10,"x_max":375,"o":"m 115 696 l 199 696 l 199 0 l 115 0 l 115 696 m 94 981 l 94 878 l -10 878 l -10 981 l 94 981 m 328 981 l 328 878 l 224 878 l 224 981 l 328 981 m 126 1060 l 267 1342 l 375 1342 l 192 1060 l 126 1060 z "},"ị":{"ha":317,"x_min":101,"x_max":215,"o":"m 115 696 l 199 696 l 199 0 l 115 0 l 115 696 m 215 983 l 215 875 l 103 875 l 103 983 l 215 983 m 211 -142 l 211 -250 l 101 -250 l 101 -142 l 211 -142 z "},"ì":{"ha":317,"x_min":-57,"x_max":199,"o":"m 115 696 l 199 696 l 199 0 l 115 0 l 115 696 m -57 1069 l 51 1069 l 192 788 l 126 788 l -57 1069 z "},"ỉ":{"ha":317,"x_min":56,"x_max":300,"o":"m 115 696 l 199 696 l 199 0 l 115 0 l 115 696 m 194 788 l 129 788 l 129 828 q 142 874 129 856 q 183 921 156 893 q 212 951 203 939 q 221 976 221 963 q 205 1002 221 993 q 161 1011 189 1011 q 75 994 119 1011 l 56 1050 q 167 1075 110 1075 q 264 1049 228 1075 q 300 982 300 1022 q 285 930 300 950 q 243 888 271 910 q 206 851 218 867 q 194 810 194 835 l 194 788 z "},"ȋ":{"ha":317,"x_min":-64,"x_max":382,"o":"m 115 696 l 199 696 l 199 0 l 115 0 l 115 696 m 160 1028 q 292 987 233 1028 q 382 858 351 946 l 318 831 q 249 930 288 900 q 160 960 210 960 q 70 930 110 960 q 0 831 31 900 l -64 857 q 25 987 -35 946 q 160 1028 85 1028 z "},"ī":{"ha":317,"x_min":-49,"x_max":367,"o":"m 115 696 l 199 696 l 199 0 l 115 0 l 115 696 m -49 965 l 367 965 l 367 893 l -49 893 l -49 965 z "},"į":{"ha":317,"x_min":-12,"x_max":268,"o":"m 215 881 l 101 881 l 101 989 l 215 989 l 215 881 m 268 -243 q 150 -274 218 -274 q 33 -233 78 -274 q -12 -126 -12 -192 q 21 -27 -12 -71 q 115 39 54 17 l 115 696 l 199 696 l 199 0 l 194 0 q 98 -33 133 0 q 63 -117 63 -67 q 90 -186 63 -161 q 161 -211 117 -211 q 244 -183 203 -211 l 268 -243 z "},"ĩ":{"ha":317,"x_min":-61,"x_max":379,"o":"m 115 696 l 199 696 l 199 0 l 115 0 l 115 696 m -61 858 q -30 967 -61 928 q 57 1006 1 1006 q 113 994 86 1006 q 176 958 139 982 q 225 931 208 939 q 258 924 242 924 q 308 947 290 924 q 325 1001 325 969 l 379 1001 q 348 893 379 932 q 261 854 317 854 q 206 866 232 854 q 142 901 179 878 q 93 928 110 921 q 60 936 76 936 q 10 913 28 936 q -7 858 -7 890 l -61 858 z "},"j":{"ha":317,"x_min":-72,"x_max":215,"o":"m -72 -217 q -4 -228 -35 -228 q 84 -196 53 -228 q 115 -82 115 -164 l 115 696 l 199 696 l 199 -97 q 149 -253 199 -201 q 11 -304 99 -304 q -72 -293 -28 -304 l -72 -217 m 215 983 l 215 875 l 103 875 l 103 983 l 215 983 z "},"ȷ":{"ha":317,"x_min":-72,"x_max":199,"o":"m -72 -217 q -4 -228 -35 -228 q 84 -196 53 -228 q 115 -82 115 -164 l 115 696 l 199 696 l 199 -97 q 149 -253 199 -201 q 11 -304 99 -304 q -72 -293 -28 -304 l -72 -217 z "},"ĵ":{"ha":317,"x_min":-72,"x_max":353,"o":"m -72 -217 q -4 -228 -35 -228 q 84 -196 53 -228 q 115 -82 115 -164 l 115 696 l 199 696 l 199 -97 q 149 -253 199 -201 q 11 -304 99 -304 q -72 -293 -28 -304 l -72 -217 m -35 788 l 125 1069 l 193 1069 l 353 788 l 265 788 l 160 999 l 53 788 l -35 788 z "},"k":{"ha":692,"x_min":115,"x_max":697,"o":"m 582 0 l 199 339 l 199 0 l 115 0 l 115 1022 l 199 1022 l 199 372 l 549 696 l 658 696 l 294 361 l 697 0 l 582 0 z "},"ķ":{"ha":692,"x_min":115,"x_max":697,"o":"m 582 0 l 199 339 l 199 0 l 115 0 l 115 1022 l 199 1022 l 199 372 l 549 696 l 658 696 l 294 361 l 697 0 l 582 0 m 404 -104 l 404 -182 q 389 -277 404 -235 q 336 -358 374 -319 l 292 -324 q 330 -267 319 -294 q 342 -207 340 -240 l 286 -207 l 286 -104 l 404 -104 z "},"ĸ":{"ha":692,"x_min":115,"x_max":697,"o":"m 582 0 l 199 339 l 199 0 l 115 0 l 115 696 l 199 696 l 199 372 l 549 696 l 658 696 l 294 361 l 697 0 l 582 0 z "},"l":{"ha":317,"x_min":115,"x_max":199,"o":"m 115 1022 l 199 1022 l 199 0 l 115 0 l 115 1022 z "},"ĺ":{"ha":317,"x_min":115,"x_max":371,"o":"m 115 1022 l 199 1022 l 199 0 l 115 0 l 115 1022 m 126 1107 l 267 1317 l 371 1317 l 192 1107 l 126 1107 z "},"ľ":{"ha":317,"x_min":115,"x_max":342,"o":"m 115 1022 l 199 1022 l 199 0 l 115 0 l 115 1022 m 256 751 l 256 1022 l 342 1022 l 304 751 l 256 751 z "},"ļ":{"ha":317,"x_min":100,"x_max":218,"o":"m 115 1022 l 199 1022 l 199 0 l 115 0 l 115 1022 m 218 -104 l 218 -182 q 203 -277 218 -235 q 150 -358 188 -319 l 106 -324 q 144 -267 133 -294 q 156 -207 154 -240 l 100 -207 l 100 -104 l 218 -104 z "},"ŀ":{"ha":326,"x_min":115,"x_max":374,"o":"m 115 1022 l 199 1022 l 199 0 l 115 0 l 115 1022 m 374 554 l 374 442 l 254 442 l 254 554 l 374 554 z "},"ḷ":{"ha":317,"x_min":104,"x_max":214,"o":"m 115 1022 l 199 1022 l 199 0 l 115 0 l 115 1022 m 214 -142 l 214 -250 l 104 -250 l 104 -142 l 214 -142 z "},"ǉ":{"ha":633,"x_min":115,"x_max":532,"o":"m 115 1022 l 199 1022 l 199 0 l 115 0 l 115 1022 m 244 -217 q 313 -228 282 -228 q 401 -196 369 -228 q 432 -82 432 -164 l 432 696 l 515 696 l 515 -97 q 465 -253 515 -201 q 328 -304 415 -304 q 244 -293 289 -304 l 244 -217 m 532 983 l 532 875 l 419 875 l 419 983 l 532 983 z "},"ḻ":{"ha":317,"x_min":-49,"x_max":367,"o":"m 115 1022 l 199 1022 l 199 0 l 115 0 l 115 1022 m -49 -160 l 367 -160 l 367 -232 l -49 -232 l -49 -160 z "},"ł":{"ha":374,"x_min":-7,"x_max":382,"o":"m 229 493 l 229 0 l 144 0 l 144 444 l 31 379 l -7 442 l 144 531 l 144 1022 l 229 1022 l 229 579 l 343 646 l 382 581 l 229 493 z "},"m":{"ha":1207,"x_min":104,"x_max":1096,"o":"m 865 713 q 1096 443 1096 713 l 1096 0 l 1011 0 l 1011 438 q 974 591 1011 543 q 854 639 936 639 q 703 575 758 639 q 649 401 649 511 l 649 0 l 564 0 l 564 438 q 526 591 564 543 q 406 639 488 639 q 255 575 311 639 q 199 401 199 511 l 199 0 l 115 0 l 115 503 q 104 696 115 611 l 185 696 l 196 571 q 283 676 225 640 q 417 713 340 713 q 632 576 585 713 q 723 676 661 640 q 865 713 785 713 z "},"ṃ":{"ha":1207,"x_min":104,"x_max":1096,"o":"m 865 713 q 1096 443 1096 713 l 1096 0 l 1011 0 l 1011 438 q 974 591 1011 543 q 854 639 936 639 q 703 575 758 639 q 649 401 649 511 l 649 0 l 564 0 l 564 438 q 526 591 564 543 q 406 639 488 639 q 255 575 311 639 q 199 401 199 511 l 199 0 l 115 0 l 115 503 q 104 696 115 611 l 185 696 l 196 571 q 283 676 225 640 q 417 713 340 713 q 632 576 585 713 q 723 676 661 640 q 865 713 785 713 m 661 -142 l 661 -250 l 551 -250 l 551 -142 l 661 -142 z "},"n":{"ha":803,"x_min":104,"x_max":690,"o":"m 439 713 q 690 443 690 713 l 690 0 l 606 0 l 606 438 q 563 590 606 542 q 431 639 521 639 q 263 575 326 639 q 199 403 199 511 l 199 0 l 115 0 l 115 503 q 104 696 115 611 l 185 696 l 196 568 q 292 676 228 639 q 439 713 356 713 z "},"ń":{"ha":803,"x_min":104,"x_max":690,"o":"m 439 713 q 690 443 690 713 l 690 0 l 606 0 l 606 438 q 563 590 606 542 q 431 639 521 639 q 263 575 326 639 q 199 403 199 511 l 199 0 l 115 0 l 115 503 q 104 696 115 611 l 185 696 l 196 568 q 292 676 228 639 q 439 713 356 713 m 368 788 l 508 1069 l 617 1069 l 433 788 l 368 788 z "},"ŉ":{"ha":803,"x_min":104,"x_max":690,"o":"m 265 1056 l 265 976 q 250 881 265 924 q 197 801 235 839 l 153 835 q 191 892 181 864 q 203 951 201 919 l 147 951 l 147 1056 l 265 1056 m 439 713 q 690 443 690 713 l 690 0 l 606 0 l 606 438 q 563 590 606 542 q 431 639 521 639 q 263 575 326 639 q 199 403 199 511 l 199 0 l 115 0 l 115 503 q 104 696 115 611 l 185 696 l 196 568 q 292 676 228 639 q 439 713 356 713 z "},"ň":{"ha":803,"x_min":104,"x_max":690,"o":"m 439 713 q 690 443 690 713 l 690 0 l 606 0 l 606 438 q 563 590 606 542 q 431 639 521 639 q 263 575 326 639 q 199 403 199 511 l 199 0 l 115 0 l 115 503 q 104 696 115 611 l 185 696 l 196 568 q 292 676 228 639 q 439 713 356 713 m 594 1069 l 435 788 l 367 788 l 207 1069 l 294 1069 l 401 857 l 507 1069 l 594 1069 z "},"ņ":{"ha":803,"x_min":104,"x_max":690,"o":"m 439 713 q 690 443 690 713 l 690 0 l 606 0 l 606 438 q 563 590 606 542 q 431 639 521 639 q 263 575 326 639 q 199 403 199 511 l 199 0 l 115 0 l 115 503 q 104 696 115 611 l 185 696 l 196 568 q 292 676 228 639 q 439 713 356 713 m 460 -104 l 460 -182 q 444 -277 460 -235 q 392 -358 429 -319 l 347 -324 q 385 -267 375 -294 q 397 -207 396 -240 l 342 -207 l 342 -104 l 460 -104 z "},"ṅ":{"ha":803,"x_min":104,"x_max":690,"o":"m 439 713 q 690 443 690 713 l 690 0 l 606 0 l 606 438 q 563 590 606 542 q 431 639 521 639 q 263 575 326 639 q 199 403 199 511 l 199 0 l 115 0 l 115 503 q 104 696 115 611 l 185 696 l 196 568 q 292 676 228 639 q 439 713 356 713 m 457 983 l 457 875 l 344 875 l 344 983 l 457 983 z "},"ṇ":{"ha":803,"x_min":104,"x_max":690,"o":"m 439 713 q 690 443 690 713 l 690 0 l 606 0 l 606 438 q 563 590 606 542 q 431 639 521 639 q 263 575 326 639 q 199 403 199 511 l 199 0 l 115 0 l 115 503 q 104 696 115 611 l 185 696 l 196 568 q 292 676 228 639 q 439 713 356 713 m 456 -142 l 456 -250 l 346 -250 l 346 -142 l 456 -142 z "},"ŋ":{"ha":803,"x_min":104,"x_max":690,"o":"m 439 713 q 690 443 690 713 l 690 -69 q 641 -250 690 -196 q 501 -304 592 -304 q 419 -293 461 -304 l 419 -217 q 486 -228 454 -228 q 575 -192 544 -228 q 606 -53 606 -156 l 606 438 q 563 590 606 542 q 431 639 521 639 q 263 575 326 639 q 199 403 199 511 l 199 0 l 115 0 l 115 503 q 104 696 115 611 l 185 696 l 196 568 q 292 676 228 639 q 439 713 356 713 z "},"ǌ":{"ha":1119,"x_min":104,"x_max":1018,"o":"m 439 713 q 690 443 690 713 l 690 0 l 606 0 l 606 438 q 563 590 606 542 q 431 639 521 639 q 263 575 326 639 q 199 403 199 511 l 199 0 l 115 0 l 115 503 q 104 696 115 611 l 185 696 l 196 568 q 292 676 228 639 q 439 713 356 713 m 731 -217 q 799 -228 768 -228 q 887 -196 856 -228 q 918 -82 918 -164 l 918 696 l 1001 696 l 1001 -97 q 951 -253 1001 -201 q 814 -304 901 -304 q 731 -293 775 -304 l 731 -217 m 1018 983 l 1018 875 l 906 875 l 906 983 l 1018 983 z "},"ṉ":{"ha":803,"x_min":104,"x_max":690,"o":"m 439 713 q 690 443 690 713 l 690 0 l 606 0 l 606 438 q 563 590 606 542 q 431 639 521 639 q 263 575 326 639 q 199 403 199 511 l 199 0 l 115 0 l 115 503 q 104 696 115 611 l 185 696 l 196 568 q 292 676 228 639 q 439 713 356 713 m 193 -160 l 608 -160 l 608 -232 l 193 -232 l 193 -160 z "},"ñ":{"ha":803,"x_min":104,"x_max":690,"o":"m 439 713 q 690 443 690 713 l 690 0 l 606 0 l 606 438 q 563 590 606 542 q 431 639 521 639 q 263 575 326 639 q 199 403 199 511 l 199 0 l 115 0 l 115 503 q 104 696 115 611 l 185 696 l 196 568 q 292 676 228 639 q 439 713 356 713 m 181 858 q 212 967 181 928 q 299 1006 243 1006 q 354 994 328 1006 q 418 958 381 982 q 467 931 450 939 q 500 924 483 924 q 549 947 532 924 q 567 1001 567 969 l 621 1001 q 590 893 621 932 q 503 854 558 854 q 447 866 474 854 q 383 901 421 878 q 335 928 351 921 q 301 936 318 936 q 252 913 269 936 q 235 858 235 890 l 181 858 z "},"o":{"ha":781,"x_min":71,"x_max":710,"o":"m 392 -10 q 223 35 296 -10 q 110 161 150 79 q 71 351 71 243 q 110 542 71 460 q 223 668 150 624 q 392 713 296 713 q 558 668 486 713 q 670 542 631 624 q 710 351 710 460 q 670 161 710 243 q 558 35 631 79 q 392 -10 486 -10 m 390 65 q 562 140 501 65 q 622 351 622 214 q 561 563 622 488 q 392 639 500 639 q 221 563 282 639 q 160 351 160 488 q 219 139 160 213 q 390 65 279 65 z "},"ó":{"ha":781,"x_min":71,"x_max":710,"o":"m 392 -10 q 223 35 296 -10 q 110 161 150 79 q 71 351 71 243 q 110 542 71 460 q 223 668 150 624 q 392 713 296 713 q 558 668 486 713 q 670 542 631 624 q 710 351 710 460 q 670 161 710 243 q 558 35 631 79 q 392 -10 486 -10 m 390 65 q 562 140 501 65 q 622 351 622 214 q 561 563 622 488 q 392 639 500 639 q 221 563 282 639 q 160 351 160 488 q 219 139 160 213 q 390 65 279 65 m 358 788 l 499 1069 l 607 1069 l 424 788 l 358 788 z "},"ŏ":{"ha":781,"x_min":71,"x_max":710,"o":"m 392 -10 q 223 35 296 -10 q 110 161 150 79 q 71 351 71 243 q 110 542 71 460 q 223 668 150 624 q 392 713 296 713 q 558 668 486 713 q 670 542 631 624 q 710 351 710 460 q 670 161 710 243 q 558 35 631 79 q 392 -10 486 -10 m 390 65 q 562 140 501 65 q 622 351 622 214 q 561 563 622 488 q 392 639 500 639 q 221 563 282 639 q 160 351 160 488 q 219 139 160 213 q 390 65 279 65 m 392 833 q 258 874 318 833 q 168 1001 199 915 l 232 1029 q 302 931 263 961 q 392 901 342 901 q 480 931 440 901 q 550 1029 519 961 l 614 1003 q 525 874 585 915 q 392 833 465 833 z "},"ô":{"ha":781,"x_min":71,"x_max":710,"o":"m 392 -10 q 223 35 296 -10 q 110 161 150 79 q 71 351 71 243 q 110 542 71 460 q 223 668 150 624 q 392 713 296 713 q 558 668 486 713 q 670 542 631 624 q 710 351 710 460 q 670 161 710 243 q 558 35 631 79 q 392 -10 486 -10 m 390 65 q 562 140 501 65 q 622 351 622 214 q 561 563 622 488 q 392 639 500 639 q 221 563 282 639 q 160 351 160 488 q 219 139 160 213 q 390 65 279 65 m 197 788 l 357 1069 l 425 1069 l 585 788 l 497 788 l 392 999 l 285 788 l 197 788 z "},"ố":{"ha":781,"x_min":71,"x_max":744,"o":"m 392 -10 q 223 35 296 -10 q 110 161 150 79 q 71 351 71 243 q 110 542 71 460 q 223 668 150 624 q 392 713 296 713 q 558 668 486 713 q 670 542 631 624 q 710 351 710 460 q 670 161 710 243 q 558 35 631 79 q 392 -10 486 -10 m 390 65 q 562 140 501 65 q 622 351 622 214 q 561 563 622 488 q 392 639 500 639 q 221 563 282 639 q 160 351 160 488 q 219 139 160 213 q 390 65 279 65 m 506 931 l 642 1129 l 744 1129 l 565 931 l 506 931 m 197 788 l 358 997 l 424 997 l 585 788 l 497 788 l 392 938 l 285 788 l 197 788 z "},"ộ":{"ha":781,"x_min":71,"x_max":710,"o":"m 392 -10 q 223 35 296 -10 q 110 161 150 79 q 71 351 71 243 q 110 542 71 460 q 223 668 150 624 q 392 713 296 713 q 558 668 486 713 q 670 542 631 624 q 710 351 710 460 q 670 161 710 243 q 558 35 631 79 q 392 -10 486 -10 m 390 65 q 562 140 501 65 q 622 351 622 214 q 561 563 622 488 q 392 639 500 639 q 221 563 282 639 q 160 351 160 488 q 219 139 160 213 q 390 65 279 65 m 446 -142 l 446 -250 l 336 -250 l 336 -142 l 446 -142 m 197 788 l 357 1069 l 425 1069 l 585 788 l 497 788 l 392 999 l 285 788 l 197 788 z "},"ồ":{"ha":781,"x_min":71,"x_max":710,"o":"m 392 -10 q 223 35 296 -10 q 110 161 150 79 q 71 351 71 243 q 110 542 71 460 q 223 668 150 624 q 392 713 296 713 q 558 668 486 713 q 670 542 631 624 q 710 351 710 460 q 670 161 710 243 q 558 35 631 79 q 392 -10 486 -10 m 390 65 q 562 140 501 65 q 622 351 622 214 q 561 563 622 488 q 392 639 500 639 q 221 563 282 639 q 160 351 160 488 q 219 139 160 213 q 390 65 279 65 m 414 1129 l 515 1129 l 625 931 l 567 931 l 414 1129 m 197 788 l 358 997 l 424 997 l 585 788 l 497 788 l 392 938 l 285 788 l 197 788 z "},"ổ":{"ha":781,"x_min":71,"x_max":710,"o":"m 392 -10 q 223 35 296 -10 q 110 161 150 79 q 71 351 71 243 q 110 542 71 460 q 223 668 150 624 q 392 713 296 713 q 558 668 486 713 q 670 542 631 624 q 710 351 710 460 q 670 161 710 243 q 558 35 631 79 q 392 -10 486 -10 m 390 65 q 562 140 501 65 q 622 351 622 214 q 561 563 622 488 q 392 639 500 639 q 221 563 282 639 q 160 351 160 488 q 219 139 160 213 q 390 65 279 65 m 571 931 l 504 931 l 504 953 q 519 990 504 976 q 563 1014 535 1003 q 591 1028 582 1022 q 600 1044 600 1035 q 584 1066 600 1058 q 540 1074 568 1074 q 453 1056 496 1074 l 433 1113 q 543 1136 488 1136 q 642 1112 606 1136 q 679 1046 679 1088 q 664 1010 679 1022 q 617 982 649 997 q 583 964 594 972 q 571 943 571 956 l 571 931 m 197 788 l 358 997 l 424 997 l 585 788 l 497 788 l 392 938 l 285 788 l 197 788 z "},"ỗ":{"ha":781,"x_min":71,"x_max":710,"o":"m 392 -10 q 223 35 296 -10 q 110 161 150 79 q 71 351 71 243 q 110 542 71 460 q 223 668 150 624 q 392 713 296 713 q 558 668 486 713 q 670 542 631 624 q 710 351 710 460 q 670 161 710 243 q 558 35 631 79 q 392 -10 486 -10 m 390 65 q 562 140 501 65 q 622 351 622 214 q 561 563 622 488 q 392 639 500 639 q 221 563 282 639 q 160 351 160 488 q 219 139 160 213 q 390 65 279 65 m 171 1017 q 203 1114 171 1076 q 289 1151 235 1151 q 343 1142 317 1151 q 408 1115 369 1133 q 455 1094 436 1101 q 490 1088 474 1088 q 539 1109 521 1088 q 557 1156 557 1131 l 611 1156 q 579 1058 611 1096 q 493 1019 547 1019 q 437 1029 464 1019 q 374 1057 410 1039 q 350 1068 368 1060 q 317 1081 332 1076 q 292 1085 303 1085 q 243 1064 261 1085 q 225 1017 225 1043 l 171 1017 m 197 788 l 358 997 l 424 997 l 585 788 l 497 788 l 392 938 l 285 788 l 197 788 z "},"ȍ":{"ha":781,"x_min":71,"x_max":710,"o":"m 392 -10 q 223 35 296 -10 q 110 161 150 79 q 71 351 71 243 q 110 542 71 460 q 223 668 150 624 q 392 713 296 713 q 558 668 486 713 q 670 542 631 624 q 710 351 710 460 q 670 161 710 243 q 558 35 631 79 q 392 -10 486 -10 m 390 65 q 562 140 501 65 q 622 351 622 214 q 561 563 622 488 q 392 639 500 639 q 221 563 282 639 q 160 351 160 488 q 219 139 160 213 q 390 65 279 65 m 175 1069 l 265 1069 l 333 788 l 286 788 l 175 1069 m 338 1069 l 428 1069 l 496 788 l 449 788 l 338 1069 z "},"ö":{"ha":781,"x_min":71,"x_max":710,"o":"m 392 -10 q 223 35 296 -10 q 110 161 150 79 q 71 351 71 243 q 110 542 71 460 q 223 668 150 624 q 392 713 296 713 q 558 668 486 713 q 670 542 631 624 q 710 351 710 460 q 670 161 710 243 q 558 35 631 79 q 392 -10 486 -10 m 390 65 q 562 140 501 65 q 622 351 622 214 q 561 563 622 488 q 392 639 500 639 q 221 563 282 639 q 160 351 160 488 q 219 139 160 213 q 390 65 279 65 m 326 981 l 326 878 l 222 878 l 222 981 l 326 981 m 560 981 l 560 878 l 456 878 l 456 981 l 560 981 z "},"ȫ":{"ha":781,"x_min":71,"x_max":710,"o":"m 392 -10 q 223 35 296 -10 q 110 161 150 79 q 71 351 71 243 q 110 542 71 460 q 223 668 150 624 q 392 713 296 713 q 558 668 486 713 q 670 542 631 624 q 710 351 710 460 q 670 161 710 243 q 558 35 631 79 q 392 -10 486 -10 m 390 65 q 562 140 501 65 q 622 351 622 214 q 561 563 622 488 q 392 639 500 639 q 221 563 282 639 q 160 351 160 488 q 219 139 160 213 q 390 65 279 65 m 326 981 l 326 878 l 222 878 l 222 981 l 326 981 m 560 981 l 560 878 l 456 878 l 456 981 l 560 981 m 183 1238 l 599 1238 l 599 1165 l 183 1165 l 183 1238 z "},"ȱ":{"ha":781,"x_min":71,"x_max":710,"o":"m 392 -10 q 223 35 296 -10 q 110 161 150 79 q 71 351 71 243 q 110 542 71 460 q 223 668 150 624 q 392 713 296 713 q 558 668 486 713 q 670 542 631 624 q 710 351 710 460 q 670 161 710 243 q 558 35 631 79 q 392 -10 486 -10 m 390 65 q 562 140 501 65 q 622 351 622 214 q 561 563 622 488 q 392 639 500 639 q 221 563 282 639 q 160 351 160 488 q 219 139 160 213 q 390 65 279 65 m 447 983 l 447 875 l 335 875 l 335 983 l 447 983 m 183 1238 l 599 1238 l 599 1165 l 183 1165 l 183 1238 z "},"ọ":{"ha":781,"x_min":71,"x_max":710,"o":"m 392 -10 q 223 35 296 -10 q 110 161 150 79 q 71 351 71 243 q 110 542 71 460 q 223 668 150 624 q 392 713 296 713 q 558 668 486 713 q 670 542 631 624 q 710 351 710 460 q 670 161 710 243 q 558 35 631 79 q 392 -10 486 -10 m 390 65 q 562 140 501 65 q 622 351 622 214 q 561 563 622 488 q 392 639 500 639 q 221 563 282 639 q 160 351 160 488 q 219 139 160 213 q 390 65 279 65 m 446 -142 l 446 -250 l 336 -250 l 336 -142 l 446 -142 z "},"ò":{"ha":781,"x_min":71,"x_max":710,"o":"m 392 -10 q 223 35 296 -10 q 110 161 150 79 q 71 351 71 243 q 110 542 71 460 q 223 668 150 624 q 392 713 296 713 q 558 668 486 713 q 670 542 631 624 q 710 351 710 460 q 670 161 710 243 q 558 35 631 79 q 392 -10 486 -10 m 390 65 q 562 140 501 65 q 622 351 622 214 q 561 563 622 488 q 392 639 500 639 q 221 563 282 639 q 160 351 160 488 q 219 139 160 213 q 390 65 279 65 m 175 1069 l 283 1069 l 424 788 l 358 788 l 175 1069 z "},"ỏ":{"ha":781,"x_min":71,"x_max":710,"o":"m 392 -10 q 223 35 296 -10 q 110 161 150 79 q 71 351 71 243 q 110 542 71 460 q 223 668 150 624 q 392 713 296 713 q 558 668 486 713 q 670 542 631 624 q 710 351 710 460 q 670 161 710 243 q 558 35 631 79 q 392 -10 486 -10 m 390 65 q 562 140 501 65 q 622 351 622 214 q 561 563 622 488 q 392 639 500 639 q 221 563 282 639 q 160 351 160 488 q 219 139 160 213 q 390 65 279 65 m 426 788 l 361 788 l 361 828 q 374 874 361 856 q 415 921 388 893 q 444 951 435 939 q 453 976 453 963 q 437 1002 453 993 q 393 1011 421 1011 q 307 994 351 1011 l 288 1050 q 399 1075 342 1075 q 496 1049 460 1075 q 532 982 532 1022 q 517 930 532 950 q 475 888 503 910 q 438 851 450 867 q 426 810 426 835 l 426 788 z "},"ơ":{"ha":781,"x_min":71,"x_max":710,"o":"m 574 654 q 674 531 639 608 q 710 351 710 454 q 670 161 710 243 q 558 35 631 79 q 392 -10 486 -10 q 223 35 296 -10 q 110 161 150 79 q 71 351 71 243 q 110 542 71 460 q 223 668 150 624 q 390 713 296 713 q 426 711 411 713 q 450 708 440 710 q 489 704 472 704 q 594 742 561 704 q 628 865 628 779 l 628 883 l 706 883 l 706 851 q 672 726 706 776 q 574 654 638 675 m 390 65 q 562 140 501 65 q 622 351 622 214 q 561 563 622 488 q 392 639 500 639 q 221 563 282 639 q 160 351 160 488 q 219 139 160 213 q 390 65 279 65 z "},"ớ":{"ha":781,"x_min":71,"x_max":710,"o":"m 574 654 q 674 531 639 608 q 710 351 710 454 q 670 161 710 243 q 558 35 631 79 q 392 -10 486 -10 q 223 35 296 -10 q 110 161 150 79 q 71 351 71 243 q 110 542 71 460 q 223 668 150 624 q 390 713 296 713 q 426 711 411 713 q 450 708 440 710 q 489 704 472 704 q 594 742 561 704 q 628 865 628 779 l 628 883 l 706 883 l 706 851 q 672 726 706 776 q 574 654 638 675 m 390 65 q 562 140 501 65 q 622 351 622 214 q 561 563 622 488 q 392 639 500 639 q 221 563 282 639 q 160 351 160 488 q 219 139 160 213 q 390 65 279 65 m 358 788 l 499 1069 l 607 1069 l 424 788 l 358 788 z "},"ợ":{"ha":781,"x_min":71,"x_max":710,"o":"m 574 654 q 674 531 639 608 q 710 351 710 454 q 670 161 710 243 q 558 35 631 79 q 392 -10 486 -10 q 223 35 296 -10 q 110 161 150 79 q 71 351 71 243 q 110 542 71 460 q 223 668 150 624 q 390 713 296 713 q 426 711 411 713 q 450 708 440 710 q 489 704 472 704 q 594 742 561 704 q 628 865 628 779 l 628 883 l 706 883 l 706 851 q 672 726 706 776 q 574 654 638 675 m 390 65 q 562 140 501 65 q 622 351 622 214 q 561 563 622 488 q 392 639 500 639 q 221 563 282 639 q 160 351 160 488 q 219 139 160 213 q 390 65 279 65 m 446 -142 l 446 -250 l 336 -250 l 336 -142 l 446 -142 z "},"ờ":{"ha":781,"x_min":71,"x_max":710,"o":"m 574 654 q 674 531 639 608 q 710 351 710 454 q 670 161 710 243 q 558 35 631 79 q 392 -10 486 -10 q 223 35 296 -10 q 110 161 150 79 q 71 351 71 243 q 110 542 71 460 q 223 668 150 624 q 390 713 296 713 q 426 711 411 713 q 450 708 440 710 q 489 704 472 704 q 594 742 561 704 q 628 865 628 779 l 628 883 l 706 883 l 706 851 q 672 726 706 776 q 574 654 638 675 m 390 65 q 562 140 501 65 q 622 351 622 214 q 561 563 622 488 q 392 639 500 639 q 221 563 282 639 q 160 351 160 488 q 219 139 160 213 q 390 65 279 65 m 175 1069 l 283 1069 l 424 788 l 358 788 l 175 1069 z "},"ở":{"ha":781,"x_min":71,"x_max":710,"o":"m 574 654 q 674 531 639 608 q 710 351 710 454 q 670 161 710 243 q 558 35 631 79 q 392 -10 486 -10 q 223 35 296 -10 q 110 161 150 79 q 71 351 71 243 q 110 542 71 460 q 223 668 150 624 q 390 713 296 713 q 426 711 411 713 q 450 708 440 710 q 489 704 472 704 q 594 742 561 704 q 628 865 628 779 l 628 883 l 706 883 l 706 851 q 672 726 706 776 q 574 654 638 675 m 390 65 q 562 140 501 65 q 622 351 622 214 q 561 563 622 488 q 392 639 500 639 q 221 563 282 639 q 160 351 160 488 q 219 139 160 213 q 390 65 279 65 m 426 788 l 361 788 l 361 828 q 374 874 361 856 q 415 921 388 893 q 444 951 435 939 q 453 976 453 963 q 437 1002 453 993 q 393 1011 421 1011 q 307 994 351 1011 l 288 1050 q 399 1075 342 1075 q 496 1049 460 1075 q 532 982 532 1022 q 517 930 532 950 q 475 888 503 910 q 438 851 450 867 q 426 810 426 835 l 426 788 z "},"ỡ":{"ha":781,"x_min":71,"x_max":710,"o":"m 574 654 q 674 531 639 608 q 710 351 710 454 q 670 161 710 243 q 558 35 631 79 q 392 -10 486 -10 q 223 35 296 -10 q 110 161 150 79 q 71 351 71 243 q 110 542 71 460 q 223 668 150 624 q 390 713 296 713 q 426 711 411 713 q 450 708 440 710 q 489 704 472 704 q 594 742 561 704 q 628 865 628 779 l 628 883 l 706 883 l 706 851 q 672 726 706 776 q 574 654 638 675 m 390 65 q 562 140 501 65 q 622 351 622 214 q 561 563 622 488 q 392 639 500 639 q 221 563 282 639 q 160 351 160 488 q 219 139 160 213 q 390 65 279 65 m 171 858 q 202 967 171 928 q 289 1006 233 1006 q 344 994 318 1006 q 408 958 371 982 q 457 931 440 939 q 490 924 474 924 q 540 947 522 924 q 557 1001 557 969 l 611 1001 q 580 893 611 932 q 493 854 549 854 q 438 866 464 854 q 374 901 411 878 q 325 928 342 921 q 292 936 308 936 q 242 913 260 936 q 225 858 225 890 l 171 858 z "},"ő":{"ha":781,"x_min":71,"x_max":710,"o":"m 392 -10 q 223 35 296 -10 q 110 161 150 79 q 71 351 71 243 q 110 542 71 460 q 223 668 150 624 q 392 713 296 713 q 558 668 486 713 q 670 542 631 624 q 710 351 710 460 q 670 161 710 243 q 558 35 631 79 q 392 -10 486 -10 m 390 65 q 562 140 501 65 q 622 351 622 214 q 561 563 622 488 q 392 639 500 639 q 221 563 282 639 q 160 351 160 488 q 219 139 160 213 q 390 65 279 65 m 286 788 l 354 1069 l 444 1069 l 333 788 l 286 788 m 449 788 l 517 1069 l 607 1069 l 496 788 l 449 788 z "},"ȏ":{"ha":781,"x_min":71,"x_max":710,"o":"m 392 -10 q 223 35 296 -10 q 110 161 150 79 q 71 351 71 243 q 110 542 71 460 q 223 668 150 624 q 392 713 296 713 q 558 668 486 713 q 670 542 631 624 q 710 351 710 460 q 670 161 710 243 q 558 35 631 79 q 392 -10 486 -10 m 390 65 q 562 140 501 65 q 622 351 622 214 q 561 563 622 488 q 392 639 500 639 q 221 563 282 639 q 160 351 160 488 q 219 139 160 213 q 390 65 279 65 m 392 1028 q 524 987 465 1028 q 614 858 583 946 l 550 831 q 481 930 519 900 q 392 960 442 960 q 302 930 342 960 q 232 831 263 900 l 168 857 q 257 987 197 946 q 392 1028 317 1028 z "},"ō":{"ha":781,"x_min":71,"x_max":710,"o":"m 392 -10 q 223 35 296 -10 q 110 161 150 79 q 71 351 71 243 q 110 542 71 460 q 223 668 150 624 q 392 713 296 713 q 558 668 486 713 q 670 542 631 624 q 710 351 710 460 q 670 161 710 243 q 558 35 631 79 q 392 -10 486 -10 m 390 65 q 562 140 501 65 q 622 351 622 214 q 561 563 622 488 q 392 639 500 639 q 221 563 282 639 q 160 351 160 488 q 219 139 160 213 q 390 65 279 65 m 183 965 l 599 965 l 599 893 l 183 893 l 183 965 z "},"ṓ":{"ha":781,"x_min":71,"x_max":710,"o":"m 392 -10 q 223 35 296 -10 q 110 161 150 79 q 71 351 71 243 q 110 542 71 460 q 223 668 150 624 q 392 713 296 713 q 558 668 486 713 q 670 542 631 624 q 710 351 710 460 q 670 161 710 243 q 558 35 631 79 q 392 -10 486 -10 m 390 65 q 562 140 501 65 q 622 351 622 214 q 561 563 622 488 q 392 639 500 639 q 221 563 282 639 q 160 351 160 488 q 219 139 160 213 q 390 65 279 65 m 183 965 l 599 965 l 599 893 l 183 893 l 183 965 m 358 1060 l 499 1342 l 607 1342 l 424 1060 l 358 1060 z "},"ṑ":{"ha":781,"x_min":71,"x_max":710,"o":"m 392 -10 q 223 35 296 -10 q 110 161 150 79 q 71 351 71 243 q 110 542 71 460 q 223 668 150 624 q 392 713 296 713 q 558 668 486 713 q 670 542 631 624 q 710 351 710 460 q 670 161 710 243 q 558 35 631 79 q 392 -10 486 -10 m 390 65 q 562 140 501 65 q 622 351 622 214 q 561 563 622 488 q 392 639 500 639 q 221 563 282 639 q 160 351 160 488 q 219 139 160 213 q 390 65 279 65 m 183 965 l 599 965 l 599 893 l 183 893 l 183 965 m 175 1342 l 283 1342 l 424 1060 l 358 1060 l 175 1342 z "},"ǫ":{"ha":781,"x_min":71,"x_max":710,"o":"m 507 11 q 409 -40 438 -11 q 381 -117 381 -68 q 407 -185 381 -160 q 478 -211 433 -211 q 563 -183 515 -211 l 585 -243 q 468 -274 536 -274 q 351 -233 397 -274 q 306 -126 306 -192 q 356 -8 306 -54 q 148 101 225 4 q 71 351 71 197 q 110 542 71 460 q 223 668 150 624 q 392 713 296 713 q 558 668 486 713 q 670 542 631 624 q 710 351 710 460 q 656 132 710 222 q 507 11 601 42 m 160 351 q 219 139 160 213 q 390 65 279 65 q 562 140 501 65 q 622 351 622 214 q 561 563 622 488 q 392 639 500 639 q 221 563 282 639 q 160 351 160 488 z "},"ø":{"ha":781,"x_min":71,"x_max":710,"o":"m 597 639 q 681 518 651 592 q 710 351 710 444 q 670 161 710 243 q 558 35 631 79 q 392 -10 486 -10 q 240 25 310 -10 l 192 -58 l 133 -24 l 183 64 q 100 185 129 111 q 71 351 71 258 q 110 542 71 460 q 223 668 150 624 q 392 713 296 713 q 540 678 474 713 l 588 760 l 649 728 l 597 639 m 158 351 q 224 133 158 206 l 503 613 q 392 639 456 639 q 220 563 282 639 q 158 351 158 488 m 390 65 q 562 140 501 65 q 622 351 622 214 q 557 569 622 492 l 278 90 q 390 65 325 65 z "},"ǿ":{"ha":781,"x_min":71,"x_max":710,"o":"m 597 639 q 681 518 651 592 q 710 351 710 444 q 670 161 710 243 q 558 35 631 79 q 392 -10 486 -10 q 240 25 310 -10 l 192 -58 l 133 -24 l 183 64 q 100 185 129 111 q 71 351 71 258 q 110 542 71 460 q 223 668 150 624 q 392 713 296 713 q 540 678 474 713 l 588 760 l 649 728 l 597 639 m 158 351 q 224 133 158 206 l 503 613 q 392 639 456 639 q 220 563 282 639 q 158 351 158 488 m 390 65 q 562 140 501 65 q 622 351 622 214 q 557 569 622 492 l 278 90 q 390 65 325 65 m 358 788 l 499 1069 l 607 1069 l 424 788 l 358 788 z "},"õ":{"ha":781,"x_min":71,"x_max":710,"o":"m 392 -10 q 223 35 296 -10 q 110 161 150 79 q 71 351 71 243 q 110 542 71 460 q 223 668 150 624 q 392 713 296 713 q 558 668 486 713 q 670 542 631 624 q 710 351 710 460 q 670 161 710 243 q 558 35 631 79 q 392 -10 486 -10 m 390 65 q 562 140 501 65 q 622 351 622 214 q 561 563 622 488 q 392 639 500 639 q 221 563 282 639 q 160 351 160 488 q 219 139 160 213 q 390 65 279 65 m 171 858 q 202 967 171 928 q 289 1006 233 1006 q 344 994 318 1006 q 408 958 371 982 q 457 931 440 939 q 490 924 474 924 q 540 947 522 924 q 557 1001 557 969 l 611 1001 q 580 893 611 932 q 493 854 549 854 q 438 866 464 854 q 374 901 411 878 q 325 928 342 921 q 292 936 308 936 q 242 913 260 936 q 225 858 225 890 l 171 858 z "},"ṍ":{"ha":781,"x_min":71,"x_max":710,"o":"m 392 -10 q 223 35 296 -10 q 110 161 150 79 q 71 351 71 243 q 110 542 71 460 q 223 668 150 624 q 392 713 296 713 q 558 668 486 713 q 670 542 631 624 q 710 351 710 460 q 670 161 710 243 q 558 35 631 79 q 392 -10 486 -10 m 390 65 q 562 140 501 65 q 622 351 622 214 q 561 563 622 488 q 392 639 500 639 q 221 563 282 639 q 160 351 160 488 q 219 139 160 213 q 390 65 279 65 m 171 858 q 202 967 171 928 q 289 1006 233 1006 q 344 994 318 1006 q 408 958 371 982 q 457 931 440 939 q 490 924 474 924 q 540 947 522 924 q 557 1001 557 969 l 611 1001 q 580 893 611 932 q 493 854 549 854 q 438 866 464 854 q 374 901 411 878 q 325 928 342 921 q 292 936 308 936 q 242 913 260 936 q 225 858 225 890 l 171 858 m 358 1060 l 499 1342 l 607 1342 l 424 1060 l 358 1060 z "},"ṏ":{"ha":781,"x_min":71,"x_max":710,"o":"m 392 -10 q 223 35 296 -10 q 110 161 150 79 q 71 351 71 243 q 110 542 71 460 q 223 668 150 624 q 392 713 296 713 q 558 668 486 713 q 670 542 631 624 q 710 351 710 460 q 670 161 710 243 q 558 35 631 79 q 392 -10 486 -10 m 390 65 q 562 140 501 65 q 622 351 622 214 q 561 563 622 488 q 392 639 500 639 q 221 563 282 639 q 160 351 160 488 q 219 139 160 213 q 390 65 279 65 m 171 858 q 202 967 171 928 q 289 1006 233 1006 q 344 994 318 1006 q 408 958 371 982 q 457 931 440 939 q 490 924 474 924 q 540 947 522 924 q 557 1001 557 969 l 611 1001 q 580 893 611 932 q 493 854 549 854 q 438 866 464 854 q 374 901 411 878 q 325 928 342 921 q 292 936 308 936 q 242 913 260 936 q 225 858 225 890 l 171 858 m 326 1253 l 326 1150 l 222 1150 l 222 1253 l 326 1253 m 560 1253 l 560 1150 l 456 1150 l 456 1253 l 560 1253 z "},"ȭ":{"ha":781,"x_min":71,"x_max":710,"o":"m 392 -10 q 223 35 296 -10 q 110 161 150 79 q 71 351 71 243 q 110 542 71 460 q 223 668 150 624 q 392 713 296 713 q 558 668 486 713 q 670 542 631 624 q 710 351 710 460 q 670 161 710 243 q 558 35 631 79 q 392 -10 486 -10 m 390 65 q 562 140 501 65 q 622 351 622 214 q 561 563 622 488 q 392 639 500 639 q 221 563 282 639 q 160 351 160 488 q 219 139 160 213 q 390 65 279 65 m 171 858 q 202 967 171 928 q 289 1006 233 1006 q 344 994 318 1006 q 408 958 371 982 q 457 931 440 939 q 490 924 474 924 q 540 947 522 924 q 557 1001 557 969 l 611 1001 q 580 893 611 932 q 493 854 549 854 q 438 866 464 854 q 374 901 411 878 q 325 928 342 921 q 292 936 308 936 q 242 913 260 936 q 225 858 225 890 l 171 858 m 183 1238 l 599 1238 l 599 1165 l 183 1165 l 183 1238 z "},"œ":{"ha":1299,"x_min":71,"x_max":1232,"o":"m 1232 338 l 710 338 q 778 135 714 206 q 961 65 843 65 q 1186 151 1082 65 l 1221 85 q 1105 17 1176 43 q 963 -10 1033 -10 q 780 38 856 -10 q 667 178 704 86 q 560 40 632 89 q 390 -10 489 -10 q 223 35 296 -10 q 110 161 150 79 q 71 351 71 243 q 110 542 71 460 q 223 668 150 624 q 390 713 296 713 q 558 665 488 713 q 665 529 629 617 q 776 664 703 615 q 946 713 849 713 q 1156 624 1079 713 q 1232 376 1232 535 l 1232 338 m 944 643 q 784 579 844 643 q 713 401 724 515 l 1154 401 q 1098 581 1153 518 q 944 643 1043 643 m 390 65 q 561 140 501 65 q 621 351 621 214 q 560 563 621 488 q 390 639 499 639 q 221 563 282 639 q 160 351 160 488 q 219 139 160 213 q 390 65 279 65 z "},"p":{"ha":821,"x_min":104,"x_max":750,"o":"m 440 713 q 602 667 532 713 q 711 540 672 622 q 750 349 750 457 q 712 160 750 240 q 603 35 674 79 q 440 -10 532 -10 q 291 28 353 -10 q 199 139 229 67 l 199 -300 l 115 -300 l 115 503 q 104 696 115 611 l 185 696 l 196 560 q 290 673 226 633 q 440 713 353 713 m 429 65 q 600 140 539 65 q 661 349 661 214 q 600 562 661 485 q 431 639 539 639 q 260 564 319 639 q 200 351 200 489 q 260 140 200 215 q 429 65 319 65 z "},"þ":{"ha":821,"x_min":115,"x_max":750,"o":"m 440 713 q 599 669 529 713 q 710 542 669 625 q 750 349 750 460 q 710 156 750 238 q 600 33 671 75 q 440 -10 529 -10 q 291 28 353 -10 q 199 139 229 67 l 199 -300 l 115 -300 l 115 1022 l 199 1022 l 199 565 q 292 675 229 638 q 440 713 354 713 m 429 65 q 601 140 540 65 q 661 349 661 215 q 601 561 661 483 q 431 639 540 639 q 260 564 319 639 q 200 351 200 489 q 260 140 200 215 q 429 65 319 65 z "},"q":{"ha":821,"x_min":71,"x_max":715,"o":"m 715 696 q 706 503 706 607 l 706 -300 l 621 -300 l 621 133 q 528 27 590 64 q 381 -10 467 -10 q 217 34 288 -10 q 109 159 147 78 q 71 349 71 240 q 110 540 71 457 q 219 667 149 622 q 381 713 289 713 q 532 674 469 713 q 625 563 594 635 l 638 696 l 715 696 m 393 65 q 561 140 501 65 q 621 351 621 215 q 561 564 621 489 q 392 639 501 639 q 221 562 282 639 q 160 349 160 485 q 221 140 160 214 q 393 65 282 65 z "},"r":{"ha":485,"x_min":104,"x_max":476,"o":"m 415 713 q 476 707 450 713 l 472 631 q 408 636 446 636 q 251 569 303 636 q 199 408 199 501 l 199 0 l 115 0 l 115 503 q 104 696 115 611 l 185 696 l 196 567 q 281 675 222 638 q 415 713 340 713 z "},"ŕ":{"ha":485,"x_min":104,"x_max":514,"o":"m 415 713 q 476 707 450 713 l 472 631 q 408 636 446 636 q 251 569 303 636 q 199 408 199 501 l 199 0 l 115 0 l 115 503 q 104 696 115 611 l 185 696 l 196 567 q 281 675 222 638 q 415 713 340 713 m 265 788 l 406 1069 l 514 1069 l 331 788 l 265 788 z "},"ř":{"ha":485,"x_min":104,"x_max":492,"o":"m 415 713 q 476 707 450 713 l 472 631 q 408 636 446 636 q 251 569 303 636 q 199 408 199 501 l 199 0 l 115 0 l 115 503 q 104 696 115 611 l 185 696 l 196 567 q 281 675 222 638 q 415 713 340 713 m 492 1069 l 332 788 l 264 788 l 104 1069 l 192 1069 l 299 857 l 404 1069 l 492 1069 z "},"ŗ":{"ha":485,"x_min":100,"x_max":476,"o":"m 415 713 q 476 707 450 713 l 472 631 q 408 636 446 636 q 251 569 303 636 q 199 408 199 501 l 199 0 l 115 0 l 115 503 q 104 696 115 611 l 185 696 l 196 567 q 281 675 222 638 q 415 713 340 713 m 218 -104 l 218 -182 q 203 -277 218 -235 q 150 -358 188 -319 l 106 -324 q 144 -267 133 -294 q 156 -207 154 -240 l 100 -207 l 100 -104 l 218 -104 z "},"ȑ":{"ha":485,"x_min":82,"x_max":476,"o":"m 415 713 q 476 707 450 713 l 472 631 q 408 636 446 636 q 251 569 303 636 q 199 408 199 501 l 199 0 l 115 0 l 115 503 q 104 696 115 611 l 185 696 l 196 567 q 281 675 222 638 q 415 713 340 713 m 82 1069 l 172 1069 l 240 788 l 193 788 l 82 1069 m 244 1069 l 335 1069 l 403 788 l 356 788 l 244 1069 z "},"ṛ":{"ha":485,"x_min":104,"x_max":476,"o":"m 415 713 q 476 707 450 713 l 472 631 q 408 636 446 636 q 251 569 303 636 q 199 408 199 501 l 199 0 l 115 0 l 115 503 q 104 696 115 611 l 185 696 l 196 567 q 281 675 222 638 q 415 713 340 713 m 214 -142 l 214 -250 l 104 -250 l 104 -142 l 214 -142 z "},"ȓ":{"ha":485,"x_min":75,"x_max":521,"o":"m 415 713 q 476 707 450 713 l 472 631 q 408 636 446 636 q 251 569 303 636 q 199 408 199 501 l 199 0 l 115 0 l 115 503 q 104 696 115 611 l 185 696 l 196 567 q 281 675 222 638 q 415 713 340 713 m 299 1028 q 431 987 372 1028 q 521 858 490 946 l 457 831 q 388 930 426 900 q 299 960 349 960 q 209 930 249 960 q 139 831 169 900 l 75 857 q 164 987 104 946 q 299 1028 224 1028 z "},"ṟ":{"ha":485,"x_min":-49,"x_max":476,"o":"m 415 713 q 476 707 450 713 l 472 631 q 408 636 446 636 q 251 569 303 636 q 199 408 199 501 l 199 0 l 115 0 l 115 503 q 104 696 115 611 l 185 696 l 196 567 q 281 675 222 638 q 415 713 340 713 m -49 -160 l 367 -160 l 367 -232 l -49 -232 l -49 -160 z "},"s":{"ha":686,"x_min":74,"x_max":608,"o":"m 342 -10 q 74 83 172 -10 l 104 149 q 216 83 160 103 q 346 64 272 64 q 477 94 432 64 q 522 181 522 124 q 492 255 522 228 q 394 299 463 282 l 276 325 q 145 394 193 344 q 97 511 97 444 q 167 658 97 603 q 354 713 238 713 q 491 689 428 713 q 596 621 554 665 l 564 556 q 354 639 468 639 q 229 607 274 639 q 185 518 185 575 q 213 442 185 471 q 301 399 242 413 l 421 369 q 608 185 608 328 q 536 44 608 97 q 342 -10 464 -10 z "},"ś":{"ha":686,"x_min":74,"x_max":608,"o":"m 342 -10 q 74 83 172 -10 l 104 149 q 216 83 160 103 q 346 64 272 64 q 477 94 432 64 q 522 181 522 124 q 492 255 522 228 q 394 299 463 282 l 276 325 q 145 394 193 344 q 97 511 97 444 q 167 658 97 603 q 354 713 238 713 q 491 689 428 713 q 596 621 554 665 l 564 556 q 354 639 468 639 q 229 607 274 639 q 185 518 185 575 q 213 442 185 471 q 301 399 242 413 l 421 369 q 608 185 608 328 q 536 44 608 97 q 342 -10 464 -10 m 321 788 l 461 1069 l 569 1069 l 386 788 l 321 788 z "},"ṥ":{"ha":686,"x_min":74,"x_max":608,"o":"m 342 -10 q 74 83 172 -10 l 104 149 q 216 83 160 103 q 346 64 272 64 q 477 94 432 64 q 522 181 522 124 q 492 255 522 228 q 394 299 463 282 l 276 325 q 145 394 193 344 q 97 511 97 444 q 167 658 97 603 q 354 713 238 713 q 491 689 428 713 q 596 621 554 665 l 564 556 q 354 639 468 639 q 229 607 274 639 q 185 518 185 575 q 213 442 185 471 q 301 399 242 413 l 421 369 q 608 185 608 328 q 536 44 608 97 q 342 -10 464 -10 m 322 786 l 463 1068 l 571 1068 l 388 786 l 322 786 m 274 1058 l 274 950 l 161 950 l 161 1058 l 274 1058 z "},"š":{"ha":686,"x_min":74,"x_max":608,"o":"m 342 -10 q 74 83 172 -10 l 104 149 q 216 83 160 103 q 346 64 272 64 q 477 94 432 64 q 522 181 522 124 q 492 255 522 228 q 394 299 463 282 l 276 325 q 145 394 193 344 q 97 511 97 444 q 167 658 97 603 q 354 713 238 713 q 491 689 428 713 q 596 621 554 665 l 564 556 q 354 639 468 639 q 229 607 274 639 q 185 518 185 575 q 213 442 185 471 q 301 399 242 413 l 421 369 q 608 185 608 328 q 536 44 608 97 q 342 -10 464 -10 m 547 1069 l 388 788 l 319 788 l 160 1069 l 247 1069 l 354 857 l 460 1069 l 547 1069 z "},"ṧ":{"ha":686,"x_min":74,"x_max":608,"o":"m 342 -10 q 74 83 172 -10 l 104 149 q 216 83 160 103 q 346 64 272 64 q 477 94 432 64 q 522 181 522 124 q 492 255 522 228 q 394 299 463 282 l 276 325 q 145 394 193 344 q 97 511 97 444 q 167 658 97 603 q 354 713 238 713 q 491 689 428 713 q 596 621 554 665 l 564 556 q 354 639 468 639 q 229 607 274 639 q 185 518 185 575 q 213 442 185 471 q 301 399 242 413 l 421 369 q 608 185 608 328 q 536 44 608 97 q 342 -10 464 -10 m 547 1069 l 388 788 l 319 788 l 160 1069 l 247 1069 l 354 857 l 460 1069 l 547 1069 m 410 1256 l 410 1147 l 297 1147 l 297 1256 l 410 1256 z "},"ş":{"ha":686,"x_min":74,"x_max":608,"o":"m 608 185 q 542 48 608 100 q 361 -10 475 -4 l 356 -61 q 393 -57 375 -57 q 466 -82 435 -57 q 497 -154 497 -107 q 456 -236 497 -204 q 342 -268 414 -268 q 278 -262 311 -268 q 221 -242 244 -256 l 240 -187 q 344 -207 286 -207 q 405 -193 385 -207 q 425 -154 425 -179 q 413 -124 425 -135 q 375 -114 400 -114 q 307 -128 349 -114 l 281 -107 l 290 -7 q 74 83 154 6 l 104 149 q 216 83 160 103 q 346 64 272 64 q 477 94 432 64 q 522 181 522 124 q 492 255 522 228 q 394 299 463 282 l 276 325 q 145 394 193 344 q 97 511 97 444 q 167 658 97 603 q 354 713 238 713 q 491 689 428 713 q 596 621 554 665 l 564 556 q 354 639 468 639 q 229 607 274 639 q 185 518 185 575 q 213 442 185 471 q 301 399 242 413 l 421 369 q 608 185 608 328 z "},"ŝ":{"ha":686,"x_min":74,"x_max":608,"o":"m 342 -10 q 74 83 172 -10 l 104 149 q 216 83 160 103 q 346 64 272 64 q 477 94 432 64 q 522 181 522 124 q 492 255 522 228 q 394 299 463 282 l 276 325 q 145 394 193 344 q 97 511 97 444 q 167 658 97 603 q 354 713 238 713 q 491 689 428 713 q 596 621 554 665 l 564 556 q 354 639 468 639 q 229 607 274 639 q 185 518 185 575 q 213 442 185 471 q 301 399 242 413 l 421 369 q 608 185 608 328 q 536 44 608 97 q 342 -10 464 -10 m 160 788 l 319 1069 l 388 1069 l 547 788 l 460 788 l 354 999 l 247 788 l 160 788 z "},"ș":{"ha":686,"x_min":74,"x_max":608,"o":"m 342 -10 q 74 83 172 -10 l 104 149 q 216 83 160 103 q 346 64 272 64 q 477 94 432 64 q 522 181 522 124 q 492 255 522 228 q 394 299 463 282 l 276 325 q 145 394 193 344 q 97 511 97 444 q 167 658 97 603 q 354 713 238 713 q 491 689 428 713 q 596 621 554 665 l 564 556 q 354 639 468 639 q 229 607 274 639 q 185 518 185 575 q 213 442 185 471 q 301 399 242 413 l 421 369 q 608 185 608 328 q 536 44 608 97 q 342 -10 464 -10 m 399 -104 l 399 -182 q 383 -277 399 -235 q 331 -358 368 -319 l 286 -324 q 324 -267 314 -294 q 336 -207 335 -240 l 281 -207 l 281 -104 l 399 -104 z "},"ṡ":{"ha":686,"x_min":74,"x_max":608,"o":"m 342 -10 q 74 83 172 -10 l 104 149 q 216 83 160 103 q 346 64 272 64 q 477 94 432 64 q 522 181 522 124 q 492 255 522 228 q 394 299 463 282 l 276 325 q 145 394 193 344 q 97 511 97 444 q 167 658 97 603 q 354 713 238 713 q 491 689 428 713 q 596 621 554 665 l 564 556 q 354 639 468 639 q 229 607 274 639 q 185 518 185 575 q 213 442 185 471 q 301 399 242 413 l 421 369 q 608 185 608 328 q 536 44 608 97 q 342 -10 464 -10 m 410 983 l 410 875 l 297 875 l 297 983 l 410 983 z "},"ṣ":{"ha":686,"x_min":74,"x_max":608,"o":"m 342 -10 q 74 83 172 -10 l 104 149 q 216 83 160 103 q 346 64 272 64 q 477 94 432 64 q 522 181 522 124 q 492 255 522 228 q 394 299 463 282 l 276 325 q 145 394 193 344 q 97 511 97 444 q 167 658 97 603 q 354 713 238 713 q 491 689 428 713 q 596 621 554 665 l 564 556 q 354 639 468 639 q 229 607 274 639 q 185 518 185 575 q 213 442 185 471 q 301 399 242 413 l 421 369 q 608 185 608 328 q 536 44 608 97 q 342 -10 464 -10 m 394 -142 l 394 -250 l 285 -250 l 285 -142 l 394 -142 z "},"ṩ":{"ha":686,"x_min":74,"x_max":608,"o":"m 342 -10 q 74 83 172 -10 l 104 149 q 216 83 160 103 q 346 64 272 64 q 477 94 432 64 q 522 181 522 124 q 492 255 522 228 q 394 299 463 282 l 276 325 q 145 394 193 344 q 97 511 97 444 q 167 658 97 603 q 354 713 238 713 q 491 689 428 713 q 596 621 554 665 l 564 556 q 354 639 468 639 q 229 607 274 639 q 185 518 185 575 q 213 442 185 471 q 301 399 242 413 l 421 369 q 608 185 608 328 q 536 44 608 97 q 342 -10 464 -10 m 394 -142 l 394 -250 l 285 -250 l 285 -142 l 394 -142 m 410 983 l 410 875 l 297 875 l 297 983 l 410 983 z "},"ß":{"ha":856,"x_min":115,"x_max":807,"o":"m 463 517 q 807 214 807 433 q 740 50 807 110 q 556 -10 672 -10 q 414 15 481 -10 q 300 83 347 39 l 335 149 q 446 84 393 104 q 556 64 499 64 q 680 102 638 64 q 722 214 722 140 q 642 359 722 297 q 365 474 563 421 l 365 540 q 550 657 497 593 q 603 808 603 721 q 559 917 603 879 q 433 956 515 956 q 258 893 318 956 q 199 706 199 831 l 199 0 l 115 0 l 115 699 q 198 943 115 858 q 432 1028 281 1028 q 618 969 551 1028 q 685 807 685 911 q 633 640 685 711 q 463 517 582 568 z "},"t":{"ha":468,"x_min":11,"x_max":439,"o":"m 233 628 l 233 214 q 265 99 233 131 q 360 67 297 67 q 435 79 399 67 l 435 3 q 344 -8 390 -8 q 201 43 253 -8 q 149 197 149 94 l 149 628 l 11 628 l 11 696 l 149 696 l 149 881 l 233 913 l 233 696 l 439 696 l 439 628 l 233 628 z "},"ŧ":{"ha":482,"x_min":18,"x_max":446,"o":"m 240 628 l 240 436 l 417 436 l 417 369 l 240 369 l 240 214 q 273 99 240 131 q 367 67 306 67 q 442 79 406 67 l 442 3 q 351 -8 397 -8 q 208 43 260 -8 q 156 197 156 94 l 156 369 l 47 369 l 47 436 l 156 436 l 156 628 l 18 628 l 18 696 l 156 696 l 156 881 l 240 913 l 240 696 l 446 696 l 446 628 l 240 628 z "},"ť":{"ha":468,"x_min":11,"x_max":439,"o":"m 360 753 l 308 753 l 308 992 l 396 992 l 360 753 m 233 628 l 233 214 q 265 99 233 131 q 360 67 297 67 q 435 79 399 67 l 435 3 q 344 -8 390 -8 q 201 43 253 -8 q 149 197 149 94 l 149 628 l 11 628 l 11 696 l 149 696 l 149 881 l 233 913 l 233 696 l 439 696 l 439 628 l 233 628 z "},"ţ":{"ha":468,"x_min":11,"x_max":460,"o":"m 356 -57 q 428 -82 397 -57 q 460 -154 460 -107 q 418 -236 460 -204 q 304 -268 376 -268 q 240 -262 274 -268 q 183 -242 207 -256 l 203 -187 q 307 -207 249 -207 q 367 -193 347 -207 q 388 -154 388 -179 q 375 -124 388 -135 q 338 -114 363 -114 q 269 -128 311 -114 l 243 -107 l 254 7 q 176 76 204 28 q 149 197 149 124 l 149 628 l 11 628 l 11 696 l 149 696 l 149 881 l 233 913 l 233 696 l 439 696 l 439 628 l 233 628 l 233 214 q 265 99 233 131 q 360 67 297 67 q 435 79 399 67 l 435 3 q 344 -8 390 -8 l 324 -8 l 318 -61 q 356 -57 338 -57 z "},"ț":{"ha":468,"x_min":11,"x_max":439,"o":"m 233 628 l 233 214 q 265 99 233 131 q 360 67 297 67 q 435 79 399 67 l 435 3 q 344 -8 390 -8 q 201 43 253 -8 q 149 197 149 94 l 149 628 l 11 628 l 11 696 l 149 696 l 149 881 l 233 913 l 233 696 l 439 696 l 439 628 l 233 628 m 361 -104 l 361 -182 q 346 -277 361 -235 q 293 -358 331 -319 l 249 -324 q 287 -267 276 -294 q 299 -207 297 -240 l 243 -207 l 243 -104 l 361 -104 z "},"ẗ":{"ha":468,"x_min":11,"x_max":439,"o":"m 233 628 l 233 214 q 265 99 233 131 q 360 67 297 67 q 435 79 399 67 l 435 3 q 344 -8 390 -8 q 201 43 253 -8 q 149 197 149 94 l 149 628 l 11 628 l 11 696 l 149 696 l 149 881 l 233 913 l 233 696 l 439 696 l 439 628 l 233 628 m 125 1153 l 125 1051 l 21 1051 l 21 1153 l 125 1153 m 358 1153 l 358 1051 l 254 1051 l 254 1153 l 358 1153 z "},"ṭ":{"ha":468,"x_min":11,"x_max":439,"o":"m 233 628 l 233 214 q 265 99 233 131 q 360 67 297 67 q 435 79 399 67 l 435 3 q 344 -8 390 -8 q 201 43 253 -8 q 149 197 149 94 l 149 628 l 11 628 l 11 696 l 149 696 l 149 881 l 233 913 l 233 696 l 439 696 l 439 628 l 233 628 m 357 -142 l 357 -250 l 247 -250 l 247 -142 l 357 -142 z "},"ṯ":{"ha":468,"x_min":11,"x_max":510,"o":"m 233 628 l 233 214 q 265 99 233 131 q 360 67 297 67 q 435 79 399 67 l 435 3 q 344 -8 390 -8 q 201 43 253 -8 q 149 197 149 94 l 149 628 l 11 628 l 11 696 l 149 696 l 149 881 l 233 913 l 233 696 l 439 696 l 439 628 l 233 628 m 94 -160 l 510 -160 l 510 -232 l 94 -232 l 94 -160 z "},"u":{"ha":790,"x_min":111,"x_max":675,"o":"m 675 696 l 675 0 l 593 0 l 593 126 q 499 25 560 60 q 358 -10 438 -10 q 174 58 236 -10 q 111 260 111 126 l 111 696 l 194 696 l 194 265 q 236 114 194 163 q 365 65 278 65 q 529 130 468 65 q 590 301 590 194 l 590 696 l 675 696 z "},"ú":{"ha":790,"x_min":111,"x_max":675,"o":"m 675 696 l 675 0 l 593 0 l 593 126 q 499 25 560 60 q 358 -10 438 -10 q 174 58 236 -10 q 111 260 111 126 l 111 696 l 194 696 l 194 265 q 236 114 194 163 q 365 65 278 65 q 529 130 468 65 q 590 301 590 194 l 590 696 l 675 696 m 361 788 l 501 1069 l 610 1069 l 426 788 l 361 788 z "},"ŭ":{"ha":790,"x_min":111,"x_max":675,"o":"m 675 696 l 675 0 l 593 0 l 593 126 q 499 25 560 60 q 358 -10 438 -10 q 174 58 236 -10 q 111 260 111 126 l 111 696 l 194 696 l 194 265 q 236 114 194 163 q 365 65 278 65 q 529 130 468 65 q 590 301 590 194 l 590 696 l 675 696 m 394 833 q 261 874 321 833 q 171 1001 201 915 l 235 1029 q 305 931 265 961 q 394 901 344 901 q 483 931 443 901 q 553 1029 522 961 l 617 1003 q 528 874 588 915 q 394 833 468 833 z "},"û":{"ha":790,"x_min":111,"x_max":675,"o":"m 675 696 l 675 0 l 593 0 l 593 126 q 499 25 560 60 q 358 -10 438 -10 q 174 58 236 -10 q 111 260 111 126 l 111 696 l 194 696 l 194 265 q 236 114 194 163 q 365 65 278 65 q 529 130 468 65 q 590 301 590 194 l 590 696 l 675 696 m 200 788 l 360 1069 l 428 1069 l 588 788 l 500 788 l 394 999 l 288 788 l 200 788 z "},"ȕ":{"ha":790,"x_min":111,"x_max":675,"o":"m 675 696 l 675 0 l 593 0 l 593 126 q 499 25 560 60 q 358 -10 438 -10 q 174 58 236 -10 q 111 260 111 126 l 111 696 l 194 696 l 194 265 q 236 114 194 163 q 365 65 278 65 q 529 130 468 65 q 590 301 590 194 l 590 696 l 675 696 m 178 1069 l 268 1069 l 336 788 l 289 788 l 178 1069 m 340 1069 l 431 1069 l 499 788 l 451 788 l 340 1069 z "},"ü":{"ha":790,"x_min":111,"x_max":675,"o":"m 675 696 l 675 0 l 593 0 l 593 126 q 499 25 560 60 q 358 -10 438 -10 q 174 58 236 -10 q 111 260 111 126 l 111 696 l 194 696 l 194 265 q 236 114 194 163 q 365 65 278 65 q 529 130 468 65 q 590 301 590 194 l 590 696 l 675 696 m 329 981 l 329 878 l 225 878 l 225 981 l 329 981 m 563 981 l 563 878 l 458 878 l 458 981 l 563 981 z "},"ụ":{"ha":790,"x_min":111,"x_max":675,"o":"m 675 696 l 675 0 l 593 0 l 593 126 q 499 25 560 60 q 358 -10 438 -10 q 174 58 236 -10 q 111 260 111 126 l 111 696 l 194 696 l 194 265 q 236 114 194 163 q 365 65 278 65 q 529 130 468 65 q 590 301 590 194 l 590 696 l 675 696 m 449 -142 l 449 -250 l 339 -250 l 339 -142 l 449 -142 z "},"ù":{"ha":790,"x_min":111,"x_max":675,"o":"m 675 696 l 675 0 l 593 0 l 593 126 q 499 25 560 60 q 358 -10 438 -10 q 174 58 236 -10 q 111 260 111 126 l 111 696 l 194 696 l 194 265 q 236 114 194 163 q 365 65 278 65 q 529 130 468 65 q 590 301 590 194 l 590 696 l 675 696 m 178 1069 l 286 1069 l 426 788 l 361 788 l 178 1069 z "},"ủ":{"ha":790,"x_min":111,"x_max":675,"o":"m 675 696 l 675 0 l 593 0 l 593 126 q 499 25 560 60 q 358 -10 438 -10 q 174 58 236 -10 q 111 260 111 126 l 111 696 l 194 696 l 194 265 q 236 114 194 163 q 365 65 278 65 q 529 130 468 65 q 590 301 590 194 l 590 696 l 675 696 m 429 788 l 364 788 l 364 828 q 377 874 364 856 q 418 921 390 893 q 447 951 438 939 q 456 976 456 963 q 440 1002 456 993 q 396 1011 424 1011 q 310 994 354 1011 l 290 1050 q 401 1075 344 1075 q 499 1049 463 1075 q 535 982 535 1022 q 520 930 535 950 q 478 888 506 910 q 441 851 453 867 q 429 810 429 835 l 429 788 z "},"ư":{"ha":806,"x_min":111,"x_max":844,"o":"m 844 883 l 844 851 q 801 708 844 761 q 675 644 757 654 l 675 0 l 593 0 l 593 126 q 499 25 560 60 q 358 -10 438 -10 q 174 58 236 -10 q 111 260 111 126 l 111 696 l 194 696 l 194 265 q 236 114 194 163 q 365 65 278 65 q 529 130 468 65 q 590 301 590 194 l 590 696 l 615 696 q 731 737 696 697 q 767 865 767 776 l 767 883 l 844 883 z "},"ứ":{"ha":806,"x_min":111,"x_max":844,"o":"m 844 883 l 844 851 q 801 708 844 761 q 675 644 757 654 l 675 0 l 593 0 l 593 126 q 499 25 560 60 q 358 -10 438 -10 q 174 58 236 -10 q 111 260 111 126 l 111 696 l 194 696 l 194 265 q 236 114 194 163 q 365 65 278 65 q 529 130 468 65 q 590 301 590 194 l 590 696 l 615 696 q 731 737 696 697 q 767 865 767 776 l 767 883 l 844 883 m 361 788 l 501 1069 l 610 1069 l 426 788 l 361 788 z "},"ự":{"ha":806,"x_min":111,"x_max":844,"o":"m 844 883 l 844 851 q 801 708 844 761 q 675 644 757 654 l 675 0 l 593 0 l 593 126 q 499 25 560 60 q 358 -10 438 -10 q 174 58 236 -10 q 111 260 111 126 l 111 696 l 194 696 l 194 265 q 236 114 194 163 q 365 65 278 65 q 529 130 468 65 q 590 301 590 194 l 590 696 l 615 696 q 731 737 696 697 q 767 865 767 776 l 767 883 l 844 883 m 449 -142 l 449 -250 l 339 -250 l 339 -142 l 449 -142 z "},"ừ":{"ha":806,"x_min":111,"x_max":844,"o":"m 844 883 l 844 851 q 801 708 844 761 q 675 644 757 654 l 675 0 l 593 0 l 593 126 q 499 25 560 60 q 358 -10 438 -10 q 174 58 236 -10 q 111 260 111 126 l 111 696 l 194 696 l 194 265 q 236 114 194 163 q 365 65 278 65 q 529 130 468 65 q 590 301 590 194 l 590 696 l 615 696 q 731 737 696 697 q 767 865 767 776 l 767 883 l 844 883 m 178 1069 l 286 1069 l 426 788 l 361 788 l 178 1069 z "},"ử":{"ha":806,"x_min":111,"x_max":844,"o":"m 844 883 l 844 851 q 801 708 844 761 q 675 644 757 654 l 675 0 l 593 0 l 593 126 q 499 25 560 60 q 358 -10 438 -10 q 174 58 236 -10 q 111 260 111 126 l 111 696 l 194 696 l 194 265 q 236 114 194 163 q 365 65 278 65 q 529 130 468 65 q 590 301 590 194 l 590 696 l 615 696 q 731 737 696 697 q 767 865 767 776 l 767 883 l 844 883 m 429 788 l 364 788 l 364 828 q 377 874 364 856 q 418 921 390 893 q 447 951 438 939 q 456 976 456 963 q 440 1002 456 993 q 396 1011 424 1011 q 310 994 354 1011 l 290 1050 q 401 1075 344 1075 q 499 1049 463 1075 q 535 982 535 1022 q 520 930 535 950 q 478 888 506 910 q 441 851 453 867 q 429 810 429 835 l 429 788 z "},"ữ":{"ha":806,"x_min":111,"x_max":844,"o":"m 844 883 l 844 851 q 801 708 844 761 q 675 644 757 654 l 675 0 l 593 0 l 593 126 q 499 25 560 60 q 358 -10 438 -10 q 174 58 236 -10 q 111 260 111 126 l 111 696 l 194 696 l 194 265 q 236 114 194 163 q 365 65 278 65 q 529 130 468 65 q 590 301 590 194 l 590 696 l 615 696 q 731 737 696 697 q 767 865 767 776 l 767 883 l 844 883 m 174 858 q 205 967 174 928 q 292 1006 236 1006 q 347 994 321 1006 q 411 958 374 982 q 460 931 443 939 q 493 924 476 924 q 542 947 525 924 q 560 1001 560 969 l 614 1001 q 583 893 614 932 q 496 854 551 854 q 440 866 467 854 q 376 901 414 878 q 328 928 344 921 q 294 936 311 936 q 245 913 263 936 q 228 858 228 890 l 174 858 z "},"ű":{"ha":790,"x_min":111,"x_max":675,"o":"m 675 696 l 675 0 l 593 0 l 593 126 q 499 25 560 60 q 358 -10 438 -10 q 174 58 236 -10 q 111 260 111 126 l 111 696 l 194 696 l 194 265 q 236 114 194 163 q 365 65 278 65 q 529 130 468 65 q 590 301 590 194 l 590 696 l 675 696 m 289 788 l 357 1069 l 447 1069 l 336 788 l 289 788 m 451 788 l 519 1069 l 610 1069 l 499 788 l 451 788 z "},"ȗ":{"ha":790,"x_min":111,"x_max":675,"o":"m 675 696 l 675 0 l 593 0 l 593 126 q 499 25 560 60 q 358 -10 438 -10 q 174 58 236 -10 q 111 260 111 126 l 111 696 l 194 696 l 194 265 q 236 114 194 163 q 365 65 278 65 q 529 130 468 65 q 590 301 590 194 l 590 696 l 675 696 m 394 1028 q 527 987 468 1028 q 617 858 586 946 l 553 831 q 483 930 522 900 q 394 960 444 960 q 305 930 344 960 q 235 831 265 900 l 171 857 q 260 987 200 946 q 394 1028 319 1028 z "},"ū":{"ha":790,"x_min":111,"x_max":675,"o":"m 675 696 l 675 0 l 593 0 l 593 126 q 499 25 560 60 q 358 -10 438 -10 q 174 58 236 -10 q 111 260 111 126 l 111 696 l 194 696 l 194 265 q 236 114 194 163 q 365 65 278 65 q 529 130 468 65 q 590 301 590 194 l 590 696 l 675 696 m 186 965 l 601 965 l 601 893 l 186 893 l 186 965 z "},"ṻ":{"ha":790,"x_min":111,"x_max":675,"o":"m 675 696 l 675 0 l 593 0 l 593 126 q 499 25 560 60 q 358 -10 438 -10 q 174 58 236 -10 q 111 260 111 126 l 111 696 l 194 696 l 194 265 q 236 114 194 163 q 365 65 278 65 q 529 130 468 65 q 590 301 590 194 l 590 696 l 675 696 m 186 965 l 601 965 l 601 893 l 186 893 l 186 965 m 329 1253 l 329 1150 l 225 1150 l 225 1253 l 329 1253 m 563 1253 l 563 1150 l 458 1150 l 458 1253 l 563 1253 z "},"ų":{"ha":790,"x_min":111,"x_max":742,"o":"m 742 -243 q 625 -274 692 -274 q 508 -233 553 -274 q 463 -126 463 -192 q 497 -25 463 -69 q 593 42 531 19 l 593 126 q 499 25 560 60 q 358 -10 438 -10 q 174 58 236 -10 q 111 260 111 126 l 111 696 l 194 696 l 194 265 q 236 114 194 163 q 365 65 278 65 q 529 130 468 65 q 590 301 590 194 l 590 696 l 675 696 l 675 0 l 668 0 q 574 -33 611 0 q 538 -117 538 -65 q 563 -185 538 -160 q 635 -211 589 -211 q 718 -183 674 -211 l 742 -243 z "},"ů":{"ha":790,"x_min":111,"x_max":675,"o":"m 675 696 l 675 0 l 593 0 l 593 126 q 499 25 560 60 q 358 -10 438 -10 q 174 58 236 -10 q 111 260 111 126 l 111 696 l 194 696 l 194 265 q 236 114 194 163 q 365 65 278 65 q 529 130 468 65 q 590 301 590 194 l 590 696 l 675 696 m 394 793 q 296 832 336 793 q 256 929 256 871 q 297 1024 256 985 q 394 1063 338 1063 q 492 1024 451 1063 q 532 929 532 985 q 492 832 532 871 q 394 793 451 793 m 394 856 q 444 876 425 856 q 464 929 464 897 q 444 979 464 958 q 394 1000 424 1000 q 344 979 364 1000 q 324 929 324 958 q 344 876 324 897 q 394 856 364 856 z "},"ũ":{"ha":790,"x_min":111,"x_max":675,"o":"m 675 696 l 675 0 l 593 0 l 593 126 q 499 25 560 60 q 358 -10 438 -10 q 174 58 236 -10 q 111 260 111 126 l 111 696 l 194 696 l 194 265 q 236 114 194 163 q 365 65 278 65 q 529 130 468 65 q 590 301 590 194 l 590 696 l 675 696 m 174 858 q 205 967 174 928 q 292 1006 236 1006 q 347 994 321 1006 q 411 958 374 982 q 460 931 443 939 q 493 924 476 924 q 542 947 525 924 q 560 1001 560 969 l 614 1001 q 583 893 614 932 q 496 854 551 854 q 440 866 467 854 q 376 901 414 878 q 328 928 344 921 q 294 936 311 936 q 245 913 263 936 q 228 858 228 890 l 174 858 z "},"ṹ":{"ha":790,"x_min":111,"x_max":675,"o":"m 675 696 l 675 0 l 593 0 l 593 126 q 499 25 560 60 q 358 -10 438 -10 q 174 58 236 -10 q 111 260 111 126 l 111 696 l 194 696 l 194 265 q 236 114 194 163 q 365 65 278 65 q 529 130 468 65 q 590 301 590 194 l 590 696 l 675 696 m 174 858 q 205 967 174 928 q 292 1006 236 1006 q 347 994 321 1006 q 411 958 374 982 q 460 931 443 939 q 493 924 476 924 q 542 947 525 924 q 560 1001 560 969 l 614 1001 q 583 893 614 932 q 496 854 551 854 q 440 866 467 854 q 376 901 414 878 q 328 928 344 921 q 294 936 311 936 q 245 913 263 936 q 228 858 228 890 l 174 858 m 361 1060 l 501 1342 l 610 1342 l 426 1060 l 361 1060 z "},"v":{"ha":729,"x_min":25,"x_max":706,"o":"m 706 696 l 407 0 l 319 0 l 25 696 l 115 696 l 367 85 l 619 696 l 706 696 z "},"w":{"ha":1199,"x_min":47,"x_max":1151,"o":"m 1151 696 l 899 0 l 811 0 l 600 588 l 388 0 l 299 0 l 47 696 l 138 696 l 343 101 l 560 696 l 644 696 l 854 101 l 1065 696 l 1151 696 z "},"ẃ":{"ha":1199,"x_min":47,"x_max":1151,"o":"m 1151 696 l 899 0 l 811 0 l 600 588 l 388 0 l 299 0 l 47 696 l 138 696 l 343 101 l 560 696 l 644 696 l 854 101 l 1065 696 l 1151 696 m 567 788 l 707 1069 l 815 1069 l 632 788 l 567 788 z "},"ŵ":{"ha":1199,"x_min":47,"x_max":1151,"o":"m 1151 696 l 899 0 l 811 0 l 600 588 l 388 0 l 299 0 l 47 696 l 138 696 l 343 101 l 560 696 l 644 696 l 854 101 l 1065 696 l 1151 696 m 406 788 l 565 1069 l 633 1069 l 793 788 l 706 788 l 600 999 l 493 788 l 406 788 z "},"ẅ":{"ha":1199,"x_min":47,"x_max":1151,"o":"m 1151 696 l 899 0 l 811 0 l 600 588 l 388 0 l 299 0 l 47 696 l 138 696 l 343 101 l 560 696 l 644 696 l 854 101 l 1065 696 l 1151 696 m 535 981 l 535 878 l 431 878 l 431 981 l 535 981 m 768 981 l 768 878 l 664 878 l 664 981 l 768 981 z "},"ẁ":{"ha":1199,"x_min":47,"x_max":1151,"o":"m 1151 696 l 899 0 l 811 0 l 600 588 l 388 0 l 299 0 l 47 696 l 138 696 l 343 101 l 560 696 l 644 696 l 854 101 l 1065 696 l 1151 696 m 383 1069 l 492 1069 l 632 788 l 567 788 l 383 1069 z "},"x":{"ha":733,"x_min":29,"x_max":706,"o":"m 706 0 l 601 0 l 367 293 l 135 0 l 29 0 l 315 358 l 44 696 l 150 696 l 367 424 l 583 696 l 689 696 l 419 358 l 706 0 z "}}}
